<svg width="40" height="40" viewBox="0 0 40 40" fill="none" xmlns="http://www.w3.org/2000/svg">
<circle cx="20" cy="20" r="20" fill="#6DC528"/>
<path d="M18.7849 30.9525L18.3325 21.762L14.4515 19.5239L13.9992 21.143L15.8563 24.3811L14.642 25.0954L12.4515 21.3573L13.5468 17.4525L19.1896 14.1906L16.523 11.5239L17.523 10.5239L21.523 14.5001L18.0706 16.4763L20.0944 18.1192L27.6658 11.3811L28.5706 12.2858L20.7134 20.8573L20.2373 30.9525H18.7849ZM13.1658 15.7858C12.6896 15.7858 12.2809 15.6152 11.9396 15.2739C11.5984 14.9327 11.4277 14.5239 11.4277 14.0477C11.4277 13.5715 11.5984 13.1628 11.9396 12.8215C12.2809 12.4803 12.6896 12.3096 13.1658 12.3096C13.642 12.3096 14.0508 12.4803 14.392 12.8215C14.7333 13.1628 14.9039 13.5715 14.9039 14.0477C14.9039 14.5239 14.7333 14.9327 14.392 15.2739C14.0508 15.6152 13.642 15.7858 13.1658 15.7858Z" fill="white"/>
</svg>
