<svg width="40" height="40" viewBox="0 0 40 40" fill="none" xmlns="http://www.w3.org/2000/svg">
<g clip-path="url(#clip0_3865_48691)">
<rect width="40" height="40" rx="20" fill="#6DC528"/>
<path d="M19.0658 29.9338V22.237H18.5658C17.4992 22.2182 16.4997 21.9999 15.5675 21.5821C14.6352 21.1644 13.8024 20.5758 13.0691 19.8164C12.3178 19.0496 11.7474 18.1621 11.3578 17.1536C10.9682 16.1452 10.7734 15.094 10.7734 14.0001V11.7881H12.9434C14.0003 11.7881 15.0173 11.9972 15.9943 12.4153C16.9714 12.8335 17.8452 13.4266 18.6158 14.1946C19.1376 14.733 19.5711 15.3323 19.9163 15.9925C20.2615 16.6527 20.5175 17.3484 20.6843 18.0794C20.7836 17.924 20.8928 17.7742 21.012 17.63C21.1311 17.4857 21.2512 17.3406 21.3724 17.1946C22.1429 16.4266 23.0166 15.8335 23.9936 15.4153C24.9705 14.9972 25.9958 14.7881 27.0695 14.7881H29.2398V17.0001C29.2398 18.094 29.0326 19.1452 28.6182 20.1536C28.2038 21.1621 27.6208 22.0496 26.8691 22.8164C26.1191 23.5758 25.2751 24.1602 24.3372 24.5696C23.3992 24.9791 22.4193 25.1932 21.3974 25.212H20.9474V29.9338H19.0658ZM19.0908 20.3164C19.0908 19.4127 18.9312 18.5423 18.612 17.705C18.2928 16.8676 17.8448 16.1497 17.2679 15.551C16.7193 14.9806 16.0473 14.5315 15.2521 14.2037C14.4569 13.8759 13.5959 13.7026 12.6691 13.6838C12.6879 14.6772 12.8445 15.5856 13.1387 16.4088C13.4329 17.2319 13.8575 17.933 14.4126 18.512C15.0749 19.2149 15.7843 19.6867 16.5408 19.9272C17.2974 20.1678 18.1474 20.2975 19.0908 20.3164ZM20.9474 23.3305C21.8437 23.3305 22.6957 23.1727 23.5033 22.8571C24.311 22.5415 25.0017 22.0867 25.5756 21.4924C26.1213 20.9265 26.5454 20.2319 26.8479 19.4088C27.1504 18.5856 27.3158 17.6772 27.3441 16.6838C26.3912 16.7026 25.5189 16.8759 24.7273 17.2036C23.9357 17.5314 23.2652 17.9762 22.7158 18.5381C22.0371 19.2543 21.5798 19.9962 21.3438 20.7639C21.1078 21.5316 20.9756 22.3871 20.9474 23.3305Z" fill="white"/>
</g>
<defs>
<clipPath id="clip0_3865_48691">
<rect width="40" height="40" fill="white"/>
</clipPath>
</defs>
</svg>
