<svg width="170" height="91" viewBox="0 0 170 91" fill="none" xmlns="http://www.w3.org/2000/svg">
<path d="M8.52189 33.7423L8.80967 34.2656C8.96891 34.5336 9.2271 34.7283 9.52858 34.8076C9.83005 34.8869 10.1506 34.8445 10.4211 34.6895C10.6851 34.5266 10.876 34.268 10.954 33.9677C11.032 33.6673 10.991 33.3485 10.8396 33.0776L8.86721 29.4144L8.57947 28.891C8.42122 28.6234 8.16392 28.4288 7.86331 28.3494C7.56269 28.2701 7.24295 28.3124 6.97327 28.4672C6.70735 28.6283 6.51448 28.8865 6.4354 29.1873C6.35632 29.4881 6.39723 29.8078 6.54949 30.079L8.52189 33.7423Z" fill="#020300"/>
<path d="M15.8772 34.0458C16.1877 34.0404 16.4841 33.9146 16.7037 33.6949C16.9233 33.4753 17.049 33.1789 17.0544 32.8683L17.18 28.6817C17.18 28.4828 17.18 28.2839 17.18 28.0851C17.18 27.7728 17.0559 27.4733 16.8352 27.2525C16.6144 27.0316 16.315 26.9076 16.0028 26.9076C15.6906 26.9076 15.3912 27.0316 15.1704 27.2525C14.9496 27.4733 14.8256 27.7728 14.8256 28.0851C14.7838 29.4719 14.7367 30.8639 14.6948 32.2717V32.8735C14.6989 33.1849 14.8252 33.4823 15.0463 33.7016C15.2675 33.9208 15.5658 34.0444 15.8772 34.0458Z" fill="#020300"/>
<path d="M5.65921 39.5354C5.81072 39.4971 5.95307 39.429 6.07798 39.335C6.20289 39.2411 6.30788 39.1232 6.38677 38.9883C6.46566 38.8533 6.51689 38.704 6.53749 38.5491C6.5581 38.3941 6.54766 38.2366 6.50677 38.0858C6.4165 37.7997 6.2321 37.5525 5.98359 37.3845L2.6404 34.9563L2.16955 34.6161C2.03351 34.5364 1.88286 34.4846 1.72652 34.4639C1.57018 34.4433 1.41128 34.4541 1.25918 34.4958C1.11003 34.5369 0.970477 34.6071 0.848458 34.7022C0.726438 34.7973 0.624353 34.9156 0.548065 35.0502C0.471777 35.1849 0.42278 35.3332 0.403856 35.4868C0.384932 35.6404 0.396475 35.7962 0.437801 35.9454C0.53025 36.2304 0.714159 36.4769 0.960989 36.6466L4.29893 39.0749L4.77502 39.415C5.04216 39.5707 5.36018 39.614 5.65921 39.5354Z" fill="#020300"/>
<path d="M60.0254 13.0652C60.0934 13.0652 60.1509 13.0234 60.2189 13.0024L59.4185 13.0757C59.618 13.1271 59.8277 13.1235 60.0254 13.0652Z" fill="#020300"/>
<path d="M102.157 80.2814C101.06 79.0085 99.7822 77.9046 98.3634 77.0054C96.8252 76.0844 95.1406 75.3517 93.5292 74.5719C90.1965 72.9549 86.8376 71.3953 83.531 69.7312C82.6259 69.2759 81.7104 68.8467 80.868 68.3391C80.7711 68.5415 80.6187 68.7121 80.4285 68.831C75.4935 72.0382 69.6941 73.6546 63.8121 73.4625C58.01 73.2218 52.1084 71.7303 47.1015 68.7525C46.7457 69.0194 46.3847 69.2759 46.0237 69.5428C43.5281 71.3221 40.6872 72.0181 37.8044 72.9182C37.6157 72.9822 37.413 72.993 37.2185 72.9496C37.3336 74.7499 36.3448 76.4873 35.4187 77.9579C34.2206 79.868 33.4829 81.9351 32.4732 83.9343C31.647 85.6784 30.2923 87.1177 28.6016 88.0476C28.0784 88.3407 27.7906 88.4139 27.5552 89.0105C27.3878 89.4815 27.2622 89.9734 27.1157 90.4549V90.5177H108.126C108.088 90.4386 108.056 90.3563 108.032 90.2717C106.959 86.598 104.699 83.0969 102.157 80.2814ZM81.8098 73.5829C71.0007 80.4489 56.1736 80.0355 45.4325 73.295C44.1507 72.4943 45.3331 70.4586 46.6201 71.2645C56.6967 77.5758 70.488 77.984 80.6273 71.5471C81.9039 70.7307 83.0863 72.7717 81.8098 73.5829Z" fill="#FFC89F"/>
<path d="M51.5593 59.5996C51.1042 61.515 50.9525 63.5089 50.1311 65.3196C49.835 65.9592 49.4414 66.5488 48.9644 67.0675C53.5302 69.5559 58.6155 70.9396 63.8124 71.1076C69.1964 71.292 74.5088 69.8317 79.0424 66.921C78.4602 66.326 78.014 65.6118 77.7344 64.8277C77.2472 63.1838 77.0074 61.4764 77.0229 59.7619C76.9915 58.9507 76.9653 58.1448 76.9392 57.3389C74.9517 59.9328 72.1327 61.7639 68.9553 62.525C65.1727 63.4409 61.6307 63.4356 57.9684 61.9651C54.969 60.7158 52.3702 58.6666 50.4554 56.041L50.1991 58.1343C50.3939 58.1046 50.5931 58.123 50.7793 58.1879C50.9654 58.2528 51.1329 58.3623 51.267 58.5068C51.4011 58.6513 51.4979 58.8264 51.5489 59.0169C51.5998 59.2074 51.6034 59.4074 51.5593 59.5996Z" fill="white"/>
<path d="M59.402 10.7944C61.2803 10.2711 63.012 8.92617 64.4455 7.46085C65.6921 6.19027 66.7494 4.74678 67.5847 3.1748C66.8432 3.70085 66.0467 4.14479 65.2094 4.49882C63.6722 5.16675 62.1004 5.75197 60.5007 6.25197C57.5761 7.16256 54.4736 7.68588 51.6746 8.96803C48.7395 10.3078 46.9659 12.6313 46.2072 15.7713C45.5062 18.5763 45.8829 21.554 45.977 24.4114C46.0328 26.1872 46.0851 27.9595 46.134 29.7284L46.3328 29.786C46.7145 28.4566 47.2226 27.1668 47.85 25.9343C48.2973 25.0788 48.5711 24.1433 48.6557 23.1816C48.6557 21.9727 48.6557 20.7638 48.7185 19.5602C48.8598 17.4669 49.4928 15.2166 51.4653 14.06C52.8308 13.2593 54.8241 12.9715 56.3832 12.8563C56.5836 12.8282 56.7877 12.8635 56.967 12.9574C57.1462 13.0512 57.2915 13.1989 57.3825 13.3797C58.0522 13.2488 58.7219 13.1494 59.3968 13.0762C58.4237 12.8093 58.1673 11.1451 59.402 10.7944Z" fill="white"/>
<path d="M64.1789 12.9453C64.1001 12.6442 64.1425 12.3242 64.2971 12.0541C64.4517 11.784 64.7061 11.5853 65.0056 11.5009C65.3233 11.4197 65.6359 11.3201 65.9421 11.2026L66.1775 11.0927C66.3083 11.0299 66.4339 10.9618 66.5647 10.8886C66.6955 10.8153 66.8315 10.7264 66.9623 10.6374L67.1664 10.4909C67.3962 10.3054 67.613 10.1044 67.8151 9.88903C67.925 9.7739 68.0244 9.65876 68.1238 9.5384L68.2441 9.37093C68.4226 9.10802 68.5834 8.83354 68.7254 8.5493L68.8196 8.34522V8.31382C68.8772 8.16205 68.9347 8.01029 68.987 7.85329C69.0857 7.53012 69.166 7.20165 69.2277 6.86943C69.3103 6.56825 69.509 6.31221 69.7803 6.15764C70.0516 6.00306 70.3732 5.96262 70.6743 6.0452C70.9754 6.12779 71.2314 6.32663 71.3859 6.59799C71.5405 6.86936 71.5809 7.19101 71.4983 7.49219C71.2239 9.0122 70.5194 10.4216 69.4684 11.5532C68.8115 12.2376 68.0325 12.7931 67.1716 13.1912C68.5737 13.3273 70.002 13.5 71.4774 13.6832C71.4566 13.5284 71.4708 13.3709 71.5187 13.2222C71.5667 13.0736 71.6473 12.9376 71.7547 12.8242C71.862 12.7108 71.9934 12.6228 72.1392 12.5668C72.2849 12.5108 72.4414 12.4881 72.597 12.5004C75.4273 12.7962 78.0325 14.1789 79.8641 16.3573C80.7861 17.3477 81.3482 18.6196 81.4598 19.9683C81.5017 21.3028 80.9367 22.5849 80.9 23.8932C80.9449 24.8476 81.0976 25.7939 81.3552 26.714C81.554 27.6926 81.7685 28.6921 81.8784 29.6917C82.1849 29.6473 82.495 29.6316 82.8044 29.6446C83.1271 26.6893 83.1587 23.7095 82.8986 20.7481C82.6946 17.9483 82.5271 14.892 81.4232 12.2754C80.471 10.0251 78.2108 8.70107 76.0448 7.78525C74.1038 6.96363 72.3459 6.38797 70.9909 4.64529C70.8125 4.42253 70.7154 4.14567 70.7154 3.86031C70.7154 3.57494 70.8125 3.29808 70.9909 3.07532C70.7189 2.8195 70.4247 2.58832 70.1119 2.38452C70.1736 2.55344 70.2012 2.73292 70.1931 2.91258C70.185 3.09223 70.1414 3.26848 70.0648 3.43117C69.0536 5.57783 67.6682 7.52714 65.9735 9.18776C64.3834 10.9014 62.3962 12.1973 60.187 12.961C61.5162 12.8784 62.8491 12.8731 64.1789 12.9453Z" fill="white"/>
<path d="M84.2797 32.9886C84.1369 32.7379 83.9446 32.5189 83.7147 32.3449C83.466 32.2968 83.2347 32.1829 83.045 32.0152C82.8224 31.9618 82.5926 31.9459 82.3648 31.9681C82.1875 31.994 82.0125 32.0343 81.8416 32.0884C81.7213 32.9362 81.5382 33.784 81.4179 34.5952C81.1929 36.0919 78.9275 35.4534 79.1472 33.9724C79.2414 33.3444 79.3303 32.7217 79.4245 32.0937L79.5972 30.9319C79.5972 30.8429 79.6286 30.754 79.639 30.665C79.6495 30.576 79.639 30.6074 79.639 30.7958C79.6468 30.6983 79.6468 30.6003 79.639 30.5028C79.4559 28.5979 78.9589 26.7558 78.6816 24.8666C78.3729 22.7732 79.8431 20.5125 78.6816 18.5866C78.0104 17.5621 77.1248 16.6955 76.086 16.0467C75.0472 15.398 73.8799 14.9825 72.6649 14.8291C72.3654 14.8095 72.0842 14.6782 71.8769 14.4611C71.6695 14.2441 71.5512 13.9571 71.5453 13.6569C70.0699 13.4737 68.6416 13.301 67.2395 13.165C66.7381 13.4157 66.2121 13.6138 65.6699 13.7563C65.3726 13.8305 65.0582 13.7884 64.7908 13.6386C64.5235 13.4889 64.3233 13.2427 64.2312 12.9504C62.911 12.8934 61.5886 12.9127 60.2706 13.008C60.2026 13.008 60.1451 13.0551 60.077 13.0708C59.8785 13.1256 59.6687 13.1256 59.4701 13.0708C58.7952 13.144 58.1256 13.2435 57.4559 13.3743C57.549 13.5568 57.596 13.7593 57.5929 13.9641C57.5898 14.1689 57.5367 14.3699 57.4382 14.5495C57.3396 14.7291 57.1987 14.8818 57.0276 14.9944C56.8565 15.107 56.6604 15.176 56.4566 15.1955C54.594 15.3315 52.3234 15.7188 51.4758 17.5818C50.9893 18.6651 51.0991 20.1461 51.0835 21.3079C51.0678 22.4697 51.1619 23.7466 50.8061 24.9398C50.3881 26.1405 49.9061 27.3179 49.3621 28.467C48.9959 29.3305 48.5617 30.3039 48.6245 31.2616C48.7186 32.5804 48.9541 33.8782 49.1477 35.2075C49.336 36.7094 46.9764 36.6937 46.7933 35.2075C46.673 34.2498 46.516 33.2816 46.4009 32.3187C46.3322 32.2928 46.2657 32.2613 46.2021 32.2245C45.7349 31.93 45.181 31.8045 44.6325 31.8687C43.2356 32.0937 42.6967 34.3492 42.6392 35.5058C42.5702 37.1301 43.1093 38.7219 44.1512 39.9697C45.0825 41.0164 46.4114 41.5763 47.6513 42.1258C47.8285 42.2299 47.9755 42.3782 48.0783 42.5561C48.181 42.7341 48.2358 42.9356 48.2373 43.1411C48.3515 45.305 48.7961 47.4387 49.5558 49.4681C50.6256 52.3534 52.3502 54.9509 54.594 57.0563C56.1099 58.4346 57.9026 59.473 59.8521 60.1021V57.8675C59.8521 57.5552 59.9761 57.2557 60.1969 57.0349C60.4176 56.8141 60.717 56.69 61.0293 56.69C61.3415 56.69 61.6409 56.8141 61.8616 57.0349C62.0824 57.2557 62.2064 57.5552 62.2064 57.8675V60.6987C62.6757 60.7734 63.1493 60.8171 63.6242 60.8295V57.8675C63.6296 57.5569 63.7554 57.2605 63.975 57.0408C64.1946 56.8212 64.4909 56.6954 64.8014 56.69C65.1128 56.6927 65.4106 56.8177 65.6308 57.0379C65.851 57.2581 65.9759 57.5561 65.9786 57.8675V60.6935C66.4495 60.6307 66.9203 60.5522 67.386 60.458V57.8727C67.386 57.5604 67.51 57.2609 67.7307 57.0401C67.9515 56.8193 68.2509 56.6952 68.5631 56.6952C68.8753 56.6952 69.1748 56.8193 69.3955 57.0401C69.6163 57.2609 69.7403 57.5604 69.7403 57.8727V59.8143C71.5568 59.2075 73.1871 58.1443 74.4751 56.7267C75.3872 55.6927 76.1546 54.5395 76.7563 53.2989C76.753 53.155 76.7835 53.0124 76.8453 52.8824C76.907 52.7524 76.9984 52.6388 77.112 52.5505C77.5049 51.6593 77.8438 50.7454 78.127 49.8135C78.6761 47.9315 79.0612 46.0054 79.278 44.0569C79.2834 43.7286 79.3545 43.4048 79.4873 43.1045C79.7907 42.5811 80.4813 42.4346 80.9836 42.1677C81.9315 41.6973 82.7722 41.0364 83.4531 40.2262C84.986 38.2375 85.5563 35.2284 84.2797 32.9886ZM64.7125 40.6553C66.2297 40.6553 66.2297 43.0103 64.7125 43.0103C63.1952 43.0103 63.2005 40.6553 64.7125 40.6553ZM57.6808 33.0357C56.1636 33.0357 56.1636 30.6807 57.6808 30.6807C59.1981 30.6807 59.1929 33.0357 57.6808 33.0357ZM59.4283 28.1949C59.2081 28.3209 58.9524 28.3706 58.7011 28.3362C58.096 28.2787 57.4876 28.2629 56.8804 28.2891C56.2862 28.289 55.6924 28.3205 55.1015 28.3833L55.3684 28.3467C55.064 28.412 54.7465 28.3714 54.4685 28.2315C54.3342 28.1541 54.2167 28.0509 54.1226 27.9277C54.0285 27.8046 53.9597 27.664 53.9203 27.5141C53.8809 27.3642 53.8716 27.2079 53.893 27.0544C53.9143 26.9009 53.9659 26.7531 54.0447 26.6197C54.2037 26.3627 54.4543 26.1757 54.7458 26.0964C55.4762 26.0024 56.2119 25.9552 56.9484 25.9551C57.6827 25.9181 58.4188 25.9549 59.1458 26.065C59.4454 26.1505 59.6995 26.3504 59.8532 26.6216C60.0068 26.8927 60.0478 27.2135 59.9672 27.5146C59.8812 27.802 59.6883 28.0454 59.4283 28.1949ZM69.034 49.5257C67.8217 50.6624 66.2372 51.319 64.5764 51.373C62.8604 51.373 61.3588 50.5514 60.0352 49.5257C59.816 49.3042 59.6931 49.0052 59.6931 48.6936C59.6931 48.382 59.816 48.083 60.0352 47.8615C60.2591 47.6472 60.5571 47.5276 60.8671 47.5276C61.177 47.5276 61.475 47.6472 61.6989 47.8615C61.9442 48.0492 62.1992 48.2239 62.4628 48.3848L62.9075 48.6256L63.1115 48.7198C63.3802 48.8247 63.6566 48.9087 63.9382 48.971L64.1527 49.0128C64.2782 49.0128 64.409 49.0128 64.5346 49.0128H64.9218H65.0107H65.152C65.4332 48.9579 65.7083 48.8755 65.9733 48.7668L66.1722 48.6727C66.3187 48.5942 66.4652 48.5157 66.6012 48.4267C66.7493 48.3387 66.8926 48.2426 67.0302 48.1389C67.1337 48.0657 67.2333 47.9871 67.3284 47.9034C67.5524 47.689 67.8504 47.5694 68.1603 47.5694C68.4702 47.5694 68.7682 47.689 68.9922 47.9034C69.2047 48.1174 69.3274 48.4046 69.3351 48.7062C69.3429 49.0078 69.2352 49.3009 69.034 49.5257ZM71.7912 33.0357C70.274 33.0357 70.274 30.6807 71.7912 30.6807C73.3085 30.6807 73.3032 33.0357 71.7912 33.0357ZM75.736 27.525C75.6574 27.8183 75.4704 28.0708 75.2129 28.2315C74.9371 28.3788 74.6169 28.4198 74.313 28.3467L74.5746 28.3833C73.9854 28.3205 73.3934 28.289 72.801 28.2891C72.1849 28.262 71.5677 28.2795 70.9541 28.3414L71.132 28.3153C70.908 28.3727 70.6721 28.3625 70.4538 28.2861C70.2356 28.2097 70.0449 28.0704 69.9056 27.8858C69.7664 27.7012 69.6848 27.4795 69.6712 27.2486C69.6576 27.0177 69.7126 26.788 69.8293 26.5883C69.9871 26.3302 70.2381 26.1428 70.5303 26.065C71.2573 25.9552 71.9934 25.9184 72.7277 25.9551C73.4642 25.9549 74.1999 26.0021 74.9303 26.0964C75.0767 26.1328 75.2144 26.1978 75.3356 26.2876C75.4568 26.3774 75.5591 26.4903 75.6366 26.6197C75.7119 26.7566 75.7595 26.9071 75.7765 27.0625C75.7936 27.2178 75.7798 27.375 75.736 27.525Z" fill="white"/>
<path d="M26.6749 86.3887C27.5695 85.8182 28.4851 85.4362 29.2228 84.6408C29.9918 83.6862 30.6013 82.6135 31.0278 81.4642C31.5196 80.339 31.9643 79.1929 32.5503 78.1149C32.9793 77.3351 33.5025 76.6077 33.9367 75.8332C34.371 75.0586 34.8942 74.1062 34.868 73.1799C34.868 72.6566 34.664 71.971 34.0937 71.8716C32.8799 71.6623 31.9015 73.7346 31.3522 74.5772C30.625 75.6866 29.8873 77.0525 28.9194 77.9579C25.8849 80.7995 22.1807 74.5039 21.9924 71.992C21.7569 68.852 24.9118 66.8948 27.0568 65.1416C27.2823 64.9281 27.5809 64.8092 27.8913 64.8092C28.2017 64.8092 28.5004 64.9281 28.7258 65.1416C29.365 65.8063 29.9511 66.5202 30.4785 67.2768C31.0017 67.999 31.4568 69.3073 32.5451 69.2236C32.9165 69.1974 33.4973 68.9305 33.5182 68.5014C33.5182 67.9781 32.8799 67.0989 32.6392 66.6436C32.3986 66.1883 32.1161 65.712 31.8545 65.2672C31.4568 64.6235 31.0017 64.0269 30.5465 63.4251C30.0913 62.8233 29.7355 61.9807 29.1653 61.5987C28.37 61.0754 27.1876 61.5987 26.4499 61.9912C25.2774 62.6123 24.1575 63.3282 23.1015 64.1316C22.9549 64.2633 22.7776 64.3561 22.5858 64.4014C22.3941 64.4468 22.194 64.4432 22.0039 64.3912C21.8139 64.3391 21.64 64.2401 21.4981 64.1033C21.3562 63.9665 21.2509 63.7963 21.1919 63.6083C20.6234 61.5394 20.0548 59.4705 19.4863 57.4016C18.7329 54.6437 17.9743 51.891 17.2523 49.1278C17.0273 48.28 16.907 47.1392 16.1484 46.6996C16.0737 46.6454 15.9889 46.6067 15.899 46.5861C15.8091 46.5654 15.716 46.563 15.6252 46.5792C15.5231 46.5942 15.4261 46.6337 15.3427 46.6944C15.125 46.8885 14.964 47.1381 14.877 47.4166C14.8143 47.6011 14.7653 47.79 14.7305 47.9817C14.7305 47.9817 14.7305 48.0498 14.7305 48.0655C14.7349 48.2039 14.7471 48.3419 14.7671 48.4789V48.5469L14.8142 48.84C14.9084 49.3843 15.013 49.9285 15.1281 50.4728C15.4159 51.8858 15.735 53.2883 16.0594 54.696C16.4832 56.5172 16.9174 58.3593 17.3674 60.1596C17.3945 60.2655 17.4068 60.3747 17.404 60.484C17.7859 61.9127 18.1731 63.3414 18.555 64.7701C18.937 66.1987 16.6768 66.8634 16.2844 65.398C15.8589 63.8002 15.4298 62.2075 14.9973 60.6201C14.3747 58.3279 13.7521 56.0305 13.1034 53.7436C12.8759 52.7305 12.5751 51.7353 12.2035 50.7658C11.9472 50.1954 11.1571 49.8448 10.7281 50.389C10.545 50.6298 10.6026 50.9124 10.5398 51.1845C10.5921 51.4671 10.634 51.7549 10.6863 52.0375C10.8537 53.0004 11.0368 53.9634 11.2095 54.9211C11.485 56.4003 11.7658 57.8779 12.0518 59.3536C12.0725 59.4801 12.0725 59.6092 12.0518 59.7357C12.1564 60.191 12.2663 60.6462 12.3657 61.1015C12.847 63.221 13.2918 65.3457 13.7155 67.4756C14.0085 68.9619 11.7379 69.569 11.4449 68.1036C11.0159 65.9371 10.5572 63.774 10.0689 61.6144C9.78116 60.3375 9.48816 59.0658 9.14286 57.8046C9.0016 57.2813 8.7557 55.7584 8.05986 55.8944C6.66818 56.177 7.38494 58.5529 7.53667 59.3275C8.05986 61.5411 8.37377 63.7862 8.68245 66.0313C9.31028 70.5528 9.8858 75.1476 10.8275 79.6378C11.3036 81.909 12.1303 84.0965 12.5959 86.3782C12.8345 87.7629 12.7449 89.1844 12.3343 90.5282H24.6188C24.7653 90.0572 24.9065 89.5862 25.053 89.1152C25.4088 88.0319 25.6913 87.0114 26.6749 86.3887Z" fill="white"/>
<path d="M75.1965 28.2311C75.4645 28.0719 75.6591 27.8136 75.7384 27.512C75.8177 27.2105 75.7753 26.8898 75.6203 26.6193C75.5428 26.4899 75.4405 26.377 75.3193 26.2872C75.1981 26.1974 75.0604 26.1324 74.914 26.096C74.1836 26.0017 73.4479 25.9545 72.7114 25.9547C71.9771 25.918 71.241 25.9548 70.514 26.0646C70.2218 26.1424 69.9707 26.3298 69.8129 26.5879C69.6963 26.7876 69.6413 27.0173 69.6549 27.2482C69.6684 27.4791 69.75 27.7008 69.8893 27.8854C70.0285 28.07 70.2193 28.2093 70.4375 28.2857C70.6557 28.3621 70.8917 28.3723 71.1157 28.3149L70.9378 28.341C71.5513 28.2791 72.1686 28.2616 72.7846 28.2887C73.3771 28.2886 73.9691 28.3201 74.5582 28.3829L74.2966 28.3463C74.6006 28.4194 74.9208 28.3784 75.1965 28.2311Z" fill="#020300"/>
<path d="M59.9677 27.4938C60.0483 27.1927 60.0074 26.872 59.8537 26.6008C59.7001 26.3296 59.446 26.1298 59.1463 26.0442C58.4194 25.9342 57.6832 25.8973 56.9489 25.9343C56.2124 25.9345 55.4768 25.9817 54.7463 26.0756C54.4548 26.155 54.2042 26.342 54.0452 26.599C53.9664 26.7324 53.9149 26.8802 53.8935 27.0337C53.8722 27.1872 53.8814 27.3434 53.9208 27.4933C53.9603 27.6432 54.029 27.7838 54.1231 27.907C54.2172 28.0301 54.3348 28.1334 54.469 28.2108C54.7471 28.3506 55.0646 28.3913 55.3689 28.3259L55.1021 28.3626C55.6929 28.2997 56.2867 28.2683 56.8809 28.2684C57.4882 28.2422 58.0965 28.258 58.7016 28.3155C58.953 28.3498 59.2086 28.3001 59.4288 28.1742C59.6889 28.0247 59.8817 27.7812 59.9677 27.4938Z" fill="#020300"/>
<path d="M57.6785 30.6812C56.1612 30.6812 56.1612 33.0361 57.6785 33.0361C59.1957 33.0361 59.1957 30.6812 57.6785 30.6812Z" fill="#020300"/>
<path d="M64.7117 40.6553C63.1996 40.6553 63.1944 43.0102 64.7117 43.0102C66.2289 43.0102 66.2289 40.6553 64.7117 40.6553Z" fill="#020300"/>
<path d="M71.7917 30.6812C70.2745 30.6812 70.2745 33.0361 71.7917 33.0361C73.309 33.0361 73.309 30.6812 71.7917 30.6812Z" fill="#020300"/>
<path d="M69.4986 11.5216C70.5496 10.39 71.2541 8.9806 71.5286 7.46059C71.6111 7.1594 71.5707 6.83776 71.4161 6.56639C71.2616 6.29503 71.0056 6.09618 70.7045 6.0136C70.4034 5.93102 70.0818 5.97146 69.8106 6.12603C69.5393 6.28061 69.3405 6.53664 69.2579 6.83783C69.1962 7.17004 69.1159 7.49852 69.0172 7.82168C68.9649 7.97868 68.9074 8.13045 68.8498 8.28221V8.31361L68.7557 8.5177C68.6136 8.80193 68.4528 9.07642 68.2743 9.33933L68.154 9.50679C68.0546 9.62716 67.9552 9.74228 67.8453 9.85741C67.6432 10.0727 67.4264 10.2738 67.1966 10.4593L66.9925 10.6058C66.8617 10.6947 66.7309 10.7785 66.5949 10.857C66.4589 10.9355 66.3385 10.9983 66.2077 11.0611L65.9723 11.171C65.6662 11.2885 65.3535 11.3881 65.0358 11.4693C64.7363 11.5537 64.4819 11.7524 64.3274 12.0225C64.1728 12.2926 64.1303 12.6126 64.2092 12.9137C65.2032 12.9555 66.2112 13.027 67.2332 13.1282C68.0804 12.7361 68.8483 12.1916 69.4986 11.5216Z" fill="#020300"/>
<path d="M64.1763 12.9451C64.2684 13.2397 64.4703 13.4876 64.74 13.6376C65.0097 13.7875 65.3267 13.8281 65.6255 13.751C66.1677 13.6085 66.6937 13.4103 67.1951 13.1596C66.1766 13.0619 65.1703 12.9904 64.1763 12.9451Z" fill="#020300"/>
<path d="M64.5813 51.3729C66.2421 51.3189 67.8265 50.6623 69.0388 49.5256C69.258 49.3041 69.3809 49.0051 69.3809 48.6935C69.3809 48.3819 69.258 48.0829 69.0388 47.8614C68.8149 47.6471 68.5169 47.5275 68.207 47.5275C67.897 47.5275 67.5991 47.6471 67.3751 47.8614C67.28 47.9452 67.1804 48.0238 67.0769 48.0969C66.9393 48.2006 66.796 48.2967 66.6479 48.3847C66.5118 48.4737 66.3653 48.5522 66.2189 48.6307L66.02 48.7249C65.7549 48.8336 65.4798 48.9159 65.1986 48.9708H65.0574H64.9684H64.5813C64.4557 48.9708 64.3249 48.9708 64.1994 48.9708L63.9848 48.929C63.7032 48.8667 63.4269 48.7827 63.1582 48.6778L62.9542 48.5836L62.5094 48.3429C62.2458 48.1819 61.9909 48.0072 61.7456 47.8195C61.5217 47.6052 61.2237 47.4856 60.9137 47.4856C60.6038 47.4856 60.3058 47.6052 60.0819 47.8195C59.8627 48.041 59.7397 48.34 59.7397 48.6516C59.7397 48.9632 59.8627 49.2622 60.0819 49.4837C61.3585 50.5513 62.86 51.3572 64.5813 51.3729Z" fill="#020300"/>
<path d="M110.301 89.6229C109.283 86.4078 107.687 83.4054 105.592 80.763C103.58 77.9732 100.945 75.6919 97.8958 74.1011C94.4951 72.395 91.0525 70.7832 87.6256 69.1242C86.1712 68.4177 84.7115 67.7113 83.2779 66.9577C82.3728 66.4814 81.1852 66.0052 80.5155 65.1784C79.5529 63.9433 79.5005 62.0384 79.4168 60.526C79.2912 58.2704 79.2913 56.0044 79.0977 53.7489C80.3673 50.7964 81.189 47.6708 81.5357 44.4756C83.2016 43.7344 84.6367 42.5574 85.6898 41.0687C87.0038 39.1121 87.5617 36.7443 87.2594 34.4068C87.0495 32.8504 86.2749 31.4255 85.0829 30.4033C85.4839 27.1952 85.5505 23.9541 85.2818 20.7323C85.062 17.7074 84.8475 14.4785 83.7122 11.6316C82.6658 8.97834 80.5469 7.3351 78.0304 6.09482C76.0789 5.1319 74.0803 4.76557 72.6729 2.98626C72.5755 2.85276 72.4463 2.74579 72.297 2.67512C72.1476 2.60445 71.983 2.57232 71.818 2.58169C71.6531 2.59106 71.4931 2.64162 71.3527 2.72875C71.2124 2.81587 71.096 2.93679 71.0144 3.08045C71.4296 3.45382 71.772 3.90097 72.0242 4.39923C71.772 3.90097 71.4296 3.45382 71.0144 3.08045C70.8361 3.30322 70.739 3.58008 70.739 3.86544C70.739 4.15081 70.8361 4.42767 71.0144 4.65043C72.3695 6.37218 74.1536 6.94783 76.0684 7.79039C78.2344 8.70621 80.4946 10.0302 81.4468 12.2805C82.5507 14.8972 82.7181 17.9534 82.9222 20.7532C83.1822 23.7146 83.1507 26.6945 82.828 29.6497C82.5185 29.6367 82.2085 29.6524 81.902 29.6968C81.7973 28.6973 81.5828 27.6977 81.3788 26.7191C81.1212 25.799 80.9685 24.8528 80.9236 23.8984C80.9759 22.5796 81.5253 21.3079 81.4834 19.9734C81.3718 18.6247 80.8097 17.3529 79.8877 16.3625C78.0561 14.184 75.4509 12.8013 72.6206 12.5056C72.4649 12.4932 72.3085 12.5159 72.1628 12.5719C72.017 12.628 71.8856 12.7159 71.7782 12.8293C71.6709 12.9427 71.5903 13.0787 71.5423 13.2274C71.4943 13.376 71.4802 13.5335 71.501 13.6883L72.8089 13.8557L71.501 13.6883C71.5069 13.9884 71.6252 14.2754 71.8326 14.4925C72.0399 14.7096 72.3211 14.8409 72.6206 14.8605C73.8356 15.0139 75.0028 15.4293 76.0416 16.0781C77.0804 16.7268 77.966 17.5934 78.6373 18.618C79.8092 20.5491 78.3391 22.8046 78.6373 24.8979C78.9146 26.7871 79.4116 28.6292 79.5947 30.5341C79.6025 30.6317 79.6025 30.7297 79.5947 30.8272C79.6261 30.6388 79.6366 30.5917 79.5947 30.6964C79.5529 30.801 79.5947 30.8743 79.5528 30.9633L79.3802 32.1251C79.286 32.7531 79.1971 33.3758 79.1029 34.0038C78.8832 35.4848 81.1486 36.1233 81.3735 34.6266C81.4939 33.8154 81.677 32.9676 81.7973 32.1198C81.9682 32.0657 82.1431 32.0254 82.3205 31.9995C82.5483 31.9773 82.7781 31.9932 83.0007 32.0466C83.1905 32.2143 83.4217 32.3282 83.6703 32.3763C83.9003 32.5503 84.0926 32.7693 84.2354 33.0199C85.512 35.2598 84.9312 38.2532 83.3721 40.2419C82.6913 41.0521 81.8506 41.713 80.9027 42.1834C80.3795 42.4503 79.7098 42.6125 79.4064 43.1202C79.2736 43.4204 79.2024 43.7443 79.1971 44.0726C78.9803 46.0211 78.5952 47.9472 78.0461 49.8292C77.7629 50.761 77.424 51.675 77.0311 52.5662C76.9174 52.6545 76.8261 52.7681 76.7643 52.8981C76.7025 53.028 76.672 53.1707 76.6753 53.3145C76.0737 54.5552 75.3063 55.7084 74.3942 56.7423C73.1062 58.16 71.4759 59.2232 69.6594 59.83V57.8884C69.6594 57.5761 69.5353 57.2766 69.3146 57.0558C69.0938 56.835 68.7944 56.7109 68.4822 56.7109C68.17 56.7109 67.8706 56.835 67.6498 57.0558C67.429 57.2766 67.305 57.5761 67.305 57.8884V60.4736C66.8394 60.5678 66.3685 60.6463 65.8977 60.7091V57.8832C65.8949 57.5717 65.77 57.2738 65.5498 57.0536C65.3297 56.8334 65.0318 56.7084 64.7205 56.7057C64.41 56.7111 64.1136 56.8369 63.894 57.0565C63.6744 57.2762 63.5487 57.5726 63.5433 57.8832V60.8452C63.0683 60.8328 62.5947 60.7891 62.1255 60.7144V57.8832C62.1255 57.5709 62.0014 57.2714 61.7807 57.0506C61.5599 56.8298 61.2605 56.7057 60.9483 56.7057C60.6361 56.7057 60.3367 56.8298 60.1159 57.0506C59.8951 57.2714 59.7711 57.5709 59.7711 57.8832V60.1178C57.8216 59.4887 56.0289 58.4502 54.5131 57.072C52.2693 54.9666 50.5446 52.3691 49.4748 49.4838C48.7246 47.4547 48.2888 45.3228 48.1825 43.162C48.1809 42.9565 48.1261 42.755 48.0234 42.5771C47.9207 42.3991 47.7736 42.2508 47.5965 42.1468C46.3566 41.6234 45.0277 41.0164 44.0964 39.9907C43.0545 38.7428 42.5154 37.1511 42.5844 35.5267C42.642 34.3701 43.1808 32.1146 44.5777 31.8896C45.1262 31.8254 45.6801 31.951 46.1473 32.2454C46.2109 32.2822 46.2774 32.3137 46.3461 32.3396C46.4612 33.3026 46.6182 34.2707 46.7385 35.2284C46.9216 36.7146 49.2812 36.7303 49.0929 35.2284C48.9254 33.9201 48.69 32.6118 48.5697 31.2825C48.5069 30.3248 48.9411 29.3514 49.3074 28.4879C49.8513 27.3388 50.3333 26.1614 50.7514 24.9607C51.1071 23.7675 51.0182 22.5587 51.0286 21.3288C51.0391 20.099 50.9345 18.686 51.421 17.6028C52.2686 15.7397 54.5602 15.3525 56.4018 15.2164C56.6057 15.1969 56.8017 15.1279 56.9728 15.0153C57.1439 14.9027 57.2848 14.75 57.3834 14.5704C57.4819 14.3908 57.535 14.1898 57.5381 13.985C57.5412 13.7802 57.4942 13.5777 57.4011 13.3952C56.7837 13.5156 56.1663 13.6569 55.549 13.8348C56.1663 13.6569 56.7837 13.5156 57.4011 13.3952C57.3101 13.2145 57.1648 13.0668 56.9855 12.9729C56.8063 12.879 56.6021 12.8437 56.4018 12.8719C54.8322 12.987 52.8493 13.2749 51.4838 14.0755C49.5114 15.2321 48.8679 17.4615 48.7371 19.5757C48.6534 20.7793 48.6952 21.9882 48.6743 23.1971C48.5896 24.1588 48.3158 25.0943 47.8686 25.9498C47.2411 27.1823 46.7331 28.4721 46.3513 29.8015L46.1525 29.7439C46.1072 27.9751 46.0549 26.2028 45.9956 24.4269C45.9014 21.5696 45.5247 18.5918 46.2258 15.7868C47.0053 12.6469 48.758 10.3338 51.6931 8.98357C54.4921 7.70142 57.5946 7.1781 60.5193 6.26751C62.119 5.76752 63.6908 5.1823 65.228 4.51436C66.0653 4.16033 66.8617 3.71639 67.6032 3.19035C66.7679 4.76232 65.7107 6.20581 64.4641 7.47639C63.0306 8.9417 61.325 10.2814 59.4206 10.81C58.1859 11.1606 58.4422 12.83 59.4206 13.0917L60.221 13.0184C62.4302 12.2547 64.4175 10.9589 66.0075 9.24524C67.7022 7.58462 69.0876 5.63531 70.0988 3.48865C70.1754 3.32596 70.2191 3.14968 70.2271 2.97003C70.2352 2.79038 70.2076 2.61091 70.1459 2.44199C69.4924 2.02204 68.8126 1.64446 68.1107 1.31161C68.8126 1.64446 69.4924 2.02204 70.1459 2.44199C70.0541 2.2184 69.8877 2.03349 69.675 1.91867C69.4888 1.81818 69.2797 1.7677 69.0682 1.77214L69.11 1.7198C69.968 0.463818 67.9329 -0.713665 67.0801 0.526618C66.2273 1.7669 64.642 2.30593 63.3811 2.80309C62.0156 3.32642 60.6292 3.84974 59.1956 4.25794C56.1925 5.14236 53.0796 5.75465 50.2386 7.12053C48.8108 7.8132 47.5415 8.79373 46.5106 10.0005C45.4797 11.2073 44.7094 12.6143 44.2481 14.1331C43.2541 17.1056 43.4738 20.1357 43.5784 23.2076C43.6517 25.3776 43.718 27.5494 43.7773 29.723C41.7734 30.2725 40.7375 32.46 40.3609 34.3701C39.9579 36.6404 40.4573 38.9782 41.7525 40.8855C42.7989 42.3613 44.2743 43.2614 45.8648 43.9993C45.9286 45.1124 46.0826 46.2186 46.3252 47.3068C46.8456 49.4544 47.6515 51.5225 48.7214 53.4558C49.2317 54.3827 49.8087 55.2712 50.4479 56.1143L50.6886 54.0838L50.4479 56.1143C52.3669 58.7375 54.9694 60.7831 57.9713 62.0279C61.6337 63.4985 65.1495 63.5037 68.9583 62.5879C72.132 61.8336 74.9505 60.0121 76.9421 57.4279C76.9421 58.2338 76.9944 59.0397 77.0258 59.8509C77.0103 61.5655 77.2501 63.2728 77.7374 64.9167C78.0169 65.7009 78.4632 66.415 79.0454 67.01C74.5118 69.9207 69.1993 71.381 63.8153 71.1966C58.6184 71.0286 53.5331 69.645 48.9673 67.1565C49.4443 66.6379 49.838 66.0482 50.134 65.4086C50.9554 63.5979 51.1071 61.604 51.5623 59.6887C51.6046 59.4983 51.6003 59.3005 51.5496 59.1122C51.499 58.9238 51.4036 58.7506 51.2715 58.6071C51.1394 58.4637 50.9745 58.3543 50.791 58.2884C50.6076 58.2225 50.4108 58.202 50.2177 58.2286L50.0032 60.0236L50.2177 58.2286C49.9939 58.2501 49.783 58.3432 49.6162 58.494C49.4494 58.6448 49.3356 58.8453 49.2917 59.0659C48.8888 60.7615 48.7685 62.5984 48.0988 64.2207C47.4291 65.843 45.9485 66.8111 44.5725 67.7636C42.2966 69.3336 39.8638 69.8569 37.1799 70.7151C36.952 70.7831 36.7508 70.9202 36.6044 71.1076C36.3221 70.6447 35.9304 70.2584 35.4638 69.9825C35.6321 69.7064 35.7524 69.4039 35.8196 69.0876C36.0498 67.863 35.2964 66.7065 34.7732 65.6703C34.3127 64.782 33.7882 63.9285 33.2036 63.1165C32.2044 61.7506 31.2312 59.7515 29.4995 59.2752C27.2498 58.6525 24.9163 60.0759 23.0172 61.4104C21.8086 57.0511 20.6 52.6918 19.4595 48.3272C19.1142 46.9823 18.7479 45.6844 17.5185 44.8628C17.175 44.6345 16.7899 44.4762 16.3852 44.3968C15.9805 44.3174 15.5641 44.3186 15.1599 44.4003C14.7556 44.4819 14.3714 44.6424 14.0292 44.8727C13.687 45.1029 13.3935 45.3983 13.1655 45.742C12.6947 46.4292 12.443 47.243 12.4435 48.0761C11.6333 47.7785 10.7386 47.8124 9.95318 48.1702C7.73486 49.2169 8.22141 51.6818 8.60334 53.6547C8.00531 53.5953 7.4027 53.7069 6.86556 53.9765C6.32841 54.2461 5.87878 54.6626 5.56886 55.1776C4.42308 56.9517 5.08751 58.8775 5.48513 60.7667C6.53151 65.6337 7.05471 70.6262 7.8238 75.535C8.23556 78.3577 8.81382 81.1537 9.55555 83.9082C9.93224 85.2165 10.5078 86.6818 10.5078 88.0582C10.462 88.9274 10.2857 89.7849 9.98457 90.6015H12.3703C12.7809 89.2577 12.8705 87.8363 12.6319 86.4516C12.1663 84.1699 11.3396 81.9824 10.8635 79.7111C9.92178 75.2419 9.34625 70.6471 8.71843 66.1046C8.40975 63.8596 8.06967 61.6145 7.57264 59.4008C7.39999 58.6263 6.68323 56.2609 8.09583 55.9678C8.79167 55.8317 9.03757 57.3651 9.17884 57.8779C9.52414 59.1392 9.81713 60.4108 10.1049 61.6878C10.5967 63.8439 11.0553 66.0069 11.4809 68.177C11.7739 69.6633 14.0445 69.0353 13.7515 67.549C13.3277 65.4191 12.883 63.2944 12.4017 61.1749C12.3023 60.7196 12.1924 60.2643 12.0878 59.809C12.1085 59.6825 12.1085 59.5535 12.0878 59.427C11.8052 57.9512 11.5245 56.4737 11.2454 54.9944C11.0676 54.0367 10.8844 53.0738 10.7222 52.1109C10.6699 51.8283 10.6281 51.5405 10.5758 51.2579C10.6386 50.991 10.5758 50.7032 10.7641 50.4624C11.1722 49.9391 11.9831 50.2688 12.2395 50.8392C12.6111 51.8087 12.9118 52.8039 13.1394 53.8169C13.7881 56.1039 14.4107 58.4013 15.0333 60.6934C15.4658 62.2844 15.8948 63.877 16.3204 65.4714C16.7128 66.9315 18.9834 66.3087 18.591 64.8434C18.1986 63.3781 17.8219 61.9861 17.44 60.5574C17.4428 60.4481 17.4304 60.3389 17.4034 60.2329C16.9534 58.417 16.5192 56.5696 16.0954 54.7694C15.771 53.3616 15.4519 51.9591 15.1641 50.5461C15.049 50.0019 14.9444 49.4576 14.8502 48.9134L14.8031 48.6203V48.5523C14.7831 48.4153 14.7709 48.2772 14.7665 48.1389C14.7665 48.1389 14.7665 48.0708 14.7665 48.0551C14.8013 47.8634 14.8503 47.6744 14.913 47.4899C15 47.2115 15.1609 46.9619 15.3786 46.7677C15.4621 46.7071 15.559 46.6676 15.6611 46.6526C15.752 46.6364 15.8451 46.6387 15.935 46.6594C16.0249 46.6801 16.1097 46.7187 16.1843 46.773C16.943 47.2126 17.0633 48.3429 17.2882 49.2012C18.0102 51.9644 18.7689 54.7171 19.5223 57.475C20.0873 59.5439 20.6558 61.6128 21.2279 63.6816C21.2869 63.8697 21.3922 64.0399 21.534 64.1767C21.6759 64.3135 21.8499 64.4124 22.0399 64.4645C22.23 64.5166 22.43 64.5201 22.6218 64.4748C22.8136 64.4294 22.9909 64.3367 23.1375 64.205C24.1935 63.4015 25.3134 62.6857 26.4859 62.0646C27.2236 61.693 28.406 61.1487 29.2012 61.6721C29.7715 62.0541 30.1587 62.949 30.5825 63.4985C31.0063 64.048 31.4928 64.6969 31.8904 65.3406C32.173 65.7854 32.4136 66.2459 32.6752 66.7169C32.9368 67.1879 33.5803 68.0671 33.5542 68.5747C33.5542 69.0039 32.9525 69.2708 32.5811 69.2969C31.4928 69.3807 31.0376 68.0723 30.5145 67.3502C29.987 66.5936 29.401 65.8797 28.7618 65.215C28.5363 65.0015 28.2377 64.8825 27.9273 64.8825C27.6169 64.8825 27.3182 65.0015 27.0928 65.215C24.9477 66.9681 21.7929 68.9254 22.0283 72.0653C22.2167 74.5773 25.9208 80.8729 28.9553 78.0312C29.9232 77.1259 30.6609 75.76 31.3882 74.6506C31.9114 73.808 32.9159 71.7356 34.1297 71.945C34.6999 72.0444 34.8935 72.7457 34.904 73.2533C34.904 74.1796 34.4174 75.1216 33.9727 75.9065C33.528 76.6915 33.0153 77.4085 32.5863 78.1882C32.0003 79.2663 31.5399 80.4124 31.0638 81.5375C30.6373 82.6868 30.0278 83.7595 29.2588 84.7141C28.5211 85.5096 27.6055 85.8916 26.7109 86.462C25.7273 87.0848 25.4448 88.1053 25.1413 89.1572C24.9948 89.6282 24.8535 90.0992 24.707 90.5701H27.1713V90.5073C27.3178 90.0259 27.4433 89.534 27.6108 89.063C27.82 88.4664 28.0921 88.3931 28.6571 88.1C30.3479 87.1702 31.7026 85.7309 32.5287 83.9867C33.5385 81.9876 34.2762 79.9205 35.4743 78.0103C36.4003 76.5398 37.3891 74.8023 37.274 73.0021C37.4685 73.0455 37.6712 73.0346 37.86 72.9707C40.7428 72.0706 43.5837 71.3745 46.0793 69.5952C46.4403 69.3336 46.8013 69.0719 47.1571 68.805C52.164 71.8037 58.0655 73.2951 63.8677 73.5149C69.7497 73.7071 75.5491 72.0906 80.4841 68.8835C80.6743 68.7645 80.8267 68.5939 80.9236 68.3916C81.7659 68.9149 82.6815 69.3283 83.5866 69.7836C86.8932 71.4478 90.252 73.0073 93.5847 74.6244C95.1962 75.4041 96.8808 76.1368 98.419 77.0579C99.8378 77.957 101.116 79.061 102.212 80.3339C104.755 83.1494 107.031 86.6138 108.088 90.3032C108.112 90.3878 108.143 90.4701 108.182 90.5492H110.274C110.347 90.4062 110.386 90.2491 110.391 90.089C110.396 89.9289 110.365 89.7697 110.301 89.6229ZM14.7508 48.4476C14.7508 48.4162 14.7508 48.411 14.7508 48.4162C14.7508 48.4214 14.7456 48.3953 14.7508 48.4476ZM30.64 71.474C29.7768 72.5887 29.0286 73.7975 28.2176 74.9489C28.0084 75.2471 27.459 76.2519 27.2707 76.2781C26.8888 76.3409 25.7011 74.8337 25.4291 74.4308C24.8142 73.6491 24.4332 72.7092 24.3304 71.7199C24.299 70.8093 24.7803 70.2232 25.4134 69.6266C26.172 68.9201 26.9829 68.245 27.7625 67.5804C28.1362 68.0342 28.4855 68.5076 28.8089 68.9986C29.3896 69.8778 29.9337 70.7099 30.8493 71.1809L30.64 71.474Z" fill="#020300"/>
<path d="M80.6234 71.5472C70.4893 77.9842 56.698 77.576 46.6162 71.2646C45.3291 70.4587 44.1468 72.4945 45.4286 73.2951C56.1853 80.0356 70.9967 80.449 81.8058 73.583C83.0876 72.7718 81.9052 70.7308 80.6234 71.5472Z" fill="#020300"/>
<path d="M104.545 78.0224L113.755 75.0919L132.593 76.3478L151.432 75.0919L163.154 81.3715L168.596 91.0001H113.755H94.0786L98.265 83.4646L104.545 78.0224Z" fill="#6CB1FF"/>
<path d="M127.212 44.3606C127.81 44.1737 128.342 43.8216 128.748 43.345C129.142 42.8792 129.346 42.2813 129.318 41.6714C129.29 41.0615 129.033 40.4847 128.597 40.0568C128.068 39.5187 127.376 39.1684 126.629 39.0594C125.995 38.955 125.344 39.0201 124.744 39.248C124.143 39.476 123.613 39.8587 123.208 40.3574C122.865 40.8259 122.702 41.402 122.749 41.9806C122.795 42.5593 123.049 43.1017 123.463 43.509C123.95 43.9804 124.557 44.3091 125.218 44.4593C125.879 44.6094 126.569 44.5753 127.212 44.3606ZM126.201 40.2299C127.522 40.2299 127.522 42.2793 126.201 42.2793C124.88 42.2793 124.884 40.2299 126.201 40.2299Z" fill="white"/>
<path d="M119.965 36.418C119.989 37.2036 119.964 37.99 119.892 38.7726L121.478 39.2781C121.614 39.0706 121.766 38.8742 121.933 38.6906C122.676 37.9362 123.613 37.402 124.64 37.1472C125.668 36.8924 126.746 36.9269 127.756 37.2469C128.531 37.4777 129.241 37.889 129.827 38.4471C130.413 39.0052 130.859 39.6942 131.127 40.4577H133.742C133.927 39.8298 134.237 39.2458 134.653 38.7407C135.349 37.9677 136.256 37.4146 137.262 37.1493C138.268 36.8839 139.329 36.9178 140.316 37.2469C141.36 37.5979 142.264 38.2748 142.895 39.1779L145.05 38.6496C144.904 33.271 142.854 27.1591 138.166 24.3491C137.141 27.7481 135.121 30.7621 132.366 33.0023C130.958 34.1272 129.418 35.0882 127.605 35.3387C125.942 35.5664 124.266 35.3022 122.594 35.1428C121.766 35.6606 120.884 36.0881 119.965 36.418ZM136.457 34.5234C137.247 34.2448 138.087 34.1377 138.922 34.2092C139.703 34.3142 140.457 34.5645 141.145 34.947C141.38 35.0841 141.551 35.3089 141.62 35.5719C141.69 35.835 141.651 36.1148 141.514 36.3497C141.377 36.5846 141.152 36.7555 140.889 36.8247C140.626 36.8939 140.346 36.8557 140.111 36.7186C139.97 36.6412 139.824 36.5683 139.655 36.5H139.619C139.564 36.4755 139.508 36.4543 139.45 36.4362C139.313 36.3863 139.173 36.3452 139.031 36.3133L138.831 36.2677C138.527 36.2487 138.223 36.2487 137.92 36.2677H137.819L137.614 36.3361C137.414 36.3816 137.218 36.4408 137.027 36.5046C136.764 36.577 136.484 36.5424 136.248 36.4083C136.011 36.2742 135.837 36.0516 135.765 35.7895C135.692 35.5274 135.727 35.2473 135.861 35.0107C135.995 34.7741 136.218 34.6005 136.48 34.528L136.457 34.5234Z" fill="white"/>
<path d="M141.716 41.8006C141.716 41.7688 141.716 41.4955 141.716 41.5001C141.716 41.5046 141.693 41.3816 141.684 41.3224C141.675 41.2632 141.634 41.1175 141.602 41.0173C141.602 41.0173 141.529 40.8215 141.534 40.8215C141.411 40.5291 141.235 40.2619 141.014 40.0336C140.535 39.5147 139.891 39.1769 139.192 39.0772C138.589 38.9781 137.971 39.0502 137.407 39.2853C136.843 39.5204 136.357 39.9091 136.003 40.407C135.911 40.5519 135.832 40.7043 135.766 40.8625C135.766 40.8943 135.73 40.9672 135.721 40.99L135.648 41.2405C135.648 41.3133 135.616 41.3816 135.602 41.45C135.604 41.4742 135.604 41.4986 135.602 41.5228V41.6048C135.593 41.7686 135.593 41.9328 135.602 42.0967C135.602 42.1285 135.602 42.1377 135.602 42.1422C135.602 42.1468 135.602 42.2515 135.634 42.3016C135.666 42.3517 135.666 42.4382 135.684 42.5066C135.702 42.5749 135.739 42.6751 135.766 42.757C135.768 42.7721 135.768 42.7875 135.766 42.8026L135.793 42.8527C135.862 42.9939 135.944 43.1259 136.026 43.2626C136.074 43.3565 136.139 43.4413 136.217 43.5131C136.65 43.9947 137.216 44.338 137.843 44.5C138.47 44.662 139.131 44.6356 139.743 44.4239C140.324 44.2363 140.833 43.8775 141.206 43.3946C141.206 43.3673 141.315 43.2307 141.315 43.2307C141.361 43.1578 141.406 43.085 141.447 43.0075C141.488 42.9301 141.52 42.8663 141.552 42.7935V42.7206C141.668 42.428 141.723 42.1152 141.716 41.8006ZM138.791 42.2971C137.47 42.2971 137.47 40.2476 138.791 40.2476C140.112 40.2476 140.099 42.2788 138.782 42.2788L138.791 42.2971Z" fill="white"/>
<path d="M130.536 54.6899C130.595 54.7901 130.65 54.8949 130.713 54.9905L130.759 55.0588C130.819 55.1177 130.875 55.1801 130.927 55.2456L131.132 55.4414L131.255 55.5371L131.319 55.5826L131.501 55.6919C131.57 55.7329 131.643 55.7648 131.716 55.8012C131.848 55.8422 131.971 55.8923 132.103 55.9242L132.303 55.9652H132.349C132.482 55.972 132.616 55.972 132.75 55.9652H132.877H132.964C133.104 55.9378 133.243 55.9013 133.379 55.8558L133.488 55.8149H133.515L133.588 55.7693C133.707 55.7056 133.823 55.6356 133.934 55.5598L134.089 55.4186L134.258 55.241L134.29 55.2046C134.367 55.0771 134.454 54.9587 134.527 54.8266L134.581 54.7127L130.536 54.6899Z" fill="white"/>
<path d="M145.233 51.1104C145.3 50.5826 145.399 50.0594 145.529 49.5437C145.57 49.3932 145.635 49.2502 145.721 49.1202C145.629 48.8367 145.595 48.5379 145.621 48.2412C145.664 47.6657 145.889 47.1189 146.263 46.679C146.6 46.2924 147.045 46.0153 147.541 45.883C148.037 45.7508 148.561 45.7695 149.047 45.9367L149.206 46.0096L149.261 45.9094C149.534 45.3507 149.694 44.7433 149.729 44.1224C149.765 43.5015 149.677 42.8797 149.47 42.2932C149.375 41.9923 149.211 41.7179 148.99 41.4924C148.769 41.2669 148.498 41.0966 148.199 40.9953C147.862 40.9444 147.517 40.9869 147.201 41.1182C147.119 41.1456 147.024 41.2002 146.942 41.2184C146.896 41.2274 146.852 41.246 146.814 41.2731C146.687 41.4416 146.705 41.3505 146.814 41.2731C146.846 41.2321 146.883 41.1774 146.933 41.1C146.454 41.8606 145.147 41.6648 145.047 40.7539L143.68 41.0818C143.68 41.2321 143.716 41.3824 143.725 41.5372C143.74 41.6184 143.748 41.7007 143.748 41.7832C143.711 42.9102 143.291 43.9908 142.556 44.8463C141.821 45.7018 140.816 46.2809 139.707 46.4878C138.682 46.6987 137.617 46.6039 136.645 46.2153C135.673 45.8267 134.837 45.1613 134.24 44.3017C133.876 43.7546 133.642 43.1314 133.557 42.48H131.279C131.068 43.5035 130.548 44.4375 129.788 45.1553C129.029 45.8731 128.067 46.3399 127.033 46.4923C125.977 46.6863 124.888 46.5751 123.894 46.1717C122.9 45.7683 122.041 45.0895 121.42 44.2152C120.82 43.3222 120.577 42.2362 120.741 41.1729L119.616 40.8131C119.288 42.9946 118.841 45.1716 118.75 47.3576C118.692 48.2825 118.735 49.211 118.878 50.1267C119.028 50.9738 119.333 51.7753 119.579 52.6042C120.012 54.1344 120.431 55.4871 122.09 56.0108C122.301 56.0758 122.486 56.2068 122.618 56.3847C122.749 56.5626 122.82 56.7779 122.82 56.9991C122.82 57.2203 122.749 57.4357 122.618 57.6136C122.486 57.7914 122.301 57.9225 122.09 57.9874C122.267 57.9327 121.885 58.1741 121.834 58.2106C122.6 59.7362 124.039 60.6426 125.506 61.517C127.356 62.6146 129.106 63.6256 131.297 63.7941C135.028 64.0993 138.532 62.4916 141.074 59.8091C143.393 57.4044 144.668 54.3986 145.233 51.1104ZM132.573 48.5281C133.894 48.5281 133.889 50.5775 132.573 50.5775C131.256 50.5775 131.238 48.5281 132.573 48.5281ZM135.762 56.6439C135.222 57.2366 134.527 57.6648 133.754 57.8792C132.982 58.0935 132.165 58.0853 131.397 57.8553C130.542 57.5704 129.784 57.0522 129.207 56.3594C128.631 55.6666 128.26 54.8266 128.135 53.9341C128.133 53.9205 128.133 53.9066 128.135 53.8931C128.116 53.8184 128.104 53.7422 128.099 53.6653C128.095 53.5214 128.125 53.3785 128.185 53.2476C128.245 53.1166 128.334 53.001 128.445 52.9093L128.532 52.8365C128.616 52.7784 128.708 52.7324 128.805 52.6998L128.85 52.6771H128.901H128.992H129.06H135.894C136.165 52.6795 136.424 52.7882 136.616 52.9798C136.808 53.1715 136.916 53.4308 136.919 53.7018C136.86 54.7822 136.452 55.8143 135.757 56.6439H135.762Z" fill="white"/>
<path d="M135.264 16.2015C130.644 13.979 124.681 15.4637 121.186 19.057C118.303 22.0219 116.494 25.9932 115.1 29.8325C113.702 33.6755 112.548 37.6031 111.646 41.5917C110.799 45.3718 109.678 49.4297 111.218 53.1688C112.371 55.9697 114.667 58.0419 117.542 58.4928C115.624 57.3789 114.177 55.6067 113.469 53.5058C113.045 52.2488 115.022 51.716 115.446 52.9593C115.999 54.5707 117.124 55.9235 118.608 56.7621C119.113 57.0536 119.328 57.2176 119.738 57.0536C118.841 56.2873 118.194 55.2707 117.879 54.1343C117.305 52.3126 116.744 50.5409 116.69 48.6372C116.562 44.2879 118.211 40.0342 117.874 35.6848C117.859 35.5584 117.871 35.4301 117.911 35.3089C117.95 35.1878 118.015 35.0767 118.102 34.9834C118.189 34.8902 118.295 34.817 118.413 34.769C118.531 34.721 118.658 34.6994 118.785 34.7056C118.872 34.6437 118.967 34.5946 119.068 34.5599C119.935 34.2677 120.763 33.87 121.533 33.3758C121.636 33.2383 121.781 33.1389 121.947 33.0934C123.875 31.7803 125.366 29.9194 126.225 27.7512C126.261 27.6214 126.322 27.5 126.405 27.3938C126.488 27.2876 126.591 27.1988 126.708 27.1324C126.825 27.066 126.954 27.0233 127.088 27.0068C127.222 26.9903 127.357 27.0003 127.487 27.0362C127.617 27.072 127.738 27.1331 127.845 27.216C127.951 27.2988 128.04 27.4017 128.106 27.5188C128.173 27.636 128.215 27.7651 128.232 27.8987C128.248 28.0323 128.238 28.1679 128.202 28.2977C127.48 30.1864 126.356 31.8957 124.908 33.3074C125.666 33.3838 126.429 33.3838 127.186 33.3074C128.676 33.1389 129.993 32.2964 131.123 31.3673C134.036 28.9534 136.007 25.5919 136.69 21.8716C136.922 20.6374 138.717 21.0791 138.681 22.2359C138.725 22.2514 138.767 22.2696 138.808 22.2906C144.512 25.4057 147.068 32.6926 147.109 39.0231L147.282 38.9912C147.817 38.896 148.367 38.929 148.886 39.0873C149.406 39.2457 149.88 39.5249 150.271 39.9021C151.706 41.2274 151.966 43.3907 151.638 45.217C151.467 46.0585 151.143 46.8614 150.681 47.5852C150.767 47.8517 150.813 48.1295 150.818 48.4095C150.817 48.4815 150.809 48.5531 150.795 48.6236C150.742 49.1831 150.518 49.7127 150.152 50.1402C149.796 50.5498 149.317 50.8327 148.786 50.9463C148.316 51.0325 147.831 50.998 147.378 50.8461C147.337 51.0601 147.301 51.2787 147.26 51.4928C146.993 53.1762 146.508 54.8176 145.815 56.375C145.269 57.5792 144.587 58.7175 143.783 59.768C144.53 59.7261 145.255 59.5042 145.897 59.1213C145.756 59.0035 145.649 58.8493 145.589 58.6754C145.53 58.5014 145.518 58.3143 145.557 58.1345C145.596 57.9547 145.684 57.789 145.811 57.6554C145.937 57.5219 146.098 57.4256 146.275 57.377C147.729 57.0217 149.146 55.8649 150.139 54.5897C151.143 53.1984 151.77 51.5717 151.961 49.8669C152.417 46.6015 151.884 43.2176 151.173 40.0296C150.549 37.2332 149.806 34.4551 148.973 31.7043C148.089 28.7076 147.068 25.7018 145.519 22.9737C144.212 20.6692 142.389 18.3056 139.597 17.9048C139.335 17.8323 139.113 17.6596 138.978 17.4243C138.843 17.1889 138.807 16.9098 138.877 16.6478C138.911 16.5408 138.963 16.4406 139.032 16.3518C138.307 15.9726 137.528 15.7069 136.722 15.5639C136.673 15.7054 136.596 15.8353 136.495 15.9453C136.393 16.0553 136.27 16.1431 136.133 16.203C135.996 16.263 135.848 16.2938 135.698 16.2935C135.549 16.2933 135.401 16.2619 135.264 16.2015Z" fill="#020300"/>
<path d="M123.037 64.4634C123.037 67.3144 122.231 70.1426 120.039 72.0873C118.658 73.2399 117.068 74.1166 115.356 74.6696C116.481 74.87 117.634 74.993 118.727 75.125C124.689 75.7245 130.685 75.9102 136.673 75.6807C139.456 75.5896 142.245 75.4393 145.005 75.0749C145.99 74.9521 146.968 74.7788 147.935 74.5558C148.135 74.5102 148.331 74.4601 148.518 74.41C148.012 74.1504 147.507 73.8863 147.01 73.6039C145.173 72.6304 143.626 71.1879 142.527 69.423C141.365 67.451 140.923 65.1693 140.764 62.9013C139.197 64.1596 137.371 65.0569 135.418 65.5292C133.464 66.0016 131.43 66.0373 129.461 65.6339C127.238 65.1374 125.265 63.8896 123.37 62.6736C122.68 62.2364 122.041 61.7231 121.465 61.1433V63.63C121.618 63.5336 121.793 63.4793 121.974 63.4724C122.154 63.4656 122.333 63.5066 122.493 63.5912C122.652 63.6758 122.787 63.801 122.882 63.9541C122.978 64.1073 123.031 64.283 123.037 64.4634Z" fill="white"/>
<path d="M137.005 36.5C137.196 36.4362 137.392 36.377 137.593 36.3315L137.852 36.2768H137.953C138.256 36.2578 138.56 36.2578 138.864 36.2768L139.064 36.3224C139.206 36.3543 139.346 36.3954 139.483 36.4453C139.541 36.4633 139.597 36.4846 139.652 36.5091H139.688C139.834 36.5774 139.98 36.6503 140.144 36.7277C140.379 36.8648 140.659 36.903 140.922 36.8338C141.185 36.7646 141.41 36.5937 141.547 36.3588C141.684 36.1239 141.722 35.8441 141.653 35.5811C141.584 35.318 141.413 35.0932 141.178 34.9561C140.49 34.5736 139.736 34.3233 138.955 34.2183C138.12 34.1468 137.28 34.2539 136.49 34.5325C136.228 34.605 136.005 34.7786 135.871 35.0152C135.737 35.2518 135.702 35.532 135.775 35.7941C135.847 36.0562 136.021 36.2788 136.258 36.4129C136.494 36.547 136.775 36.5816 137.037 36.5091L137.005 36.5Z" fill="#020300"/>
<path d="M138.783 40.2299C137.462 40.2299 137.462 42.2793 138.783 42.2793C140.105 42.2793 140.105 40.2299 138.783 40.2299Z" fill="#020300"/>
<path d="M132.57 50.577C133.886 50.577 133.891 48.5276 132.57 48.5276C131.249 48.5276 131.235 50.577 132.57 50.577Z" fill="#020300"/>
<path d="M126.198 42.2793C127.52 42.2793 127.52 40.2299 126.198 40.2299C124.877 40.2299 124.859 42.2793 126.198 42.2793Z" fill="#020300"/>
<path d="M157.789 76.8693C155.31 75.3755 152.7 74.1368 150.099 72.8616C148.276 71.9507 146.395 71.0398 145.051 69.4413C143.228 67.2689 142.823 64.2903 142.75 61.5487C142.745 61.409 142.715 61.2715 142.659 61.1433C143.963 59.7353 145.029 58.1249 145.816 56.375C146.5 54.8073 146.975 53.1567 147.228 51.4654C147.269 51.2514 147.306 51.0328 147.347 50.8187C147.8 50.9706 148.284 51.0051 148.755 50.9189C149.286 50.8053 149.765 50.5224 150.121 50.1128C150.486 49.6853 150.711 49.1558 150.764 48.5962C150.778 48.5258 150.786 48.4541 150.787 48.3822C150.782 48.1022 150.736 47.8244 150.65 47.5578C151.112 46.834 151.436 46.0312 151.607 45.1896C151.944 43.3679 151.684 41.2 150.24 39.8747C149.849 39.4975 149.375 39.2183 148.855 39.0599C148.336 38.9016 147.786 38.8687 147.251 38.9639L147.078 38.9957C147.037 32.6835 144.481 25.3784 138.755 22.2905C138.713 22.2696 138.671 22.2513 138.627 22.2359C138.663 21.0791 136.868 20.6373 136.636 21.8715C135.953 25.5919 133.982 28.9534 131.069 31.3673C129.939 32.2781 128.622 33.1389 127.133 33.3074C126.375 33.3838 125.612 33.3838 124.855 33.3074C126.303 31.8957 127.426 30.1863 128.148 28.2977C128.221 28.0356 128.186 27.7554 128.052 27.5188C127.918 27.2822 127.695 27.1086 127.433 27.0361C127.171 26.9636 126.891 26.9983 126.654 27.1324C126.417 27.2665 126.244 27.489 126.171 27.7512C125.32 29.9152 123.842 31.7755 121.925 33.0934C121.759 33.1389 121.614 33.2382 121.511 33.3757C120.741 33.87 119.913 34.2677 119.046 34.5598C118.945 34.5946 118.85 34.6437 118.763 34.7056C118.636 34.6993 118.509 34.721 118.391 34.7689C118.273 34.8169 118.167 34.8901 118.08 34.9834C117.993 35.0766 117.928 35.1877 117.889 35.3089C117.849 35.43 117.837 35.5583 117.852 35.6848C118.189 40.0341 116.54 44.2878 116.668 48.6372C116.722 50.5409 117.283 52.3307 117.857 54.1342C118.172 55.2707 118.819 56.2872 119.716 57.0536C119.306 57.1993 119.091 57.0536 118.586 56.7621C117.102 55.9235 115.977 54.5706 115.424 52.9592C115 51.7159 113.023 52.2488 113.447 53.5058C114.147 55.6015 115.582 57.373 117.488 58.4927C114.613 58.0373 112.317 55.9696 111.164 53.1687C109.624 49.4296 110.745 45.3718 111.592 41.5917C112.499 37.6027 113.657 33.6752 115.059 29.8325C116.454 25.9932 118.249 22.0218 121.146 19.057C124.64 15.4636 130.604 13.9789 135.224 16.2014C136.404 16.7707 137.447 15.0036 136.258 14.4298C131.634 12.2073 125.697 12.9223 121.583 15.9692C117.884 18.7017 115.624 22.9919 113.907 27.1545C112.207 31.3968 110.836 35.7636 109.807 40.2163C109.251 42.5481 108.809 44.9163 108.44 47.2891C108.135 49.2904 108.326 51.3358 108.996 53.2462C110.558 57.6593 114.499 61.0386 119.36 60.6059C119.588 60.5874 119.803 60.495 119.973 60.3429C120.143 60.1908 120.259 59.9873 120.303 59.7634C121.084 60.9385 122.113 61.9274 123.319 62.6599C125.214 63.8759 127.187 65.1238 129.41 65.6202C131.38 66.0236 133.413 65.9879 135.367 65.5156C137.321 65.0432 139.146 64.1459 140.714 62.8876C140.873 65.1648 141.315 67.4419 142.477 69.4094C143.576 71.1742 145.122 72.6167 146.96 73.5902C147.456 73.8726 147.962 74.1368 148.468 74.3964C148.281 74.4465 148.085 74.4966 147.884 74.5421C146.917 74.7652 145.94 74.9385 144.955 75.0613C142.194 75.4256 139.406 75.5759 136.622 75.667C130.635 75.8965 124.639 75.7108 118.677 75.1114C117.574 74.993 116.431 74.87 115.306 74.656C117.018 74.1029 118.608 73.2263 119.989 72.0737C122.18 70.129 122.982 67.3008 122.987 64.4498C122.987 63.1336 120.941 63.129 120.937 64.4498C120.937 66.8635 120.299 69.1452 118.399 70.7438C116.577 72.2695 114.253 72.8297 112.071 73.572C106.927 75.3118 101.916 77.8941 98.2165 81.9565C96.2603 84.1276 94.7164 86.6371 93.6606 89.3618H95.8702C97.9204 84.6481 101.533 80.9682 106.03 78.4315C107.886 77.4003 109.826 76.5274 111.829 75.8219C113.624 76.5597 115.656 76.7783 117.561 77.0151C120.422 77.3749 123.301 77.5525 126.18 77.6618C132.262 77.8941 138.44 77.8804 144.495 77.1563C146.609 76.9012 148.982 76.6689 150.873 75.6397L150.923 75.6032C152.067 76.1543 153.201 76.7008 154.331 77.2974C156.842 78.5813 159.195 80.1524 161.342 81.9793C163.695 83.9972 165.552 86.5274 166.773 89.3755H168.974C166.864 83.8648 162.773 79.8706 157.789 76.8693ZM148.759 48.4186C148.745 48.482 148.727 48.5444 148.705 48.6053C148.682 48.6463 148.659 48.6873 148.632 48.7283L148.55 48.8103L148.427 48.8831C148.381 48.8831 148.331 48.9105 148.285 48.9241H148.135C148.087 48.9132 148.04 48.8995 147.994 48.8831L147.871 48.8103L147.789 48.7283C147.761 48.6873 147.739 48.6463 147.716 48.6053C147.693 48.5643 147.689 48.5097 147.675 48.4641V48.3138C147.675 48.2683 147.675 48.2182 147.716 48.1727C147.757 48.1271 147.761 48.0907 147.789 48.0497L147.871 47.9677L147.994 47.8949L148.135 47.8539H148.285L148.427 47.8949L148.55 47.9677L148.632 48.0497C148.659 48.0907 148.682 48.1317 148.705 48.1727C148.727 48.2336 148.745 48.296 148.759 48.3594V48.4186ZM119.966 36.4135C120.892 36.0818 121.78 35.6512 122.613 35.1291C124.267 35.2885 125.943 35.5527 127.625 35.325C129.447 35.0745 130.978 34.1135 132.385 32.9886C135.14 30.7484 137.16 27.7344 138.185 24.3354C142.873 27.1454 144.923 33.2573 145.069 38.6359L142.914 39.1642C142.284 38.2611 141.38 37.5842 140.335 37.2332C139.352 36.9069 138.295 36.8735 137.292 37.1372C136.29 37.4008 135.386 37.95 134.691 38.7179C134.274 39.223 133.964 39.807 133.78 40.4349H131.164C130.896 39.6714 130.451 38.9824 129.865 38.4243C129.279 37.8662 128.569 37.4549 127.793 37.2241C126.782 36.9064 125.703 36.8748 124.675 37.1328C123.648 37.3909 122.711 37.9285 121.971 38.686C121.804 38.8696 121.651 39.066 121.515 39.2736L119.93 38.768C119.99 37.9861 120.002 37.2013 119.966 36.418V36.4135ZM141.716 41.8012C141.72 42.1032 141.666 42.4032 141.556 42.6847V42.7576C141.524 42.8305 141.488 42.8988 141.452 42.9716C141.415 43.0445 141.365 43.1219 141.319 43.1948C141.319 43.1948 141.224 43.3314 141.21 43.3588C140.838 43.8416 140.328 44.2004 139.748 44.388C139.135 44.5997 138.474 44.6261 137.847 44.4641C137.22 44.3021 136.654 43.9588 136.221 43.4772C136.144 43.4054 136.079 43.3207 136.03 43.2267C135.948 43.0901 135.866 42.958 135.798 42.8168L135.77 42.7667C135.773 42.7516 135.773 42.7362 135.77 42.7212C135.743 42.6392 135.711 42.5572 135.688 42.4707C135.666 42.3841 135.652 42.334 135.638 42.2657C135.625 42.1974 135.638 42.161 135.606 42.1063C135.575 42.0517 135.606 42.1063 135.606 42.0608C135.597 41.897 135.597 41.7327 135.606 41.5689V41.4869C135.609 41.4627 135.609 41.4383 135.606 41.4141C135.606 41.3458 135.638 41.2774 135.652 41.2046L135.725 40.9541C135.725 40.9313 135.761 40.8584 135.77 40.8266C135.836 40.6684 135.916 40.516 136.007 40.3711C136.361 39.8732 136.847 39.4845 137.411 39.2494C137.975 39.0143 138.594 38.9422 139.196 39.0413C139.896 39.141 140.539 39.4788 141.019 39.9977C141.239 40.2261 141.415 40.4932 141.538 40.7856L141.606 40.9814C141.638 41.0816 141.666 41.1818 141.688 41.2865C141.711 41.3913 141.711 41.405 141.72 41.4642C141.729 41.5234 141.716 41.7511 141.716 41.8012ZM129.328 41.8012C129.317 42.3714 129.115 42.9214 128.754 43.3633C128.349 43.8399 127.816 44.192 127.219 44.3789C126.576 44.5936 125.886 44.6277 125.225 44.4776C124.564 44.3274 123.957 43.9987 123.47 43.5273C123.056 43.12 122.802 42.5776 122.755 41.9989C122.709 41.4203 122.872 40.8442 123.214 40.3757C123.62 39.877 124.15 39.4943 124.75 39.2663C125.351 39.0384 126.002 38.9733 126.636 39.0777C127.383 39.1867 128.074 39.537 128.604 40.0751C129.053 40.5391 129.308 41.156 129.319 41.8012H129.328ZM141.078 59.8727C138.536 62.5552 135.032 64.1628 131.301 63.8577C129.11 63.6801 127.36 62.669 125.511 61.5805C124.044 60.7061 122.604 59.7998 121.839 58.2741C121.889 58.2377 122.294 57.9963 122.094 58.0509C122.305 57.986 122.49 57.855 122.622 57.6771C122.753 57.4992 122.824 57.2839 122.824 57.0627C122.824 56.8415 122.753 56.6261 122.622 56.4482C122.49 56.2703 122.305 56.1393 122.094 56.0744C120.435 55.5506 120.016 54.198 119.583 52.6678C119.351 51.8389 119.032 51.0373 118.882 50.1902C118.739 49.2746 118.696 48.3461 118.754 47.4212C118.845 45.2351 119.292 43.0582 119.62 40.8767L120.745 41.2365C120.581 42.2998 120.824 43.3858 121.424 44.2787C122.046 45.1531 122.904 45.8319 123.898 46.2353C124.893 46.6386 125.981 46.7499 127.037 46.5559C128.071 46.4034 129.033 45.9366 129.793 45.2188C130.552 44.5011 131.072 43.567 131.283 42.5435H133.561C133.647 43.195 133.88 43.8181 134.244 44.3653C134.841 45.2248 135.677 45.8903 136.649 46.2789C137.621 46.6675 138.686 46.7622 139.711 46.5513C140.828 46.3437 141.84 45.7583 142.577 44.8935C143.313 44.0286 143.73 42.9368 143.757 41.8012C143.756 41.7187 143.749 41.6364 143.734 41.5553C143.734 41.4004 143.734 41.2501 143.688 41.0998L145.055 40.7719C145.155 41.6828 146.463 41.8786 146.941 41.118C146.891 41.1955 146.855 41.2501 146.823 41.2911C146.861 41.264 146.905 41.2454 146.95 41.2365C147.032 41.2365 147.128 41.1636 147.21 41.1363C147.525 41.0049 147.87 40.9624 148.208 41.0133C148.507 41.1146 148.778 41.2849 148.999 41.5104C149.219 41.7359 149.384 42.0103 149.479 42.3113C149.686 42.8977 149.774 43.5195 149.738 44.1404C149.702 44.7613 149.543 45.3688 149.269 45.9274L149.215 46.0276L149.055 45.9547C148.57 45.7875 148.046 45.7688 147.55 45.901C147.054 46.0333 146.609 46.3104 146.272 46.6971C145.898 47.1369 145.673 47.6837 145.629 48.2592C145.604 48.5559 145.638 48.8547 145.73 49.1382C145.644 49.2682 145.579 49.4112 145.538 49.5617C145.408 50.0774 145.309 50.6006 145.242 51.1284C144.668 54.3984 143.392 57.4042 141.069 59.8545L141.078 59.8727Z" fill="#020300"/>
<path d="M150.148 54.6033C149.155 55.8785 147.738 57.0353 146.285 57.3905C145.005 57.7002 145.547 59.6677 146.832 59.3671C148.371 58.9937 149.624 58.0282 150.772 56.9488C152.032 55.7254 152.962 54.2045 153.479 52.5265C154.608 49.0288 154.244 45.1713 153.602 41.619C153.041 38.4902 152.176 35.4069 151.324 32.3464C150.456 29.0048 149.242 25.7628 147.702 22.6731C146.139 19.6991 143.734 16.461 140.166 15.9464C139.904 15.8846 139.628 15.9245 139.394 16.058C139.16 16.1915 138.985 16.4087 138.904 16.6659C138.834 16.928 138.871 17.207 139.006 17.4424C139.14 17.6778 139.363 17.8505 139.624 17.9229C142.412 18.3237 144.235 20.6874 145.547 22.9919C147.096 25.7245 148.116 28.7257 149 31.7225C149.811 34.455 150.576 37.2514 151.201 40.0477C151.911 43.2358 152.458 46.6196 151.989 49.885C151.792 51.59 151.158 53.2151 150.148 54.6033Z" fill="#020300"/>
<path d="M146.814 41.2727C146.687 41.4412 146.705 41.3501 146.814 41.2727V41.2727Z" fill="#020300"/>
<path d="M148.55 47.9725L148.427 47.8996L148.286 47.8586H148.135L147.994 47.8996L147.871 47.9725L147.789 48.0545C147.762 48.0955 147.739 48.1365 147.716 48.1774C147.694 48.2184 147.689 48.2731 147.675 48.3186V48.4689C147.675 48.5145 147.675 48.5646 147.716 48.6101C147.757 48.6556 147.762 48.6921 147.789 48.7331L147.871 48.815L147.994 48.8879C148.04 48.9043 148.088 48.918 148.135 48.9289H148.286C148.331 48.9289 148.381 48.9289 148.427 48.8879L148.55 48.815L148.632 48.7331C148.659 48.6921 148.682 48.6511 148.705 48.6101C148.727 48.5492 148.746 48.4868 148.76 48.4234V48.3642C148.746 48.3008 148.727 48.2384 148.705 48.1774C148.682 48.1365 148.659 48.0955 148.632 48.0545L148.55 47.9725Z" fill="white"/>
<path d="M135.898 52.6406H129.065H128.996H128.905H128.855L128.809 52.6634C128.712 52.696 128.62 52.742 128.536 52.8L128.45 52.8729C128.338 52.9645 128.249 53.0802 128.189 53.2111C128.129 53.3421 128.1 53.4849 128.103 53.6289C128.108 53.7058 128.121 53.782 128.14 53.8566C128.137 53.8702 128.137 53.8841 128.14 53.8976C128.264 54.7901 128.635 55.6301 129.212 56.323C129.788 57.0158 130.547 57.5339 131.402 57.8189C132.169 58.0488 132.987 58.0571 133.759 57.8427C134.531 57.6284 135.227 57.2002 135.766 56.6074C136.47 55.7687 136.88 54.7225 136.933 53.6289C136.921 53.3627 136.807 53.1113 136.614 52.9272C136.421 52.743 136.165 52.6404 135.898 52.6406ZM132.873 55.9835C132.911 55.9801 132.949 55.9801 132.987 55.9835C132.987 55.9835 132.923 55.9835 132.873 55.9835ZM134.322 55.1819L134.29 55.2184L134.122 55.396L133.967 55.5372C133.855 55.613 133.739 55.6829 133.62 55.7467L133.548 55.7922H133.516L133.406 55.8332C133.271 55.8787 133.132 55.9152 132.992 55.9425H132.905H132.778C132.644 55.9493 132.51 55.9493 132.377 55.9425H132.331L132.131 55.9015C131.999 55.8696 131.876 55.8195 131.743 55.7785C131.671 55.7421 131.598 55.7102 131.529 55.6692L131.347 55.5599L131.283 55.5144L131.16 55.4188L130.955 55.2229C130.903 55.1574 130.846 55.0951 130.787 55.0362L130.741 54.9679C130.677 54.8722 130.623 54.7675 130.563 54.6673H134.641L134.586 54.7812C134.486 54.936 134.399 55.0544 134.322 55.1819Z" fill="#020300"/>
<path d="M96.5809 31.3674C97.4921 31.6999 99.032 31.9504 99.5286 32.9022C100.089 33.9816 100.039 35.3798 100.294 36.5457C100.504 37.5021 102.093 37.5431 102.271 36.5457C102.49 35.3251 102.576 33.977 103.1 32.8339C103.624 31.6908 104.891 31.627 105.989 31.4904C106.258 31.4835 106.515 31.3733 106.706 31.1826C106.897 30.9919 107.007 30.7353 107.014 30.4657C107.009 30.1954 106.9 29.9374 106.708 29.7463C106.517 29.5551 106.259 29.4456 105.989 29.4409C105.014 29.4 103.765 29.3635 103.046 28.5984C102.518 27.9302 102.25 27.0941 102.289 26.2438C102.289 26.1983 102.289 26.1482 102.289 26.0981C102.294 26.0034 102.286 25.9085 102.267 25.8157V25.1554C102.267 23.8346 100.216 23.8346 100.216 25.1554C100.216 25.4742 100.217 25.793 100.239 26.1163C100.185 26.9497 100.162 28.0382 99.4921 28.6485C98.8224 29.2588 97.6698 29.2451 96.8452 29.3453C96.5965 29.347 96.3567 29.4387 96.1704 29.6034C95.984 29.7681 95.8637 29.9947 95.8314 30.2412C95.7992 30.4878 95.8574 30.7377 95.9951 30.9447C96.1329 31.1517 96.341 31.3019 96.5809 31.3674ZM101.592 30.0558C101.8 30.2672 102.032 30.4523 102.285 30.6069C101.974 30.8511 101.708 31.1487 101.501 31.4858C101.424 31.6134 101.355 31.7454 101.292 31.8775C101.246 31.8001 101.21 31.7181 101.16 31.6452C100.894 31.2553 100.553 30.9223 100.157 30.6661C100.446 30.5183 100.711 30.3296 100.945 30.1059C101.075 29.9796 101.195 29.8441 101.305 29.7005C101.396 29.8243 101.493 29.9429 101.597 30.0558H101.592Z" fill="#020300"/>
<path d="M158.99 56.1564C159.901 56.4388 161.4 56.6392 161.983 57.3997C162.209 57.827 162.363 58.2886 162.439 58.766C162.562 59.3717 162.639 59.9866 162.79 60.5877C163.031 61.535 164.557 61.5897 164.767 60.5877C164.999 59.4947 165.104 58.3106 165.678 57.3178C166.175 56.4388 167.623 56.4069 168.58 56.2976C168.852 56.2976 169.113 56.1896 169.305 55.9975C169.497 55.8053 169.605 55.5446 169.605 55.2729C169.605 55.0011 169.497 54.7405 169.305 54.5483C169.113 54.3561 168.852 54.2481 168.58 54.2481C167.637 54.2163 166.444 54.2026 165.66 53.6197C165.008 53.1642 164.849 52.349 164.808 51.5657C164.81 51.5369 164.81 51.5079 164.808 51.4791C164.817 51.4035 164.817 51.327 164.808 51.2514C164.808 51.051 164.808 50.8506 164.808 50.6639C164.808 49.3432 162.758 49.3386 162.758 50.6639C162.758 50.9326 162.758 51.2059 162.781 51.4791C162.726 52.2215 162.667 53.1278 162.029 53.5832C161.305 54.107 160.17 54.0796 159.323 54.1662C158.147 54.2527 157.828 55.7966 158.99 56.1564ZM164.166 55.0451C164.308 55.1694 164.461 55.2821 164.621 55.3822C164.431 55.536 164.26 55.7118 164.111 55.9059C163.986 56.0714 163.875 56.2466 163.778 56.4297C163.678 56.2599 163.562 56.0998 163.432 55.9515C163.252 55.7531 163.049 55.5772 162.826 55.4277C162.986 55.3459 163.139 55.2498 163.282 55.1408C163.466 54.9941 163.634 54.8276 163.783 54.6444C163.898 54.7894 164.026 54.9235 164.166 55.0451Z" fill="#020300"/>
</svg>
