<svg width="1440" height="519" viewBox="0 0 1440 519" fill="none" xmlns="http://www.w3.org/2000/svg">
<g clip-path="url(#clip0_165_14382)">
<rect width="1440" height="519" fill="#EBFEE5"/>
<mask id="mask0_165_14382" style="mask-type:alpha" maskUnits="userSpaceOnUse" x="420" y="-287" width="1481" height="961">
<path d="M1523.1 58.9627C1516.74 58.115 1512.26 53.3772 1512.78 48.0643C1513.38 41.9566 1513.69 35.8112 1513.69 29.6203C1513.7 -145.246 1268.86 -287 966.851 -287C664.84 -287 420 -145.246 420 29.6127C420 188.638 557.406 281.024 863.847 333.972C915.994 342.986 958.962 364.707 966.888 428.228C989.319 607.938 1274.92 690.266 1543.57 670.043C1805.92 650.29 1901 521.069 1901 354.331C1901 209.103 1738.98 87.8282 1523.1 58.9551V58.9627Z" fill="#DFF9DB"/>
</mask>
<g mask="url(#mask0_165_14382)">
<rect x="364" y="-289.542" width="1604" height="1174" fill="#DFF9DB"/>
</g>
</g>
<defs>
<clipPath id="clip0_165_14382">
<rect width="1440" height="519" fill="white"/>
</clipPath>
</defs>
</svg>
