<svg width="111" height="110" viewBox="0 0 111 110" fill="none" xmlns="http://www.w3.org/2000/svg">
<mask id="mask0_87_2126" style="mask-type:alpha" maskUnits="userSpaceOnUse" x="0" y="0" width="111" height="110">
<circle cx="55.3271" cy="55" r="55" fill="#F8FAEB"/>
</mask>
<g mask="url(#mask0_87_2126)">
<path d="M48.9593 27.4116C49.0318 27.4116 49.0931 27.3687 49.1656 27.3472L48.3125 27.4224C48.5252 27.4751 48.7487 27.4714 48.9593 27.4116Z" fill="#020300"/>
<path d="M93.9148 96.4059C92.7451 95.0993 91.3812 93.9662 89.8672 93.0432C88.2259 92.0977 86.4282 91.3457 84.7087 90.5453C81.1524 88.8854 77.5682 87.2846 74.0398 85.5764C73.074 85.109 72.097 84.6685 71.1981 84.1475C71.0948 84.3552 70.9321 84.5303 70.7292 84.6524C65.4631 87.9444 59.2746 89.6037 52.998 89.4065C46.8066 89.1594 40.5092 87.6284 35.1664 84.5718C34.7867 84.8458 34.4015 85.109 34.0163 85.383C31.3533 87.2094 28.3218 87.9238 25.2456 88.8478C25.0442 88.9134 24.8279 88.9246 24.6203 88.88C24.7432 90.7279 23.688 92.5114 22.6998 94.0208C21.4214 95.9815 20.6342 98.1034 19.5567 100.155C18.6751 101.946 17.2295 103.423 15.4254 104.378C14.8671 104.678 14.56 104.754 14.3088 105.366C14.1301 105.85 13.9962 106.355 13.8398 106.849V116.913L100.285 106.913C100.244 106.832 100.21 116.748 100.184 116.661C99.0398 112.89 96.6281 99.296 93.9148 96.4059ZM72.203 89.53C60.6689 96.5778 44.8471 96.1534 33.3854 89.2346C32.0176 88.4127 33.2793 86.3231 34.6527 87.1503C45.4053 93.6287 60.1217 94.0477 70.9413 87.4404C72.3035 86.6024 73.5653 88.6974 72.203 89.53Z" fill="#FFC89F"/>
<path d="M39.9244 75.1768C39.4386 77.1428 39.2767 79.1895 38.4002 81.0481C38.0843 81.7046 37.6643 82.3099 37.1553 82.8423C42.0274 85.3966 47.4539 86.8169 52.9994 86.9894C58.7446 87.1787 64.4134 85.6797 69.2511 82.6919C68.6299 82.0812 68.1537 81.3481 67.8554 80.5432C67.3355 78.8558 67.0796 77.1032 67.0962 75.3433C67.0627 74.5107 67.0347 73.6834 67.0068 72.8561C64.886 75.5187 61.8779 77.3984 58.4874 78.1796C54.451 79.1197 50.6714 79.1143 46.7634 77.6048C43.5628 76.3224 40.7896 74.219 38.7464 71.5239L38.4728 73.6726C38.6808 73.6421 38.8933 73.661 39.092 73.7276C39.2906 73.7943 39.4693 73.9067 39.6124 74.055C39.7555 74.2033 39.8588 74.3831 39.9132 74.5786C39.9675 74.7741 39.9714 74.9795 39.9244 75.1768Z" fill="white"/>
<path d="M48.2931 25.0801C50.2973 24.543 52.1453 23.1624 53.675 21.6583C55.0052 20.3541 56.1334 18.8724 57.0247 17.2588C56.2334 17.7988 55.3836 18.2545 54.4901 18.6179C52.8498 19.3035 51.1725 19.9042 49.4655 20.4174C46.3447 21.3521 43.0341 21.8893 40.0472 23.2054C36.9153 24.5806 35.0227 26.9656 34.2131 30.1887C33.465 33.068 33.867 36.1246 33.9675 39.0576C34.0271 40.8804 34.0829 42.6997 34.135 44.5153L34.3471 44.5744C34.7545 43.2099 35.2966 41.8859 35.9662 40.6208C36.4434 39.7426 36.7356 38.7824 36.8259 37.7952C36.8259 36.5543 36.8259 35.3134 36.8929 34.0779C37.0437 31.9292 37.7192 29.6193 39.8239 28.4322C41.281 27.6103 43.4081 27.3148 45.0718 27.1966C45.2856 27.1677 45.5034 27.204 45.6947 27.3003C45.886 27.3967 46.041 27.5483 46.1381 27.7338C46.8527 27.5995 47.5674 27.4975 48.2875 27.4223C47.2491 27.1483 46.9755 25.44 48.2931 25.0801Z" fill="white"/>
<path d="M53.3916 27.2886C53.3074 26.9795 53.3527 26.651 53.5177 26.3738C53.6826 26.0965 53.9541 25.8926 54.2737 25.8059C54.6127 25.7226 54.9463 25.6203 55.273 25.4997L55.5242 25.3869C55.6638 25.3225 55.7978 25.2526 55.9373 25.1774C56.0769 25.1022 56.2221 25.0109 56.3616 24.9196L56.5794 24.7692C56.8247 24.5789 57.056 24.3725 57.2717 24.1514C57.3889 24.0332 57.495 23.9151 57.6011 23.7915L57.7295 23.6196C57.9199 23.3497 58.0915 23.068 58.2431 22.7762L58.3436 22.5667V22.5345C58.405 22.3787 58.4664 22.2229 58.5222 22.0618C58.6275 21.7301 58.7132 21.3929 58.779 21.0519C58.8671 20.7427 59.0792 20.4799 59.3687 20.3212C59.6582 20.1626 60.0014 20.1211 60.3227 20.2058C60.644 20.2906 60.9171 20.4947 61.082 20.7733C61.2469 21.0518 61.2901 21.382 61.202 21.6911C60.9091 23.2514 60.1574 24.6981 59.0359 25.8596C58.3349 26.5621 57.5037 27.1324 56.585 27.541C58.0812 27.6807 59.6053 27.858 61.1797 28.046C61.1575 27.8871 61.1726 27.7254 61.2238 27.5728C61.2749 27.4203 61.361 27.2807 61.4755 27.1643C61.5901 27.0478 61.7303 26.9576 61.8858 26.9001C62.0414 26.8426 62.2083 26.8193 62.3744 26.8319C65.3946 27.1355 68.1745 28.5548 70.129 30.791C71.1129 31.8076 71.7126 33.1131 71.8318 34.4975C71.8764 35.8673 71.2735 37.1834 71.2344 38.5264C71.2823 39.506 71.4452 40.4773 71.7201 41.4218C71.9323 42.4263 72.1612 43.4523 72.2784 44.4783C72.6055 44.4328 72.9363 44.4166 73.2666 44.43C73.6109 41.3965 73.6446 38.3377 73.3671 35.2979C73.1493 32.424 72.9707 29.2869 71.7927 26.601C70.7766 24.2911 68.3648 22.932 66.0535 21.9919C63.9822 21.1486 62.1064 20.5577 60.6605 18.7689C60.4702 18.5402 60.3665 18.256 60.3665 17.9631C60.3665 17.6702 60.4702 17.386 60.6605 17.1573C60.3702 16.8947 60.0564 16.6574 59.7225 16.4482C59.7884 16.6216 59.8178 16.8059 59.8092 16.9903C59.8006 17.1747 59.754 17.3556 59.6723 17.5226C58.5932 19.7261 57.1149 21.727 55.3065 23.4316C53.6098 25.1906 51.4892 26.5208 49.1318 27.3047C50.5502 27.2199 51.9725 27.2145 53.3916 27.2886Z" fill="white"/>
<path d="M74.8397 47.8602C74.6873 47.6029 74.4822 47.3782 74.2367 47.1995C73.9714 47.1501 73.7246 47.0333 73.5221 46.8611C73.2847 46.8063 73.0394 46.7899 72.7964 46.8127C72.6071 46.8393 72.4204 46.8807 72.2381 46.9363C72.1097 47.8065 71.9143 48.6767 71.7859 49.5094C71.5458 51.0457 69.1284 50.3903 69.3629 48.8701C69.4634 48.2255 69.5583 47.5863 69.6588 46.9416L69.843 45.7491C69.843 45.6578 69.8765 45.5664 69.8877 45.4751C69.8989 45.3838 69.8877 45.416 69.8877 45.6094C69.896 45.5093 69.896 45.4087 69.8877 45.3086C69.6923 43.3533 69.1619 41.4624 68.866 39.5232C68.5366 37.3745 70.1054 35.0538 68.866 33.077C68.1498 32.0253 67.2048 31.1358 66.0963 30.4699C64.9878 29.8039 63.7423 29.3775 62.4457 29.2201C62.1262 29.1999 61.826 29.0651 61.6048 28.8423C61.3836 28.6195 61.2573 28.3249 61.251 28.0168C59.6766 27.8288 58.1525 27.6515 56.6563 27.5118C56.1213 27.7691 55.56 27.9726 54.9815 28.1188C54.6642 28.195 54.3287 28.1517 54.0434 27.998C53.7581 27.8443 53.5445 27.5916 53.4462 27.2916C52.0374 27.2331 50.6263 27.2528 49.2199 27.3507C49.1474 27.3507 49.086 27.399 49.0134 27.4151C48.8015 27.4714 48.5777 27.4714 48.3658 27.4151C47.6456 27.4903 46.931 27.5924 46.2164 27.7267C46.3157 27.914 46.3659 28.1218 46.3626 28.3321C46.3593 28.5424 46.3026 28.7487 46.1975 28.933C46.0923 29.1173 45.9419 29.2741 45.7594 29.3897C45.5768 29.5053 45.3676 29.5761 45.15 29.5961C43.1625 29.7358 40.7396 30.1333 39.8352 32.0456C39.316 33.1576 39.4332 34.6778 39.4164 35.8703C39.3997 37.0629 39.5002 38.3736 39.1205 39.5984C38.6744 40.8308 38.1601 42.0394 37.5797 43.219C37.1889 44.1053 36.7255 45.1045 36.7925 46.0875C36.893 47.4412 37.1442 48.7734 37.3508 50.1378C37.5518 51.6796 35.0339 51.6634 34.8385 50.1378C34.7101 49.1548 34.5426 48.161 34.4198 47.1726C34.3465 47.146 34.2755 47.1137 34.2076 47.0759C33.7091 46.7737 33.118 46.6448 32.5328 46.7106C31.0422 46.9416 30.4671 49.2569 30.4057 50.444C30.332 52.1114 30.9074 53.7453 32.0192 55.0262C33.0129 56.1005 34.431 56.6753 35.7541 57.2394C35.9431 57.3462 36.1001 57.4984 36.2096 57.6811C36.3192 57.8637 36.3777 58.0706 36.3794 58.2815C36.5012 60.5027 36.9757 62.6929 37.7863 64.776C38.9279 67.7377 40.7682 70.404 43.1625 72.5651C44.7801 73.9798 46.693 75.0457 48.7733 75.6915V73.3978C48.7733 73.0772 48.9057 72.7698 49.1412 72.5431C49.3768 72.3164 49.6963 72.1891 50.0295 72.1891C50.3626 72.1891 50.6821 72.3164 50.9177 72.5431C51.1532 72.7698 51.2856 73.0772 51.2856 73.3978V76.3039C51.7863 76.3806 52.2917 76.4254 52.7985 76.4382V73.3978C52.8043 73.0789 52.9385 72.7747 53.1728 72.5492C53.4072 72.3237 53.7233 72.1946 54.0547 72.1891C54.3869 72.1919 54.7048 72.3201 54.9397 72.5462C55.1747 72.7723 55.3079 73.0781 55.3108 73.3978V76.2985C55.8133 76.2341 56.3157 76.1535 56.8126 76.0568V73.4031C56.8126 73.0826 56.945 72.7751 57.1805 72.5485C57.4161 72.3218 57.7356 72.1945 58.0688 72.1945C58.4019 72.1945 58.7214 72.3218 58.957 72.5485C59.1926 72.7751 59.3249 73.0826 59.3249 73.4031V75.3961C61.2633 74.7732 63.003 73.6819 64.3774 72.2267C65.3506 71.1653 66.1695 69.9817 66.8115 68.7082C66.8081 68.5605 66.8406 68.4141 66.9065 68.2807C66.9724 68.1473 67.0699 68.0306 67.1912 67.94C67.6104 67.0253 67.9721 66.0871 68.2743 65.1305C68.8602 63.1987 69.2711 61.2216 69.5025 59.2216C69.5082 58.8846 69.5841 58.5521 69.7258 58.2439C70.0496 57.7067 70.7865 57.5563 71.3225 57.2823C72.334 56.7995 73.2311 56.1211 73.9576 55.2894C75.5934 53.2481 76.2019 50.1593 74.8397 47.8602ZM53.9598 55.7299C55.5788 55.7299 55.5788 58.1472 53.9598 58.1472C52.3408 58.1472 52.3463 55.7299 53.9598 55.7299ZM46.4564 47.9086C44.8374 47.9086 44.8374 45.4912 46.4564 45.4912C48.0755 45.4912 48.0699 47.9086 46.4564 47.9086ZM48.3211 42.9396C48.0861 43.0689 47.8133 43.1199 47.5451 43.0847C46.8994 43.0257 46.2503 43.0095 45.6023 43.0363C44.9682 43.0363 44.3346 43.0685 43.7041 43.133L43.9888 43.0954C43.6641 43.1625 43.3253 43.1208 43.0285 42.9772C42.8853 42.8978 42.7598 42.7918 42.6594 42.6654C42.559 42.539 42.4857 42.3947 42.4436 42.2408C42.4016 42.0869 42.3917 41.9265 42.4144 41.769C42.4372 41.6114 42.4922 41.4597 42.5763 41.3227C42.746 41.059 43.0134 40.867 43.3245 40.7856C44.1039 40.6891 44.8889 40.6407 45.6748 40.6405C46.4584 40.6025 47.2439 40.6403 48.0196 40.7533C48.3394 40.8411 48.6105 41.0463 48.7745 41.3247C48.9385 41.603 48.9821 41.9322 48.8961 42.2413C48.8044 42.5363 48.5986 42.7862 48.3211 42.9396ZM58.5712 64.8351C57.2776 66.0019 55.5868 66.6759 53.8146 66.7313C51.9835 66.7313 50.3812 65.888 48.9687 64.8351C48.7348 64.6078 48.6036 64.3008 48.6036 63.981C48.6036 63.6611 48.7348 63.3542 48.9687 63.1269C49.2077 62.9069 49.5257 62.7841 49.8564 62.7841C50.1871 62.7841 50.5051 62.9069 50.7441 63.1269C51.0058 63.3195 51.2779 63.4988 51.5592 63.6641L52.0337 63.9111L52.2514 64.0078C52.5381 64.1156 52.833 64.2018 53.1335 64.2657L53.3624 64.3087C53.4964 64.3087 53.636 64.3087 53.77 64.3087H54.1831H54.278H54.4288C54.7288 64.2523 55.0224 64.1677 55.3052 64.0562L55.5174 63.9595C55.6737 63.8789 55.83 63.7983 55.9752 63.707C56.1333 63.6167 56.2861 63.518 56.433 63.4116C56.5435 63.3365 56.6497 63.2558 56.7512 63.1698C56.9902 62.9498 57.3082 62.8271 57.6389 62.8271C57.9696 62.8271 58.2876 62.9498 58.5266 63.1698C58.7533 63.3896 58.8843 63.6844 58.8926 63.9939C58.9009 64.3035 58.7859 64.6044 58.5712 64.8351ZM61.5134 47.9086C59.8944 47.9086 59.8944 45.4912 61.5134 45.4912C63.1324 45.4912 63.1269 47.9086 61.5134 47.9086ZM65.7229 42.252C65.639 42.5531 65.4394 42.8123 65.1646 42.9772C64.8703 43.1284 64.5286 43.1705 64.2043 43.0954L64.4835 43.133C63.8548 43.0685 63.2231 43.0363 62.5909 43.0363C61.9335 43.0085 61.2748 43.0265 60.6201 43.09L60.81 43.0632C60.571 43.1221 60.3192 43.1117 60.0863 43.0332C59.8535 42.9548 59.6499 42.8118 59.5013 42.6223C59.3527 42.4328 59.2657 42.2053 59.2512 41.9683C59.2367 41.7313 59.2954 41.4955 59.4198 41.2905C59.5882 41.0256 59.8561 40.8333 60.1679 40.7533C60.9437 40.6406 61.7292 40.6029 62.5127 40.6405C63.2986 40.6403 64.0837 40.6888 64.8631 40.7856C65.0193 40.823 65.1663 40.8897 65.2956 40.9818C65.4249 41.074 65.5341 41.1899 65.6168 41.3227C65.6971 41.4633 65.7479 41.6177 65.7661 41.7772C65.7843 41.9367 65.7696 42.098 65.7229 42.252Z" fill="white"/>
<path d="M13.3723 102.674C14.327 102.088 15.304 101.696 16.0912 100.88C16.9117 99.9 17.5622 98.7989 18.0173 97.6191C18.542 96.4642 19.0166 95.2878 19.6419 94.1812C20.0997 93.3808 20.6579 92.6341 21.1213 91.8391C21.5847 91.0441 22.143 90.0664 22.1151 89.1156C22.1151 88.5784 21.8973 87.8747 21.2888 87.7726C19.9936 87.5578 18.9496 89.685 18.3634 90.5499C17.5874 91.6887 16.8002 93.0907 15.7674 94.02C12.5293 96.9369 8.57662 90.4746 8.37564 87.8962C8.12441 84.6731 11.4909 82.664 13.7799 80.8645C14.0204 80.6454 14.3391 80.5232 14.6703 80.5232C15.0016 80.5232 15.3202 80.6454 15.5608 80.8645C16.2429 81.5468 16.8682 82.2796 17.4311 83.0562C17.9893 83.7975 18.4751 85.1404 19.6363 85.0545C20.0327 85.0276 20.6524 84.7537 20.6747 84.3132C20.6747 83.776 19.9936 82.8735 19.7368 82.4062C19.48 81.9389 19.1785 81.45 18.8994 80.9934C18.4751 80.3327 17.9893 79.7203 17.5036 79.1025C17.0179 78.4848 16.6383 77.6199 16.0298 77.2278C15.1812 76.6906 13.9194 77.2278 13.1322 77.6307C11.8811 78.2682 10.6861 79.003 9.5592 79.8277C9.40275 79.9629 9.21355 80.0581 9.00892 80.1047C8.80429 80.1512 8.5908 80.1476 8.388 80.0942C8.18521 80.0407 7.99962 79.9391 7.84822 79.7987C7.69682 79.6583 7.58447 79.4836 7.52147 79.2906C6.9148 77.1669 6.30813 75.0432 5.70146 72.9196C4.89752 70.0887 4.088 67.2631 3.31756 64.4268C3.0775 63.5565 2.9491 62.3855 2.13959 61.9343C2.05996 61.8786 1.96946 61.8389 1.87353 61.8177C1.7776 61.7965 1.67821 61.7941 1.5813 61.8107C1.47236 61.8261 1.36893 61.8666 1.27984 61.9289C1.04754 62.1282 0.875808 62.3844 0.782956 62.6702C0.71605 62.8596 0.663784 63.0535 0.626619 63.2504C0.626619 63.2504 0.626619 63.3202 0.626619 63.3363C0.631301 63.4784 0.644352 63.62 0.665704 63.7607V63.8305L0.715964 64.1313C0.816456 64.69 0.9281 65.2487 1.05092 65.8073C1.35798 67.2577 1.69855 68.6974 2.04469 70.1424C2.4969 72.0118 2.96028 73.9026 3.4404 75.7505C3.4693 75.8593 3.48246 75.9714 3.47949 76.0836C3.88704 77.5501 4.30018 79.0166 4.70772 80.4831C5.11527 81.9496 2.70346 82.6318 2.28475 81.1277C1.83067 79.4875 1.37287 77.8527 0.911351 76.2233C0.24699 73.8704 -0.417368 71.5122 -1.10964 69.1647C-1.35244 68.1248 -1.67336 67.1033 -2.06988 66.1082C-2.34344 65.5226 -3.18646 65.1627 -3.64425 65.7214C-3.83965 65.9685 -3.77823 66.2586 -3.84522 66.5379C-3.7894 66.828 -3.74475 67.1234 -3.68892 67.4135C-3.51027 68.4019 -3.31487 69.3903 -3.13064 70.3734C-2.83661 71.8918 -2.537 73.4084 -2.2318 74.9233C-2.20972 75.0531 -2.20972 75.1856 -2.2318 75.3154C-2.12015 75.7828 -2.00289 76.2501 -1.89681 76.7175C-1.38319 78.893 -0.908635 81.074 -0.456423 83.2603C-0.143783 84.7859 -2.56676 85.409 -2.8794 83.9049C-3.3372 81.681 -3.82663 79.4607 -4.3477 77.2439C-4.65475 75.9332 -4.9674 74.6278 -5.33587 73.3332C-5.48661 72.7961 -5.74901 71.2328 -6.49153 71.3725C-7.97657 71.6626 -7.21172 74.1014 -7.04982 74.8964C-6.49153 77.1687 -6.15656 79.4732 -5.82717 81.7777C-5.15722 86.4189 -4.54309 91.1354 -3.53817 95.7444C-3.03013 98.0758 -2.14804 100.321 -1.65116 102.663C-1.39656 104.085 -1.49217 105.544 -1.93031 106.923H11.1782C11.3346 106.44 11.4853 105.956 11.6416 105.473C12.0213 104.361 12.3227 103.313 13.3723 102.674Z" fill="white"/>
<path d="M65.1461 42.9793C65.432 42.8158 65.6397 42.5507 65.7243 42.2411C65.8089 41.9316 65.7636 41.6025 65.5983 41.3248C65.5156 41.1919 65.4064 41.076 65.2771 40.9839C65.1478 40.8917 65.0008 40.825 64.8446 40.7876C64.0652 40.6908 63.2801 40.6423 62.4942 40.6425C61.7106 40.6049 60.9252 40.6427 60.1494 40.7553C59.8376 40.8353 59.5697 41.0276 59.4013 41.2925C59.2768 41.4975 59.2181 41.7333 59.2326 41.9703C59.2471 42.2073 59.3342 42.4348 59.4828 42.6243C59.6314 42.8139 59.8349 42.9568 60.0678 43.0353C60.3006 43.1137 60.5524 43.1241 60.7914 43.0652L60.6016 43.0921C61.2563 43.0285 61.915 43.0105 62.5724 43.0383C63.2046 43.0383 63.8363 43.0706 64.465 43.1351L64.1858 43.0974C64.5101 43.1725 64.8518 43.1305 65.1461 42.9793Z" fill="#020300"/>
<path d="M48.8979 42.221C48.9839 41.912 48.9403 41.5827 48.7763 41.3044C48.6123 41.026 48.3412 40.8208 48.0214 40.7331C47.2457 40.6201 46.4602 40.5823 45.6766 40.6202C44.8907 40.6204 44.1057 40.6688 43.3262 40.7653C43.0152 40.8467 42.7478 41.0387 42.5781 41.3025C42.494 41.4395 42.439 41.5911 42.4162 41.7487C42.3935 41.9063 42.4033 42.0667 42.4454 42.2205C42.4875 42.3744 42.5608 42.5187 42.6612 42.6451C42.7616 42.7715 42.8871 42.8775 43.0303 42.957C43.3271 43.1005 43.6659 43.1422 43.9906 43.0752L43.7059 43.1128C44.3364 43.0483 44.97 43.016 45.6041 43.0161C46.2521 42.9892 46.9012 43.0054 47.5469 43.0644C47.8151 43.0997 48.0879 43.0487 48.3229 42.9194C48.6004 42.766 48.8062 42.516 48.8979 42.221Z" fill="#020300"/>
<path d="M46.4552 45.4937C44.8366 45.4937 44.8366 47.911 46.4552 47.911C48.0738 47.911 48.0738 45.4937 46.4552 45.4937Z" fill="#020300"/>
<path d="M53.958 55.7305C52.3449 55.7305 52.3393 58.1478 53.958 58.1478C55.5766 58.1478 55.5766 55.7305 53.958 55.7305Z" fill="#020300"/>
<path d="M61.5128 45.4937C59.8942 45.4937 59.8942 47.911 61.5128 47.911C63.1314 47.911 63.1314 45.4937 61.5128 45.4937Z" fill="#020300"/>
<path d="M59.0684 25.8262C60.19 24.6647 60.9418 23.218 61.2346 21.6577C61.3227 21.3486 61.2795 21.0184 61.1146 20.7398C60.9497 20.4613 60.6766 20.2572 60.3553 20.1724C60.034 20.0877 59.6908 20.1292 59.4013 20.2878C59.1118 20.4465 58.8997 20.7093 58.8116 21.0185C58.7458 21.3595 58.6601 21.6967 58.5548 22.0284C58.499 22.1895 58.4376 22.3453 58.3761 22.5011V22.5333L58.2757 22.7428C58.1241 23.0346 57.9525 23.3163 57.762 23.5862L57.6337 23.7581C57.5276 23.8816 57.4215 23.9998 57.3043 24.118C57.0886 24.339 56.8573 24.5455 56.612 24.7358L56.3942 24.8862C56.2547 24.9775 56.1151 25.0634 55.9699 25.144C55.8248 25.2246 55.6964 25.2891 55.5568 25.3535L55.3056 25.4663C54.9789 25.5869 54.6453 25.6892 54.3063 25.7725C53.9867 25.8592 53.7152 26.0631 53.5503 26.3404C53.3853 26.6176 53.34 26.9461 53.4242 27.2551C54.4849 27.2981 55.5606 27.3715 56.6511 27.4754C57.5551 27.0729 58.3746 26.5139 59.0684 25.8262Z" fill="#020300"/>
<path d="M53.3887 27.2881C53.487 27.5905 53.7023 27.8449 53.99 27.9989C54.2778 28.1529 54.616 28.1945 54.9347 28.1153C55.5131 27.9691 56.0743 27.7657 56.6092 27.5083C55.5227 27.4081 54.4491 27.3346 53.3887 27.2881Z" fill="#020300"/>
<path d="M53.8177 66.7329C55.5899 66.6774 57.2806 66.0034 58.5743 64.8367C58.8082 64.6093 58.9393 64.3024 58.9393 63.9825C58.9393 63.6627 58.8082 63.3557 58.5743 63.1284C58.3353 62.9084 58.0173 62.7856 57.6866 62.7856C57.3559 62.7856 57.0379 62.9084 56.799 63.1284C56.6974 63.2144 56.5912 63.2951 56.4807 63.3701C56.3339 63.4766 56.181 63.5753 56.0229 63.6656C55.8778 63.7569 55.7214 63.8375 55.5651 63.9181L55.353 64.0148C55.0701 64.1263 54.7765 64.2109 54.4765 64.2672H54.3257H54.2308H53.8177C53.6837 64.2672 53.5441 64.2672 53.4102 64.2672L53.1812 64.2243C52.8807 64.1603 52.5858 64.0742 52.2992 63.9664L52.0814 63.8697L51.6069 63.6226C51.3256 63.4574 51.0535 63.2781 50.7918 63.0854C50.5528 62.8655 50.2348 62.7427 49.9041 62.7427C49.5734 62.7427 49.2554 62.8655 49.0164 63.0854C48.7826 63.3128 48.6514 63.6197 48.6514 63.9396C48.6514 64.2594 48.7826 64.5664 49.0164 64.7937C50.3787 65.8895 51.9809 66.7168 53.8177 66.7329Z" fill="#020300"/>
<path d="M102.606 105.995C101.52 102.695 99.8173 99.6129 97.5818 96.9005C95.4351 94.0368 92.6229 91.6952 89.3694 90.0622C85.7405 88.311 82.067 86.6565 78.4102 84.9536C76.8582 84.2285 75.3005 83.5033 73.7708 82.7297C72.805 82.2409 71.5377 81.7521 70.8231 80.9033C69.7959 79.6356 69.74 77.6802 69.6507 76.1278C69.5167 73.8125 69.5167 71.4865 69.3101 69.1713C70.6649 66.1407 71.5418 62.9323 71.9117 59.6525C73.6894 58.8917 75.2208 57.6836 76.3445 56.1554C77.7467 54.147 78.3419 51.7166 78.0194 49.3171C77.7954 47.7195 76.9689 46.2569 75.6969 45.2077C76.1248 41.9147 76.1959 38.5878 75.9091 35.2806C75.6746 32.1757 75.4457 28.8613 74.2342 25.939C73.1177 23.2155 70.8566 21.5288 68.1712 20.2557C66.0888 19.2673 63.9562 18.8912 62.4544 17.0648C62.3505 16.9278 62.2126 16.818 62.0532 16.7454C61.8938 16.6729 61.7181 16.6399 61.5421 16.6495C61.3661 16.6592 61.1954 16.7111 61.0456 16.8005C60.8958 16.8899 60.7717 17.014 60.6846 17.1615C60.4943 17.3902 60.3907 17.6744 60.3907 17.9673C60.3907 18.2602 60.4943 18.5444 60.6846 18.7731C62.1306 20.5404 64.0343 21.1313 66.0777 21.9961C68.389 22.9362 70.8008 24.2953 71.8168 26.6051C72.9948 29.291 73.1735 32.4282 73.3912 35.3021C73.6687 38.3419 73.6351 41.4006 73.2907 44.4341C72.9605 44.4208 72.6297 44.4369 72.3025 44.4825C72.1909 43.4565 71.962 42.4305 71.7443 41.4259C71.4694 40.4815 71.3064 39.5102 71.2586 38.5305C71.3144 37.1768 71.9006 35.8715 71.8559 34.5017C71.7368 33.1173 71.137 31.8118 70.1532 30.7951C68.1987 28.559 65.4187 27.1397 62.3986 26.8361C62.2325 26.8235 62.0655 26.8468 61.91 26.9043C61.7544 26.9618 61.6142 27.052 61.4997 27.1684C61.3851 27.2849 61.2991 27.4245 61.2479 27.577C61.1967 27.7296 61.1816 27.8913 61.2038 28.0501C61.2101 28.3583 61.3364 28.6529 61.5576 28.8757C61.7789 29.0985 62.079 29.2333 62.3986 29.2534C63.6951 29.4109 64.9406 29.8373 66.0491 30.5032C67.1576 31.1691 68.1026 32.0587 68.8188 33.1104C70.0694 35.0926 68.5006 37.4078 68.8188 39.5566C69.1147 41.4958 69.6451 43.3866 69.8405 45.342C69.8488 45.4421 69.8488 45.5427 69.8405 45.6428C69.874 45.4494 69.8852 45.4011 69.8405 45.5085C69.7959 45.6159 69.8405 45.6912 69.7958 45.7825L69.6116 46.975C69.5111 47.6196 69.4162 48.2589 69.3157 48.9035C69.0812 50.4237 71.4986 51.0791 71.7387 49.5427C71.8671 48.7101 72.0625 47.8399 72.1909 46.9696C72.3732 46.9141 72.5599 46.8727 72.7492 46.8461C72.9922 46.8233 73.2375 46.8397 73.475 46.8944C73.6775 47.0666 73.9242 47.1835 74.1896 47.2329C74.435 47.4115 74.6401 47.6363 74.7925 47.8936C76.1547 50.1927 75.535 53.2654 73.8713 55.3067C73.1448 56.1383 72.2477 56.8168 71.2362 57.2996C70.6779 57.5736 69.9633 57.7401 69.6395 58.2612C69.4979 58.5694 69.4219 58.9018 69.4162 59.2388C69.1849 61.2389 68.7739 63.216 68.188 65.1478C67.8858 66.1043 67.5241 67.0425 67.1049 67.9573C66.9837 68.0479 66.8862 68.1646 66.8202 68.298C66.7543 68.4314 66.7218 68.5778 66.7253 68.7254C66.0832 69.9989 65.2644 71.1826 64.2911 72.244C62.9167 73.6992 61.177 74.7905 59.2387 75.4133V73.4204C59.2387 73.0998 59.1063 72.7924 58.8707 72.5657C58.6351 72.3391 58.3157 72.2117 57.9825 72.2117C57.6494 72.2117 57.3299 72.3391 57.0943 72.5657C56.8587 72.7924 56.7264 73.0998 56.7264 73.4204V76.0741C56.2295 76.1707 55.727 76.2513 55.2246 76.3158V73.415C55.2217 73.0953 55.0884 72.7895 54.8534 72.5635C54.6185 72.3374 54.3007 72.2092 53.9684 72.2064C53.6371 72.2119 53.3209 72.341 53.0865 72.5665C52.8522 72.792 52.718 73.0962 52.7123 73.415V76.4555C52.2055 76.4427 51.7 76.3978 51.1993 76.3212V73.415C51.1993 73.0945 51.067 72.787 50.8314 72.5604C50.5958 72.3337 50.2763 72.2064 49.9432 72.2064C49.61 72.2064 49.2905 72.3337 49.0549 72.5604C48.8194 72.787 48.687 73.0945 48.687 73.415V75.7088C46.6067 75.063 44.6938 73.9971 43.0763 72.5824C40.682 70.4212 38.8416 67.7549 37.7 64.7933C36.8995 62.7104 36.4344 60.5221 36.321 58.3041C36.3193 58.0932 36.2608 57.8864 36.1512 57.7037C36.0417 57.521 35.8847 57.3689 35.6957 57.262C34.3726 56.7248 32.9545 56.1017 31.9608 55.0488C30.849 53.7679 30.2737 52.1341 30.3473 50.4667C30.4088 49.2795 30.9838 46.9643 32.4744 46.7333C33.0597 46.6674 33.6507 46.7963 34.1493 47.0986C34.2171 47.1363 34.2881 47.1686 34.3614 47.1953C34.4842 48.1837 34.6517 49.1774 34.7801 50.1605C34.9755 51.6861 37.4934 51.7022 37.2924 50.1605C37.1138 48.8175 36.8625 47.4746 36.7341 46.1101C36.6671 45.1271 37.1305 44.128 37.5213 43.2416C38.1017 42.0621 38.6161 40.8535 39.0622 39.621C39.4418 38.3962 39.3469 37.1554 39.3581 35.893C39.3692 34.6306 39.2576 33.1802 39.7768 32.0683C40.6812 30.1559 43.1265 29.7584 45.0917 29.6187C45.3092 29.5988 45.5184 29.5279 45.701 29.4123C45.8835 29.2968 46.034 29.1399 46.1391 28.9556C46.2443 28.7713 46.3009 28.565 46.3042 28.3547C46.3075 28.1445 46.2573 27.9366 46.158 27.7493C46.0609 27.5638 45.9058 27.4122 45.7146 27.3158C45.5233 27.2195 45.3055 27.1832 45.0917 27.2121C43.4168 27.3303 41.3009 27.6258 39.8438 28.4477C37.739 29.6348 37.0523 31.9232 36.9128 34.0934C36.8234 35.3289 36.8681 36.5698 36.8458 37.8107C36.7555 38.7979 36.4633 39.7581 35.986 40.6363C35.3165 41.9014 34.7743 43.2254 34.367 44.5899L34.1549 44.5308C34.1065 42.7152 34.0506 40.8959 33.9873 39.0731C33.8869 36.1401 33.4849 33.0835 34.233 30.2042C35.0648 26.9812 36.9351 24.6068 40.0671 23.2209C43.0539 21.9048 46.3646 21.3676 49.4854 20.4329C51.1924 19.9197 52.8696 19.319 54.51 18.6334C55.4035 18.27 56.2533 17.8143 57.0446 17.2743C56.1533 18.8879 55.0251 20.3696 53.6949 21.6738C52.1652 23.1779 50.3452 24.5531 48.313 25.0957C46.9954 25.4556 47.269 27.1692 48.313 27.4378L49.1672 27.3626C51.5245 26.5787 53.6451 25.2485 55.3418 23.4895C57.1502 21.7849 58.6286 19.784 59.7076 17.5805C59.7894 17.4135 59.8359 17.2326 59.8445 17.0482C59.8531 16.8638 59.8237 16.6795 59.7579 16.5062C59.6599 16.2766 59.4823 16.0868 59.2554 15.969C59.0567 15.8658 58.8335 15.814 58.6078 15.8186L58.6524 15.7648C59.568 14.4756 57.3963 13.267 56.4863 14.5401C55.5763 15.8132 53.8847 16.3665 52.5392 16.8768C51.0821 17.414 49.6026 17.9512 48.0729 18.3702C44.8684 19.278 41.5466 19.9065 38.5151 21.3085C36.9914 22.0195 35.637 23.026 34.5369 24.2648C33.4369 25.5035 32.6149 26.9477 32.1227 28.5068C31.0619 31.5579 31.2964 34.6682 31.4081 37.8215C31.4862 40.049 31.5569 42.2783 31.6202 44.5094C29.482 45.0734 28.3766 47.3188 27.9746 49.2795C27.5447 51.6098 28.0775 54.0096 29.4597 55.9674C30.5762 57.4823 32.1506 58.4062 33.8478 59.1636C33.9159 60.3062 34.0802 61.4416 34.3391 62.5586C34.8944 64.7631 35.7544 66.8859 36.896 68.8705C37.4405 69.8219 38.0563 70.7339 38.7384 71.5993C40.7861 74.292 43.5632 76.3917 46.7665 77.6695C50.6745 79.179 54.4262 79.1843 58.4905 78.2443C61.8772 77.4701 64.8847 75.6002 67.01 72.9477C67.01 73.7749 67.0658 74.6022 67.0993 75.4348C67.0827 77.1948 67.3386 78.9473 67.8586 80.6347C68.1569 81.4397 68.6331 82.1727 69.2543 82.7834C64.4166 85.7712 58.7477 87.2702 53.0026 87.0809C47.457 86.9085 42.0306 85.4882 37.1584 82.9339C37.6675 82.4015 38.0875 81.7962 38.4034 81.1397C39.2799 79.281 39.4418 77.2344 39.9275 75.2683C39.9727 75.0729 39.9681 74.8699 39.914 74.6765C39.86 74.4832 39.7582 74.3054 39.6172 74.1581C39.4762 74.0109 39.3003 73.8987 39.1045 73.831C38.9087 73.7633 38.6988 73.7423 38.4927 73.7696C38.2539 73.7917 38.0288 73.8872 37.8508 74.042C37.6729 74.1968 37.5515 74.4027 37.5046 74.6291C37.0747 76.3695 36.9463 78.255 36.2317 79.9203C35.5171 81.5855 33.9371 82.5793 32.4688 83.557C30.0403 85.1685 27.4442 85.7057 24.5802 86.5867C24.337 86.6564 24.1224 86.7972 23.9661 86.9896C23.665 86.5144 23.247 86.1178 22.749 85.8346C22.9286 85.5513 23.057 85.2407 23.1287 84.9161C23.3744 83.659 22.5704 82.4719 22.0121 81.4083C21.5208 80.4965 20.961 79.6203 20.3373 78.7868C19.2709 77.3848 18.2325 75.3328 16.3846 74.8439C13.984 74.2047 11.494 75.6658 9.46742 77.0356C8.17778 72.5609 6.88815 68.0862 5.67108 63.6061C5.30261 62.2256 4.9118 60.8933 3.59983 60.05C3.23329 59.8156 2.82238 59.6531 2.39054 59.5716C1.95869 59.4902 1.5144 59.4914 1.08304 59.5752C0.65168 59.659 0.241699 59.8238 -0.123456 60.0601C-0.48861 60.2964 -0.801805 60.5996 -1.04512 60.9524C-1.54755 61.6578 -1.81615 62.4931 -1.81556 63.3483C-2.6801 63.0429 -3.63487 63.0776 -4.47297 63.445C-6.84011 64.5193 -6.32091 67.0494 -5.91336 69.0746C-6.55151 69.0137 -7.19454 69.1282 -7.76773 69.4049C-8.34091 69.6816 -8.8207 70.1091 -9.15141 70.6378C-10.3741 72.4588 -9.66506 74.4357 -9.24076 76.3749C-8.12419 81.3707 -7.56588 86.4953 -6.7452 91.5341C-6.30581 94.4316 -5.68876 97.3016 -4.89727 100.129C-4.49531 101.472 -3.88119 102.976 -3.88119 104.389C-3.92997 105.281 -4.11817 106.161 -4.43948 107H-1.89369C-1.45556 105.62 -1.35995 104.161 -1.61455 102.74C-2.11142 100.398 -2.99352 98.1522 -3.50156 95.8208C-4.50647 91.2333 -5.12061 86.5168 -5.79055 81.8541C-6.11994 79.5496 -6.48283 77.2451 -7.0132 74.9728C-7.19744 74.1778 -7.96229 71.7498 -6.45492 71.4489C-5.71239 71.3093 -5.45 72.8832 -5.29926 73.4096C-4.93079 74.7043 -4.61814 76.0096 -4.31108 77.3203C-3.78629 79.5335 -3.29686 81.7538 -2.84278 83.9813C-2.53014 85.5069 -0.107202 84.8623 -0.419842 83.3367C-0.872053 81.1504 -1.34657 78.9695 -1.8602 76.7939C-1.96627 76.3265 -2.08353 75.8592 -2.19519 75.3918C-2.1731 75.262 -2.1731 75.1295 -2.19519 74.9997C-2.49666 73.4848 -2.79627 71.9682 -3.09402 70.4498C-3.28384 69.4667 -3.47924 68.4783 -3.65231 67.4899C-3.70814 67.1998 -3.75278 66.9044 -3.80861 66.6143C-3.74161 66.3404 -3.80862 66.0449 -3.60763 65.7978C-3.17217 65.2606 -2.30682 65.5991 -2.03326 66.1846C-1.63674 67.1797 -1.31583 68.2013 -1.07303 69.2411C-0.380752 71.5886 0.283607 73.9468 0.947967 76.2997C1.40948 77.9327 1.86729 79.5675 2.32136 81.2041C2.74008 82.7029 5.16302 82.0636 4.74431 80.5595C4.32559 79.0554 3.92365 77.6265 3.5161 76.16C3.51907 76.0478 3.50592 75.9357 3.47702 75.827C2.99689 73.9629 2.53352 72.0667 2.0813 70.2188C1.73517 68.7738 1.3946 67.3341 1.08754 65.8837C0.964715 65.3251 0.853071 64.7664 0.75258 64.2077L0.702319 63.9069V63.8371C0.680968 63.6965 0.667916 63.5548 0.663235 63.4127C0.663235 63.4127 0.663235 63.3429 0.663235 63.3268C0.7004 63.1299 0.752666 62.936 0.819571 62.7466C0.912424 62.4608 1.08416 62.2046 1.31645 62.0053C1.40554 61.9431 1.50898 61.9025 1.61792 61.8871C1.71483 61.8705 1.81421 61.8729 1.91014 61.8941C2.00608 61.9154 2.09658 61.955 2.1762 62.0107C2.98572 62.4619 3.11412 63.6222 3.35418 64.5032C4.12461 67.3395 4.93414 70.1651 5.73807 72.996C6.34102 75.1197 6.9477 77.2433 7.55809 79.367C7.62109 79.56 7.73341 79.7347 7.8848 79.8751C8.0362 80.0155 8.22182 80.1171 8.42462 80.1706C8.62742 80.224 8.84091 80.2277 9.04554 80.1811C9.25017 80.1346 9.43937 80.0393 9.59582 79.9042C10.7227 79.0795 11.9177 78.3447 13.1689 77.7071C13.956 77.3257 15.2178 76.767 16.0664 77.3042C16.6749 77.6963 17.088 78.6149 17.5403 79.179C17.9925 79.743 18.5117 80.4091 18.936 81.0698C19.2374 81.5264 19.4943 81.9992 19.7734 82.4826C20.0525 82.9661 20.7392 83.8685 20.7113 84.3896C20.7113 84.8301 20.0693 85.1041 19.6729 85.1309C18.5117 85.2169 18.026 83.8739 17.4677 83.1326C16.9049 82.356 16.2795 81.6232 15.5974 80.9409C15.3568 80.7218 15.0382 80.5997 14.7069 80.5997C14.3757 80.5997 14.057 80.7218 13.8165 80.9409C11.5275 82.7405 8.16102 84.7495 8.41225 87.9726C8.61324 90.5511 12.5659 97.0134 15.804 94.0965C16.8368 93.1671 17.624 91.7651 18.4 90.6263C18.9583 89.7614 20.0302 87.6342 21.3254 87.8491C21.934 87.9511 22.1405 88.6709 22.1517 89.192C22.1517 90.1428 21.6325 91.1097 21.1579 91.9155C20.6834 92.7213 20.1363 93.4572 19.6785 94.2576C19.0532 95.3642 18.5619 96.5406 18.0539 97.6956C17.5988 98.8753 16.9483 99.9764 16.1278 100.956C15.3406 101.773 14.3636 102.165 13.4089 102.75C12.3593 103.39 12.0579 104.437 11.7341 105.517C11.5777 106 11.427 106.484 11.2707 106.967H13.9002V106.903C14.0565 106.409 14.1905 105.904 14.3692 105.42C14.5925 104.808 14.8828 104.733 15.4858 104.432C17.2899 103.477 18.7355 102 19.6171 100.21C20.6946 98.1575 21.4817 96.0357 22.7602 94.075C23.7484 92.5655 24.8035 90.7821 24.6807 88.9342C24.8883 88.9787 25.1046 88.9676 25.306 88.9019C28.3822 87.978 31.4137 87.2635 34.0767 85.4371C34.4619 85.1685 34.8471 84.8999 35.2268 84.626C40.5696 87.704 46.867 89.235 53.0584 89.4606C59.335 89.6578 65.5235 87.9986 70.7896 84.7065C70.9925 84.5844 71.1552 84.4093 71.2586 84.2016C72.1574 84.7388 73.1344 85.1631 74.1002 85.6305C77.6286 87.3387 81.2128 88.9395 84.7691 90.5994C86.4886 91.3998 88.2863 92.1519 89.9277 93.0973C91.4416 94.0203 92.8055 95.1534 93.9752 96.46C96.6885 99.3501 99.117 102.906 100.245 106.693C100.271 106.78 100.304 106.865 100.345 106.946H102.578C102.656 106.799 102.698 106.638 102.703 106.473C102.708 106.309 102.675 106.146 102.606 105.995ZM0.646504 63.7297C0.646504 63.6974 0.646504 63.6921 0.646504 63.6974C0.646504 63.7028 0.640922 63.6759 0.646504 63.7297ZM17.6017 87.3656C16.6805 88.5098 15.8821 89.7507 15.0168 90.9325C14.7935 91.2386 14.2073 92.27 14.0063 92.2969C13.5987 92.3614 12.3314 90.8143 12.0411 90.4007C11.385 89.5983 10.9785 88.6335 10.8687 87.6181C10.8352 86.6834 11.3489 86.0817 12.0244 85.4693C12.8339 84.7442 13.6992 84.0512 14.5311 83.369C14.9299 83.8348 15.3026 84.3207 15.6477 84.8247C16.2674 85.7272 16.848 86.5813 17.825 87.0648L17.6017 87.3656Z" fill="#020300"/>
<path d="M70.94 87.4412C60.126 94.0485 45.4095 93.6295 34.6514 87.1511C33.278 86.3239 32.0163 88.4135 33.3841 89.2354C44.8624 96.1543 60.6675 96.5787 72.2017 89.5309C73.5695 88.6982 72.3078 86.6032 70.94 87.4412Z" fill="#020300"/>
</g>
</svg>
