<svg width="73" height="72" viewBox="0 0 73 72" fill="none" xmlns="http://www.w3.org/2000/svg">
<circle cx="36.5" cy="36" r="36" fill="#F8FAEB"/>
<path d="M46.3842 18H26.6158C22.1335 18 18.5 21.6335 18.5 26.1158V45.8842C18.5 50.3665 22.1335 54 26.6158 54H46.3842C50.8665 54 54.5 50.3665 54.5 45.8842V26.1158C54.5 21.6335 50.8665 18 46.3842 18Z" fill="#06C755"/>
<path d="M48.8744 34.3031C48.8744 28.9323 43.4901 24.5628 36.8718 24.5628C30.2534 24.5628 24.8691 28.9323 24.8691 34.3031C24.8691 39.1181 29.1396 43.1501 34.9075 43.9128C35.2979 43.9972 35.83 44.1704 35.965 44.5046C36.0865 44.8083 36.0438 45.2831 36.0044 45.5902C36.0044 45.5902 35.8638 46.4373 35.8334 46.6173C35.7805 46.9211 35.5926 47.8042 36.8729 47.2642C38.1543 46.7242 43.7849 43.1939 46.3026 40.2959C48.0419 38.3879 48.8755 36.4529 48.8755 34.3031H48.8744Z" fill="white"/>
<path d="M44.8804 37.4052H41.5088C41.3817 37.4052 41.2793 37.3028 41.2793 37.1757V37.1723V31.9433V31.9377C41.2793 31.8106 41.3817 31.7082 41.5088 31.7082H44.8804C45.0064 31.7082 45.1099 31.8117 45.1099 31.9377V32.7893C45.1099 32.9164 45.0075 33.0188 44.8804 33.0188H42.5888V33.9031H44.8804C45.0064 33.9031 45.1099 34.0066 45.1099 34.1326V34.9842C45.1099 35.1113 45.0075 35.2137 44.8804 35.2137H42.5888V36.0979H44.8804C45.0064 36.0979 45.1099 36.2014 45.1099 36.3274V37.1791C45.1099 37.3062 45.0075 37.4086 44.8804 37.4086V37.4052Z" fill="#06C755"/>
<path d="M32.4079 37.4049C32.5339 37.4049 32.6374 37.3025 32.6374 37.1754V36.3238C32.6374 36.1978 32.5339 36.0943 32.4079 36.0943H30.1163V31.9363C30.1163 31.8103 30.0128 31.7068 29.8868 31.7068H29.0352C28.908 31.7068 28.8057 31.8092 28.8057 31.9363V37.1709V37.1754C28.8057 37.3025 28.908 37.4049 29.0352 37.4049H32.4068H32.4079Z" fill="#06C755"/>
<path d="M34.4364 31.7082H33.5859C33.4592 31.7082 33.3564 31.8109 33.3564 31.9377V37.1757C33.3564 37.3024 33.4592 37.4052 33.5859 37.4052H34.4364C34.5632 37.4052 34.6659 37.3024 34.6659 37.1757V31.9377C34.6659 31.8109 34.5632 31.7082 34.4364 31.7082Z" fill="#06C755"/>
<path d="M40.2327 31.7082H39.3811C39.254 31.7082 39.1516 31.8106 39.1516 31.9377V35.0483L36.7553 31.8117C36.7497 31.8038 36.743 31.7959 36.7373 31.7881C36.7373 31.7881 36.7373 31.7881 36.7362 31.7869C36.7317 31.7824 36.7272 31.7768 36.7227 31.7723C36.7216 31.7712 36.7193 31.7701 36.7182 31.7689C36.7137 31.7656 36.7103 31.7622 36.7058 31.7588C36.7036 31.7577 36.7013 31.7554 36.6991 31.7543C36.6957 31.7509 36.6912 31.7487 36.6867 31.7464C36.6845 31.7453 36.6822 31.7431 36.68 31.7419C36.6755 31.7397 36.6721 31.7374 36.6676 31.7352C36.6653 31.7341 36.6631 31.7329 36.6608 31.7318C36.6563 31.7296 36.6518 31.7273 36.6473 31.7262C36.6451 31.7262 36.6428 31.7239 36.6395 31.7239C36.635 31.7228 36.6305 31.7206 36.626 31.7194C36.6237 31.7194 36.6203 31.7183 36.6181 31.7172C36.6136 31.7172 36.6091 31.7149 36.6046 31.7138C36.6012 31.7138 36.5978 31.7138 36.5945 31.7127C36.59 31.7127 36.5866 31.7116 36.5821 31.7116C36.5776 31.7116 36.5742 31.7116 36.5697 31.7116C36.5675 31.7116 36.5641 31.7116 36.5618 31.7116H35.7158C35.5898 31.7116 35.4863 31.8139 35.4863 31.9411V37.1791C35.4863 37.3051 35.5887 37.4086 35.7158 37.4086H36.5675C36.6946 37.4086 36.797 37.3062 36.797 37.1791V34.0684L39.1966 37.3096C39.2135 37.3332 39.2337 37.3523 39.2562 37.3669C39.2562 37.3669 39.2585 37.3681 39.2585 37.3692C39.263 37.3726 39.2675 37.3748 39.2731 37.3782C39.2753 37.3793 39.2776 37.3804 39.2798 37.3816C39.2832 37.3838 39.2877 37.3849 39.2911 37.3872C39.2945 37.3894 39.299 37.3906 39.3023 37.3917C39.3046 37.3917 39.3068 37.3939 39.3091 37.3939C39.3147 37.3962 39.3192 37.3973 39.3248 37.3984C39.3248 37.3984 39.3271 37.3984 39.3282 37.3984C39.3473 37.4029 39.3676 37.4063 39.3878 37.4063H40.2338C40.3598 37.4063 40.4633 37.3039 40.4633 37.1768V31.9388C40.4633 31.8128 40.361 31.7093 40.2338 31.7093L40.2327 31.7082Z" fill="#06C755"/>
</svg>
