<svg width="73" height="72" viewBox="0 0 73 72" fill="none" xmlns="http://www.w3.org/2000/svg">
<circle cx="36.5" cy="36" r="36" fill="#F8FAEB"/>
<path d="M22.332 49.3334C21.6654 49.3334 21.082 49.0834 20.582 48.5834C20.082 48.0834 19.832 47.5001 19.832 46.8334V25.1667C19.832 24.5001 20.082 23.9167 20.582 23.4167C21.082 22.9167 21.6654 22.6667 22.332 22.6667H50.6654C51.332 22.6667 51.9154 22.9167 52.4154 23.4167C52.9154 23.9167 53.1654 24.5001 53.1654 25.1667V46.8334C53.1654 47.5001 52.9154 48.0834 52.4154 48.5834C51.9154 49.0834 51.332 49.3334 50.6654 49.3334H22.332ZM36.4987 36.7501L22.332 27.4584V46.8334H50.6654V27.4584L36.4987 36.7501ZM36.4987 34.2501L50.4987 25.1667H22.5404L36.4987 34.2501ZM22.332 27.4584V25.1667V46.8334V27.4584Z" fill="#FF801F"/>
</svg>
