<svg width="16" height="17" viewBox="0 0 16 17" fill="none" xmlns="http://www.w3.org/2000/svg">
<g clip-path="url(#clip0_2509_23219)">
<mask id="mask0_2509_23219" style="mask-type:luminance" maskUnits="userSpaceOnUse" x="0" y="0" width="16" height="17">
<path d="M0.5 15.75V0.75H15.5V15.75H0.5Z" fill="white" stroke="white"/>
</mask>
<g mask="url(#mask0_2509_23219)">
<path d="M13.2316 8.68086C13.1012 8.68086 12.976 8.73269 12.8837 8.82496C12.7915 8.91723 12.7396 9.04237 12.7396 9.17286V12.8649C12.7381 13.3866 12.5301 13.8865 12.1612 14.2554C11.7923 14.6243 11.2924 14.8323 10.7706 14.8339H3.38564C2.86392 14.8323 2.36401 14.6243 1.9951 14.2554C1.62618 13.8865 1.41822 13.3866 1.41664 12.8649V5.48086C1.41822 4.95913 1.62618 4.45923 1.9951 4.09031C2.36401 3.72139 2.86392 3.51344 3.38564 3.51186H7.07764C7.20826 3.51186 7.33353 3.45997 7.42589 3.36761C7.51825 3.27524 7.57014 3.14997 7.57014 3.01936C7.57014 2.88874 7.51825 2.76347 7.42589 2.67111C7.33353 2.57874 7.20826 2.52686 7.07764 2.52686H3.38564C2.60219 2.52686 1.85083 2.83808 1.29685 3.39206C0.742865 3.94604 0.431641 4.69741 0.431641 5.48086V12.8659C0.431641 13.6493 0.742865 14.4007 1.29685 14.9546C1.85083 15.5086 2.60219 15.8199 3.38564 15.8199H10.7706C11.1586 15.8199 11.5427 15.7434 11.9011 15.595C12.2595 15.4465 12.5851 15.229 12.8594 14.9546C13.1337 14.6803 13.3513 14.3547 13.4998 13.9963C13.6482 13.6379 13.7246 13.2538 13.7246 12.8659V9.17286C13.7246 9.10816 13.7119 9.0441 13.6871 8.98434C13.6623 8.92459 13.626 8.8703 13.5802 8.8246C13.5344 8.77891 13.48 8.74269 13.4202 8.71802C13.3604 8.69335 13.2963 8.68072 13.2316 8.68086Z" fill="#01AD27"/>
<path d="M15.5457 1.05595C15.5513 1.03805 15.5513 1.01886 15.5457 1.00095C15.5266 0.934642 15.4924 0.87369 15.4457 0.822952C15.3949 0.776214 15.334 0.741971 15.2677 0.722952H15.2127C15.1658 0.713443 15.1175 0.713443 15.0707 0.722952L10.2827 1.15995C10.2077 1.14055 10.1292 1.1391 10.0536 1.15574C9.97801 1.17238 9.90739 1.20662 9.8475 1.25569C9.78762 1.30476 9.74016 1.36727 9.70899 1.43814C9.67781 1.50901 9.6638 1.58624 9.6681 1.66354C9.67239 1.74084 9.69487 1.81604 9.7337 1.88302C9.77253 1.95 9.82662 2.00687 9.89158 2.049C9.95653 2.09114 10.0305 2.11735 10.1075 2.12551C10.1845 2.13367 10.2623 2.12354 10.3347 2.09595L13.7687 1.78795L7.61366 7.94195C7.5666 7.98729 7.52916 8.04165 7.50359 8.10179C7.47802 8.16193 7.46484 8.2266 7.46484 8.29195C7.46484 8.3573 7.47802 8.42198 7.50359 8.48211C7.52916 8.54225 7.5666 8.59661 7.61366 8.64195C7.65805 8.68881 7.71155 8.72611 7.77088 8.75156C7.8302 8.77701 7.8941 8.79008 7.95866 8.78995C8.02406 8.78985 8.08879 8.77671 8.14906 8.7513C8.20933 8.72589 8.26392 8.68871 8.30966 8.64195L14.4637 2.48795L14.1547 5.91795C14.1427 6.0476 14.1826 6.1767 14.2656 6.27698C14.3487 6.37726 14.4681 6.44054 14.5977 6.45295H14.6407C14.764 6.45342 14.8831 6.40753 14.9742 6.32437C15.0653 6.24121 15.1219 6.12685 15.1327 6.00395L15.5697 1.21595C15.5731 1.16143 15.5645 1.10683 15.5447 1.05595H15.5457Z" fill="#01AD27"/>
</g>
</g>
<defs>
<clipPath id="clip0_2509_23219">
<rect width="16" height="16" fill="white" transform="translate(0 0.25)"/>
</clipPath>
</defs>
</svg>
