<svg width="31" height="30" viewBox="0 0 31 30" fill="none" xmlns="http://www.w3.org/2000/svg">
<g clip-path="url(#clip0_1_9726)">
<path d="M21.6033 11.9541C21.6128 12.0914 21.6128 12.2286 21.6128 12.3671C21.6128 16.5879 18.3952 21.4557 12.5115 21.4557V21.4532C10.7735 21.4557 9.07155 20.9585 7.6084 20.0212C7.86112 20.0515 8.11512 20.0667 8.36974 20.0673C9.81009 20.0686 11.2093 19.586 12.3424 18.6973C10.9736 18.6714 9.77335 17.7802 9.35404 16.4791C9.83353 16.5714 10.3276 16.5525 10.7982 16.4241C9.30591 16.123 8.2323 14.8137 8.2323 13.2931C8.2323 13.2792 8.2323 13.2659 8.2323 13.2527C8.67694 13.5 9.17479 13.6372 9.68404 13.6524C8.27853 12.7144 7.84529 10.8472 8.69404 9.38738C10.3181 11.383 12.7142 12.5961 15.2865 12.7245C15.0287 11.6151 15.3808 10.4525 16.2118 9.67264C17.5002 8.46328 19.5264 8.52527 20.7375 9.81116C21.4539 9.67011 22.1405 9.40762 22.7688 9.0357C22.53 9.77511 22.0302 10.4032 21.3626 10.8023C21.9967 10.7277 22.6161 10.5582 23.1995 10.2995C22.7701 10.9421 22.2291 11.5019 21.6033 11.9541Z" fill="#020300"/>
</g>
<circle cx="15.4482" cy="15" r="14.5" stroke="#020300"/>
<defs>
<clipPath id="clip0_1_9726">
<rect width="15.7083" height="12.9032" fill="white" transform="translate(7.54492 8.70996)"/>
</clipPath>
</defs>
</svg>
