<svg width="26" height="26" viewBox="0 0 26 26" fill="none" xmlns="http://www.w3.org/2000/svg">
<path d="M3.79102 21.6663C3.35768 21.6663 2.97852 21.5038 2.65352 21.1788C2.32852 20.8538 2.16602 20.4747 2.16602 20.0413V5.95801C2.16602 5.52467 2.32852 5.14551 2.65352 4.82051C2.97852 4.49551 3.35768 4.33301 3.79102 4.33301H22.2077C22.641 4.33301 23.0202 4.49551 23.3452 4.82051C23.6702 5.14551 23.8327 5.52467 23.8327 5.95801V20.0413C23.8327 20.4747 23.6702 20.8538 23.3452 21.1788C23.0202 21.5038 22.641 21.6663 22.2077 21.6663H3.79102ZM12.9994 13.4872L3.79102 7.44759V20.0413H22.2077V7.44759L12.9994 13.4872ZM12.9994 11.8622L22.0994 5.95801H3.92643L12.9994 11.8622ZM3.79102 7.44759V5.95801V20.0413V7.44759Z" fill="white"/>
</svg>
