<svg width="28" height="28" viewBox="0 0 28 28" fill="none" xmlns="http://www.w3.org/2000/svg">
<g clip-path="url(#clip0_191_15140)">
<path d="M17.8673 18.1085C16.8378 18.3521 14.8072 19.9229 14.7607 19.959C13.4212 19.3161 12.0753 18.3689 10.8533 17.147C9.63143 15.9251 8.68391 14.5791 8.04131 13.2396C8.07743 13.1931 9.64823 11.1625 9.89183 10.133C9.94587 9.90479 8.40279 5.91759 6.69423 4.20903C6.04855 3.56335 4.74627 2.26135 0.74479 6.25807C0.74423 6.25863 0.74367 6.25919 0.74339 6.25947C0.74283 6.26003 0.74255 6.26031 0.74227 6.26087C0.73947 6.26367 0.73667 6.26619 0.73415 6.26899C0.73135 6.27179 0.72883 6.27459 0.72631 6.27739C-1.45545 8.50899 1.44927 14.9857 7.23239 20.7685C13.0152 26.5516 19.4919 29.4563 21.7235 27.2746C21.7263 27.2718 21.7291 27.2695 21.7319 27.2667C21.7347 27.2639 21.7375 27.2611 21.74 27.2586C21.7403 27.2581 21.7409 27.2578 21.7414 27.2575C21.742 27.2569 21.7425 27.2564 21.7428 27.2561C25.7395 23.2543 24.4375 21.9523 23.7919 21.3067C22.083 19.5978 18.0961 18.055 17.8679 18.1088L17.8673 18.1085Z" fill="#FF801F"/>
<path d="M15.0254 7.24219V9.05099C16.0734 9.05099 17.0588 9.45923 17.7999 10.2001C18.5411 10.9413 18.949 11.9266 18.949 12.9746H20.7581C20.7581 11.4433 20.1617 10.0038 19.079 8.92107C17.9962 7.83831 16.5567 7.24219 15.0254 7.24219Z" fill="#FF801F"/>
<path d="M21.6393 6.36074C19.8725 4.59422 17.5238 3.62122 15.0254 3.62122V5.4303C19.1856 5.4303 22.57 8.81494 22.5703 12.9749H24.3791C24.3791 10.4765 23.4061 8.12754 21.6396 6.36074H21.6393Z" fill="#FF801F"/>
<path d="M22.9208 5.0792C25.0298 7.18816 26.1912 9.99208 26.191 12.9746H27.9998C27.9998 11.2235 27.6568 9.5242 26.9797 7.924C26.3262 6.37896 25.3907 4.99156 24.1993 3.80016C23.0082 2.60904 21.6205 1.67356 20.0755 1.02004C18.4758 0.34328 16.7765 0 15.0254 0V1.8088C18.008 1.8088 20.8119 2.97024 22.9208 5.0792Z" fill="#FF801F"/>
</g>
<defs>
<clipPath id="clip0_191_15140">
<rect width="28" height="28" fill="white"/>
</clipPath>
</defs>
</svg>
