<svg width="36" height="36" viewBox="0 0 36 36" fill="none" xmlns="http://www.w3.org/2000/svg">
<circle cx="18" cy="18" r="18" fill="#6DC528"/>
<path d="M18.0025 17.7944C18.404 17.7944 18.7472 17.6514 19.0319 17.3654C19.3166 17.0795 19.459 16.7357 19.459 16.3342C19.459 15.9326 19.316 15.5895 19.03 15.3048C18.7441 15.0201 18.4004 14.8777 17.9988 14.8777C17.5973 14.8777 17.2541 15.0207 16.9694 15.3066C16.6847 15.5926 16.5423 15.9363 16.5423 16.3379C16.5423 16.7394 16.6853 17.0826 16.9713 17.3673C17.2572 17.652 17.6009 17.7944 18.0025 17.7944ZM18.0007 26.336C15.7645 24.4333 14.0944 22.6659 12.9902 21.034C11.8861 19.402 11.334 17.8916 11.334 16.5027C11.334 14.4194 12.0041 12.7597 13.3444 11.5235C14.6847 10.2874 16.2368 9.66937 18.0007 9.66937C19.7645 9.66937 21.3166 10.2874 22.6569 11.5235C23.9972 12.7597 24.6673 14.4194 24.6673 16.5027C24.6673 17.8916 24.1152 19.402 23.0111 21.034C21.9069 22.6659 20.2368 24.4333 18.0007 26.336Z" fill="white"/>
</svg>
