<svg width="82" height="24" viewBox="0 0 82 24" fill="none" xmlns="http://www.w3.org/2000/svg">
<path d="M4.17664 7.48521V20.0151H9.18435V23.5525H0V7.48521H4.17664Z" fill="#020300"/>
<path d="M15.2267 7.48521V16.2221C15.2267 16.6909 15.2409 17.1739 15.2694 17.6711C15.312 18.1541 15.4185 18.5945 15.589 18.9923C15.7737 19.3901 16.0578 19.7168 16.4414 19.9725C16.8249 20.214 17.3648 20.3348 18.0609 20.3348C18.757 20.3348 19.2897 20.214 19.6591 19.9725C20.0427 19.7168 20.3268 19.3901 20.5115 18.9923C20.6962 18.5945 20.8027 18.1541 20.8311 17.6711C20.8737 17.1739 20.895 16.6909 20.895 16.2221V7.48521H25.0504V16.7974C25.0504 19.2977 24.475 21.1232 23.3243 22.2739C22.1878 23.4246 20.4333 24 18.0609 24C15.6884 24 13.9269 23.4246 12.7762 22.2739C11.6254 21.1232 11.0501 19.2977 11.0501 16.7974V7.48521H15.2267Z" fill="#020300"/>
<path d="M27.7019 23.5525L30.4295 7.48521H34.5635L37.7812 16.0516L40.9777 7.48521H45.1117L47.8393 23.5525H43.684L42.2988 14.3042L38.5058 23.5525H36.8436L33.2423 14.3042L31.8572 23.5525H27.7019Z" fill="#020300"/>
<path d="M54.1289 15.5189C54.1289 16.1581 54.2496 16.7477 54.4912 17.2875C54.7327 17.8274 55.0594 18.2962 55.4714 18.694C55.8834 19.0917 56.3593 19.4043 56.8991 19.6316C57.4532 19.8447 58.0356 19.9512 58.6465 19.9512C59.2574 19.9512 59.8327 19.8447 60.3726 19.6316C60.9266 19.4043 61.4096 19.0917 61.8216 18.694C62.2478 18.2962 62.5816 17.8274 62.8231 17.2875C63.0646 16.7477 63.1854 16.1581 63.1854 15.5189C63.1854 14.8796 63.0646 14.29 62.8231 13.7502C62.5816 13.2103 62.2478 12.7415 61.8216 12.3438C61.4096 11.946 60.9266 11.6405 60.3726 11.4275C59.8327 11.2002 59.2574 11.0865 58.6465 11.0865C58.0356 11.0865 57.4532 11.2002 56.8991 11.4275C56.3593 11.6405 55.8834 11.946 55.4714 12.3438C55.0594 12.7415 54.7327 13.2103 54.4912 13.7502C54.2496 14.29 54.1289 14.8796 54.1289 15.5189ZM49.7605 15.5189C49.7605 14.3255 49.9807 13.2174 50.4211 12.1946C50.8615 11.1575 51.4723 10.2554 52.2537 9.48829C53.035 8.72116 53.9655 8.12449 55.0452 7.6983C56.1391 7.25791 57.3395 7.03771 58.6465 7.03771C59.9393 7.03771 61.1326 7.25791 62.2265 7.6983C63.3204 8.12449 64.258 8.72116 65.0393 9.48829C65.8349 10.2554 66.4528 11.1575 66.8932 12.1946C67.3336 13.2174 67.5538 14.3255 67.5538 15.5189C67.5538 16.7122 67.3336 17.8274 66.8932 18.8644C66.4528 19.8873 65.8349 20.7823 65.0393 21.5494C64.258 22.3166 63.3204 22.9203 62.2265 23.3607C61.1326 23.7869 59.9393 24 58.6465 24C57.3395 24 56.1391 23.7869 55.0452 23.3607C53.9655 22.9203 53.035 22.3166 52.2537 21.5494C51.4723 20.7823 50.8615 19.8873 50.4211 18.8644C49.9807 17.8274 49.7605 16.7122 49.7605 15.5189Z" fill="#020300"/>
<path d="M72.9023 6.72928L77.3885 3.92542V11.2155C77.3885 12.4543 76.3843 13.4586 75.1454 13.4586Lnan nanL75.1454 13.4586C73.9066 13.4586 72.9023 12.4543 72.9023 11.2155V6.72928Z" fill="#86C8F9"/>
<path d="M72.9023 4.48619L72.9023 8.97238L70.6592 8.97238C69.4204 8.97238 68.4162 7.96811 68.4162 6.72929Lnan nanL68.4162 6.72929C68.4162 5.49046 69.4204 4.48619 70.6592 4.48619L72.9023 4.48619Z" fill="#A1E01C"/>
<path d="M79.628 4.48619C80.8668 4.48619 81.8711 5.49046 81.8711 6.72929Lnan nanL81.8711 6.72929C81.8711 7.96811 80.8668 8.97238 79.628 8.97238L77.3849 8.97238L77.3849 4.48619L79.628 4.48619Z" fill="#A1E01C"/>
<path d="M72.9023 2.2431C72.9023 1.00427 73.9066 0 75.1454 0Lnan nanL75.1454 0C76.3843 0 77.3885 1.00427 77.3885 2.2431V4.48619L72.9023 8.97238V2.2431Z" fill="#2E9BFF"/>
</svg>
