<svg width="885" height="406" viewBox="0 0 885 406" fill="none" xmlns="http://www.w3.org/2000/svg">
<mask id="mask0_102_14023" style="mask-type:alpha" maskUnits="userSpaceOnUse" x="0" y="0" width="885" height="406">
<rect width="885" height="406" transform="matrix(-1 0 0 1 885 0)" fill="#D9D9D9"/>
</mask>
<g mask="url(#mask0_102_14023)">
<mask id="mask1_102_14023" style="mask-type:alpha" maskUnits="userSpaceOnUse" x="-305" y="29" width="1177" height="857">
<path d="M30.6596 619.286C35.5911 619.335 39.6854 623.249 40.0837 628.288C40.5383 634.083 41.2197 639.878 42.143 645.679C68.2157 809.543 274.321 913.675 502.475 878.268C730.63 842.862 894.452 681.323 868.374 517.467C844.657 368.448 727.075 297.984 487.678 284.293C446.939 281.96 411.239 266.643 395.778 208.048C352.031 42.2755 123.994 -1.38988 -75.9434 49.0557C-271.187 98.3223 -323.742 230.559 -298.875 386.806C-277.216 522.896 -136.734 617.546 30.6607 619.293L30.6596 619.286Z" fill="white"/>
</mask>
<g mask="url(#mask1_102_14023)">
<rect width="1309.2" height="1010.52" transform="matrix(-0.988172 0.15335 -0.157177 -0.98757 933.793 862.052)" fill="#F8FAEB"/>
</g>
</g>
</svg>
