<svg width="237" height="237" viewBox="0 0 237 237" fill="none" xmlns="http://www.w3.org/2000/svg">
<circle cx="118.5" cy="118.5" r="118.5" fill="white"/>
<rect opacity="0.8" x="25" y="137" width="189" height="11" rx="5.5" fill="white"/>
<path d="M78.15 178.69V181.72H93.3V178.69H78.15ZM73.44 173.71V177.04H100.59V173.71H73.44ZM81.81 172.12C80.55 175.03 77.79 177.52 72.39 179.05C73.2 179.68 74.37 181.18 74.82 182.14C80.76 180.01 84 176.98 86.01 172.75L81.81 172.12ZM93.48 174.82L90.15 176.05C92.16 178.9 95.4 181.3 99 182.47C99.6 181.42 100.83 179.83 101.73 179.02C98.37 178.27 95.13 176.68 93.48 174.82ZM91.77 178.69V179.14C91.59 181.69 91.35 182.83 90.99 183.19C90.72 183.4 90.48 183.46 90.06 183.46C89.52 183.46 88.47 183.43 87.39 183.31C87.93 184.24 88.35 185.65 88.41 186.7C89.88 186.73 91.23 186.73 92.04 186.61C92.97 186.52 93.75 186.28 94.44 185.62C95.16 184.84 95.52 183.22 95.79 180.07C95.85 179.59 95.88 178.69 95.88 178.69H91.77ZM84.27 177.43C83.82 180.79 82.95 182.68 75.87 183.7C76.62 184.48 77.58 186.01 77.91 187C86.25 185.44 87.81 182.38 88.41 177.43H84.27ZM73.83 159.73V163.12H100.17V159.73H73.83ZM79.92 158.35V163.9H84.15V158.35H79.92ZM89.79 158.35V163.9H94.08V158.35H89.79ZM80.7 169.81H93.24V170.56H80.7V169.81ZM80.7 166.78H93.24V167.53H80.7V166.78ZM76.53 164.35V172.99H97.62V164.35H76.53ZM105.15 176.86V180.28H132.45V176.86H105.15ZM111.33 165.58V168.34H129.3V165.58H111.33ZM111.33 169.18V171.94H129.3V169.18H111.33ZM110.4 161.44V164.77H130.95V161.44H110.4ZM117.54 163.6V174.01H121.71V163.6H117.54ZM116.55 175.21V186.82H120.9V175.21H116.55ZM116.37 178.33C113.73 180.43 108.63 182.29 104.01 183.16C104.91 184.06 106.14 185.68 106.77 186.73C111.42 185.47 116.49 182.92 119.61 179.92L116.37 178.33ZM121.23 178.21L117.93 179.83C121.05 182.8 125.94 185.38 130.5 186.64C131.1 185.62 132.3 184 133.2 183.16C128.7 182.23 123.75 180.31 121.23 178.21ZM119.07 158.35C118.65 159.76 117.84 161.62 117.09 162.97L120.93 163.69C121.8 162.52 122.97 160.81 123.99 158.92L119.07 158.35ZM111.48 158.29C110.07 160.87 107.64 163.84 104.28 166.12C105.24 166.75 106.65 168.13 107.34 169.09C111.09 166.15 113.79 162.79 115.95 159.19L111.48 158.29ZM108.48 163.6V176.02H131.64V172.78H112.59V163.6H108.48ZM138.09 163.48V179.23H142.47V167.77H158.64V179.08H163.23V163.48H138.09ZM140.34 173.38V177.67H161.16V173.38H140.34ZM148.23 158.35V186.85H152.85V158.35H148.23Z" fill="#FF801F"/>
<path d="M117.802 201.046L126.903 210.7L117.802 220.354L115.959 218.429L121.926 212.071L108.7 212.071L108.7 209.329L121.926 209.329L115.959 203L117.802 201.046Z" fill="#6DC528"/>
<mask id="mask0_110_14336" style="mask-type:alpha" maskUnits="userSpaceOnUse" x="0" y="0" width="237" height="119">
<rect width="237" height="118.5" fill="#D9D9D9"/>
</mask>
<g mask="url(#mask0_110_14336)">
<circle cx="118.5" cy="118.5" r="118.5" fill="#A1E01C"/>
</g>
<path d="M45.8753 136.01C45.7103 136.34 45.5753 136.88 45.4853 137.21C45.1253 138.62 44.5103 140.9 43.2203 142.64C41.8703 144.455 39.7553 146 37.1153 146.855L35.1353 144.68C38.1503 144.005 39.8453 142.685 41.0303 141.215C41.9903 140.03 42.4853 138.545 42.6803 137.345C41.7503 137.345 37.3553 137.345 36.0803 137.345C35.3453 137.345 34.5203 137.39 34.1303 137.42V134.855C34.5953 134.915 35.5853 134.99 36.0803 134.99C37.3553 134.99 41.7653 134.99 42.6953 134.99C43.0253 134.99 43.6103 134.975 44.0753 134.855L45.8753 136.01ZM51.4853 134.3C51.9053 134.36 52.6403 134.39 53.1653 134.39C54.1853 134.39 57.9953 134.39 58.8503 134.39C59.3303 134.39 60.1853 134.36 60.6203 134.3V136.64C60.2003 136.61 59.3903 136.58 58.8203 136.58C57.9953 136.58 54.0953 136.58 53.1653 136.58C52.6553 136.58 51.9353 136.595 51.4853 136.64V134.3ZM61.9853 138.89C61.8653 139.115 61.7153 139.43 61.6553 139.61C61.1603 141.05 60.5303 142.46 59.4203 143.705C57.9353 145.37 55.9853 146.465 54.0653 147.02L52.2503 144.965C54.5903 144.47 56.3303 143.48 57.4103 142.4C58.1453 141.665 58.5503 140.915 58.8053 140.225C58.0403 140.225 53.5703 140.225 51.9803 140.225C51.6053 140.225 50.7503 140.24 50.0753 140.3V137.96C50.7653 138.02 51.4703 138.065 51.9803 138.065C53.1653 138.065 57.9503 138.065 59.1203 138.065C59.6903 138.065 60.1403 137.99 60.3803 137.885L61.9853 138.89ZM67.8353 134.36C68.8703 135.065 70.8353 136.625 71.7353 137.585L69.8753 139.49C69.0803 138.62 67.1903 136.97 66.1103 136.205L67.8353 134.36ZM65.6153 144.32C67.8203 144.02 69.7553 143.345 71.2253 142.49C73.9253 140.93 75.9503 138.605 76.9553 136.49L78.3653 139.055C77.1653 141.185 75.0353 143.27 72.5303 144.74C71.0003 145.64 69.0503 146.42 67.1603 146.72L65.6153 144.32ZM82.1753 135.035C83.3303 135.05 85.6703 135.05 87.3353 134.795C88.9253 134.555 90.3053 134.24 91.0703 133.865L92.5553 135.86C91.9403 136.01 91.4903 136.13 91.2203 136.19C90.2603 136.445 89.1803 136.61 88.0553 136.775C86.3303 137.015 84.0353 137.09 82.7453 137.12L82.1753 135.035ZM82.7153 145.445C85.4153 144.215 86.5553 142.19 86.5553 139.535C86.5553 139.535 86.5553 138.77 86.5553 136.61L88.9553 136.355C88.9553 137.705 88.9553 139.49 88.9553 139.49C88.9553 142.415 87.9953 145.19 85.0403 147.005L82.7153 145.445ZM81.0803 138.635C81.5303 138.68 82.0253 138.725 82.5053 138.725C83.4353 138.725 91.4903 138.725 92.5403 138.725C92.8553 138.725 93.6503 138.665 93.9953 138.635V140.96C93.5453 140.93 93.0203 140.9 92.5853 140.9C91.6103 140.9 83.3903 140.9 82.5203 140.9C82.0703 140.9 81.4853 140.93 81.0803 140.96V138.635ZM101.889 136.28C101.949 136.685 102.054 137.12 102.144 137.51C102.744 139.625 104.034 144.35 104.439 145.715C104.514 145.97 104.754 146.75 104.874 147.065L102.414 147.665C102.354 147.23 102.249 146.675 102.114 146.225C101.709 144.785 100.479 139.82 99.9238 138.005C99.8188 137.615 99.6388 137.21 99.4588 136.85L101.889 136.28ZM109.089 138.74C108.444 140.075 106.959 142.415 105.894 143.6L103.899 142.61C104.574 141.98 105.564 140.78 105.909 140.135C105.069 140.285 99.4588 141.485 98.1388 141.785L97.5838 139.625C98.0788 139.58 98.5138 139.535 99.0388 139.445C99.8938 139.325 105.579 138.23 106.764 137.975C107.064 137.915 107.394 137.81 107.619 137.705L109.089 138.74ZM112.389 139.94C115.119 139.25 117.264 138.32 118.944 137.3C120.459 136.37 122.289 134.75 123.234 133.61L125.199 135.485C123.774 136.88 121.809 138.38 120.039 139.415C118.314 140.42 115.854 141.56 113.514 142.235L112.389 139.94ZM118.584 138.47L121.194 137.9V144.605C121.194 145.325 121.224 146.36 121.344 146.78H118.464C118.524 146.375 118.584 145.325 118.584 144.605V138.47ZM138.725 133.37C139.115 133.955 139.67 134.945 139.895 135.425L138.47 136.025C138.155 135.41 137.72 134.57 137.315 133.94L138.725 133.37ZM140.72 132.845C141.11 133.415 141.65 134.375 141.905 134.885L140.495 135.485C140.195 134.87 139.7 133.985 139.31 133.415L140.72 132.845ZM139.595 136.175C139.46 136.37 139.145 136.895 138.98 137.27C138.35 138.665 137.255 140.675 135.935 142.235C134.255 144.2 131.93 146.105 129.62 147.215L127.73 145.25C130.16 144.365 132.53 142.52 133.865 141.035C134.84 139.925 135.65 138.605 135.965 137.645C135.29 137.645 132.02 137.645 131.3 137.645C130.625 137.645 129.8 137.735 129.38 137.765V135.185C129.905 135.26 130.865 135.305 131.3 135.305C132.2 135.305 135.59 135.305 136.31 135.305C137.06 135.305 137.765 135.2 138.11 135.08L139.595 136.175ZM136.13 140.735C137.645 141.935 139.85 144.245 140.795 145.415L138.71 147.23C137.585 145.625 136.01 143.915 134.405 142.43L136.13 140.735ZM153.47 133.82C153.395 134.33 153.365 134.99 153.38 135.5C153.44 138.44 153.545 141.935 153.59 145.085C153.605 146.15 153.005 146.78 151.73 146.78C150.74 146.78 149.93 146.75 149.015 146.69L148.805 144.335C149.465 144.44 150.26 144.5 150.74 144.5C151.085 144.5 151.235 144.305 151.235 143.87C151.235 141.845 151.22 138.44 151.07 135.5C151.025 134.81 150.98 134.27 150.905 133.82H153.47ZM144.62 136.25C145.04 136.31 145.895 136.37 146.435 136.37C147.62 136.37 154.265 136.37 154.985 136.37C155.525 136.37 156.305 136.295 156.695 136.235V138.62C156.155 138.605 155.54 138.59 155.12 138.59C154.565 138.59 147.41 138.59 146.495 138.59C145.925 138.59 145.175 138.62 144.62 138.65V136.25ZM143.675 143.465C146.78 142.01 149.33 139.865 150.395 138.125L151.58 138.14L151.595 140.075C150.335 141.905 147.755 144.08 145.34 145.355L143.675 143.465ZM160.19 138.8C160.79 138.845 162.05 138.905 162.785 138.905C164.93 138.905 169.28 138.905 170.75 138.905C171.425 138.905 172.16 138.83 172.595 138.8V141.665C172.205 141.65 171.365 141.575 170.75 141.575C169.265 141.575 164.915 141.575 162.785 141.575C161.93 141.575 160.805 141.62 160.19 141.665V138.8ZM181.445 135.89C181.445 135.365 181.385 134.555 181.22 133.985H184.1C183.995 134.555 183.965 135.425 183.965 135.905C183.965 136.745 183.965 137.705 183.965 138.755C183.965 141.995 183.26 144.785 179.615 147.005L177.35 145.325C180.695 143.825 181.445 141.38 181.445 138.755C181.445 137.705 181.445 136.715 181.445 135.89ZM176.015 137.21C176.555 137.27 177.2 137.33 177.845 137.33C178.775 137.33 185.96 137.33 186.995 137.33C187.79 137.33 188.465 137.27 188.825 137.225V139.715C188.465 139.685 187.655 139.64 186.98 139.64C185.96 139.64 178.775 139.64 177.905 139.64C177.2 139.64 176.57 139.685 176.015 139.73V137.21ZM191.99 138.8C192.59 138.845 193.85 138.905 194.585 138.905C196.73 138.905 201.08 138.905 202.55 138.905C203.225 138.905 203.96 138.83 204.395 138.8V141.665C204.005 141.65 203.165 141.575 202.55 141.575C201.065 141.575 196.715 141.575 194.585 141.575C193.73 141.575 192.605 141.62 191.99 141.665V138.8Z" fill="#020300"/>
<path d="M129.933 107.574C128.765 106.218 127.403 105.041 125.89 104.082C124.251 103.101 122.455 102.32 120.737 101.488C117.185 99.7648 113.605 98.1024 110.08 96.3286C109.115 95.8432 108.139 95.3858 107.241 94.8447C107.138 95.0604 106.976 95.2423 106.773 95.3691C101.513 98.7877 95.3308 100.511 89.0611 100.306C82.8764 100.049 76.5857 98.4595 71.2487 95.2854C70.8695 95.5699 70.4847 95.8433 70.0999 96.1277C67.4398 98.0244 64.4115 98.7663 61.3387 99.7257C61.1375 99.7939 60.9215 99.8055 60.7141 99.7592C60.8368 101.678 59.7828 103.53 58.7957 105.098C57.5186 107.134 56.7323 109.337 55.656 111.468C54.7754 113.327 53.3313 114.861 51.5291 115.853C50.9714 116.165 50.6647 116.243 50.4137 116.879C50.2353 117.381 50.1015 117.905 49.9453 118.419V118.486H136.297C136.256 118.401 136.222 118.313 136.196 118.223C135.053 114.307 132.644 110.576 129.933 107.574ZM108.245 100.434C96.7236 107.753 80.9189 107.312 69.4697 100.127C68.1034 99.2739 69.3637 97.1039 70.7356 97.963C81.4766 104.69 96.177 105.126 106.985 98.2642C108.346 97.394 109.606 99.5695 108.245 100.434V100.434Z" fill="#FFC89F"/>
<path d="M76.0004 85.5291C75.5153 87.5707 75.3536 89.6961 74.478 91.6261C74.1624 92.3079 73.7429 92.9364 73.2344 93.4893C78.1013 96.1418 83.5218 97.6167 89.0614 97.7957C94.8003 97.9923 100.463 96.4357 105.295 93.3331C104.675 92.6989 104.199 91.9376 103.901 91.1018C103.382 89.3495 103.126 87.5296 103.143 85.702C103.109 84.8374 103.081 83.9783 103.054 83.1193C100.935 85.8842 97.9302 87.8361 94.5433 88.6473C90.5113 89.6235 86.7358 89.618 82.832 88.0505C79.6349 86.7188 76.8648 84.5345 74.8238 81.7358L74.5505 83.9672C74.7582 83.9354 74.9705 83.9551 75.169 84.0243C75.3674 84.0935 75.5458 84.2102 75.6888 84.3642C75.8318 84.5182 75.935 84.7049 75.9893 84.9079C76.0436 85.111 76.0474 85.3242 76.0004 85.5291V85.5291Z" fill="white"/>
<path d="M84.3604 33.5058C86.3624 32.9479 88.2084 31.5143 89.7364 29.9524C91.0652 28.5981 92.1921 27.0594 93.0825 25.3838C92.2921 25.9445 91.4432 26.4177 90.5506 26.7951C88.9121 27.5071 87.2367 28.1309 85.5315 28.6638C82.4141 29.6344 79.107 30.1923 76.1234 31.559C72.9949 32.987 71.1043 35.4638 70.2957 38.8107C69.5484 41.8007 69.9499 44.9747 70.0503 48.0205C70.1098 49.9134 70.1655 51.8026 70.2176 53.688L70.4295 53.7494C70.8364 52.3324 71.378 50.9576 72.0468 49.6438C72.5235 48.7318 72.8154 47.7347 72.9056 46.7096C72.9056 45.421 72.9056 44.1324 72.9725 42.8494C73.1231 40.6181 73.7979 38.2194 75.9004 36.9866C77.3559 36.1332 79.4807 35.8263 81.1426 35.7036C81.3561 35.6736 81.5737 35.7112 81.7648 35.8113C81.9558 35.9114 82.1107 36.0688 82.2077 36.2615C82.9216 36.122 83.6354 36.016 84.3548 35.9379C83.3175 35.6534 83.0442 33.8795 84.3604 33.5058Z" fill="white"/>
<path d="M89.4514 35.7985C89.3674 35.4776 89.4126 35.1365 89.5774 34.8485C89.7421 34.5606 90.0133 34.3489 90.3325 34.2589C90.6712 34.1723 91.0045 34.0662 91.3308 33.9409L91.5817 33.8238C91.7212 33.7568 91.855 33.6843 91.9944 33.6062C92.1338 33.5281 92.2788 33.4333 92.4183 33.3385L92.6358 33.1823C92.8808 32.9846 93.1118 32.7703 93.3273 32.5408C93.4444 32.4181 93.5504 32.2953 93.6563 32.167L93.7846 31.9885C93.9748 31.7083 94.1462 31.4157 94.2976 31.1127L94.398 30.8952V30.8617C94.4594 30.6999 94.5207 30.5382 94.5765 30.3708C94.6816 30.0263 94.7673 29.6762 94.833 29.3221C94.921 29.0011 95.1329 28.7281 95.4221 28.5634C95.7113 28.3986 96.0541 28.3555 96.375 28.4435C96.696 28.5316 96.9688 28.7435 97.1335 29.0328C97.2983 29.322 97.3413 29.6649 97.2533 29.9859C96.9608 31.6061 96.2099 33.1085 95.0896 34.3147C94.3894 35.0442 93.559 35.6363 92.6413 36.0607C94.1359 36.2057 95.6584 36.3898 97.231 36.585C97.2089 36.42 97.224 36.2522 97.2751 36.0937C97.3262 35.9353 97.4122 35.7903 97.5266 35.6694C97.641 35.5485 97.7811 35.4548 97.9365 35.3951C98.0918 35.3354 98.2586 35.3112 98.4245 35.3243C101.441 35.6396 104.218 37.1134 106.171 39.4355C107.153 40.4912 107.753 41.8469 107.872 43.2845C107.916 44.707 107.314 46.0737 107.275 47.4683C107.323 48.4856 107.485 49.4943 107.76 50.475C107.972 51.5181 108.201 52.5836 108.318 53.649C108.645 53.6017 108.975 53.5849 109.305 53.5988C109.649 50.4487 109.682 47.2724 109.405 44.1157C109.188 41.1313 109.009 37.8736 107.833 35.0845C106.818 32.6858 104.408 31.2745 102.1 30.2983C100.031 29.4225 98.1568 28.8089 96.7124 26.9513C96.5223 26.7139 96.4188 26.4188 96.4188 26.1146C96.4188 25.8104 96.5223 25.5153 96.7124 25.2778C96.4225 25.0052 96.109 24.7587 95.7755 24.5415C95.8413 24.7216 95.8707 24.9129 95.8621 25.1044C95.8535 25.2959 95.807 25.4837 95.7253 25.6572C94.6474 27.9453 93.1707 30.0232 91.3642 31.7933C89.6694 33.6199 87.5511 35.0012 85.1963 35.8152C86.6131 35.7272 88.0339 35.7216 89.4514 35.7985Z" fill="white"/>
<path d="M110.877 57.1633C110.725 56.8962 110.52 56.6627 110.275 56.4772C110.01 56.4259 109.764 56.3046 109.561 56.1258C109.324 56.0689 109.079 56.0519 108.836 56.0756C108.647 56.1032 108.461 56.1461 108.279 56.2039C108.15 57.1075 107.955 58.0112 107.827 58.8759C107.587 60.4713 105.172 59.7907 105.407 58.212C105.507 57.5426 105.602 56.8788 105.702 56.2094L105.886 54.9711C105.886 54.8762 105.92 54.7814 105.931 54.6866C105.942 54.5917 105.931 54.6252 105.931 54.826C105.939 54.7221 105.939 54.6176 105.931 54.5136C105.736 52.4831 105.206 50.5196 104.91 48.5058C104.581 46.2745 106.148 43.8647 104.91 41.8119C104.195 40.7198 103.251 39.796 102.144 39.1045C101.036 38.413 99.792 37.9702 98.4969 37.8067C98.1777 37.7858 97.8779 37.6458 97.6569 37.4144C97.4359 37.183 97.3098 36.8771 97.3035 36.5571C95.7308 36.3619 94.2084 36.1778 92.7138 36.0328C92.1793 36.3 91.6186 36.5112 91.0407 36.6631C90.7238 36.7422 90.3887 36.6973 90.1037 36.5377C89.8187 36.378 89.6053 36.1157 89.5071 35.8041C88.0999 35.7434 86.6903 35.7638 85.2855 35.8654C85.213 35.8654 85.1516 35.9156 85.0791 35.9324C84.8675 35.9908 84.6439 35.9908 84.4322 35.9324C83.7128 36.0105 82.999 36.1165 82.2852 36.2559C82.3844 36.4504 82.4345 36.6663 82.4312 36.8846C82.428 37.1029 82.3713 37.3171 82.2663 37.5086C82.1613 37.7 82.011 37.8628 81.8286 37.9828C81.6463 38.1029 81.4373 38.1764 81.22 38.1972C79.2346 38.3422 76.8143 38.755 75.9109 40.7409C75.3922 41.8956 75.5093 43.4742 75.4926 44.7126C75.4759 45.951 75.5762 47.3121 75.197 48.5839C74.7514 49.8638 74.2376 51.1188 73.6578 52.3437C73.2674 53.2641 72.8046 54.3017 72.8715 55.3225C72.9719 56.7282 73.2228 58.1116 73.4292 59.5285C73.6299 61.1295 71.1148 61.1127 70.9196 59.5285C70.7914 58.5077 70.6241 57.4757 70.5014 56.4493C70.4281 56.4217 70.3572 56.3881 70.2894 56.3489C69.7915 56.035 69.201 55.9011 68.6164 55.9696C67.1274 56.2094 66.553 58.6137 66.4916 59.8465C66.418 61.5779 66.9927 63.2746 68.1033 64.6048C69.096 65.7204 70.5125 66.3173 71.8342 66.903C72.023 67.014 72.1798 67.172 72.2893 67.3617C72.3988 67.5513 72.4572 67.7662 72.4588 67.9852C72.5805 70.2918 73.0545 72.5662 73.8642 74.7293C75.0046 77.8048 76.8429 80.5736 79.2346 82.8178C80.8504 84.2869 82.7613 85.3938 84.8393 86.0644V83.6825C84.8393 83.3496 84.9715 83.0304 85.2068 82.795C85.4422 82.5596 85.7613 82.4274 86.0941 82.4274C86.4269 82.4274 86.746 82.5596 86.9814 82.795C87.2167 83.0304 87.3489 83.3496 87.3489 83.6825V86.7003C87.8491 86.78 88.3539 86.8266 88.8602 86.8398V83.6825C88.8659 83.3514 89 83.0355 89.2341 82.8013C89.4682 82.5672 89.784 82.4331 90.115 82.4274C90.4469 82.4303 90.7644 82.5634 90.999 82.7982C91.2337 83.033 91.3668 83.3505 91.3698 83.6825V86.6948C91.8717 86.6278 92.3736 86.5441 92.8699 86.4437V83.6881C92.8699 83.3552 93.0021 83.0359 93.2374 82.8006C93.4727 82.5652 93.7919 82.4329 94.1247 82.4329C94.4575 82.4329 94.7767 82.5652 95.012 82.8006C95.2473 83.0359 95.3795 83.3552 95.3795 83.6881V85.7576C97.3157 85.1108 99.0536 83.9776 100.426 82.4664C101.399 81.3643 102.217 80.1351 102.858 78.8126C102.855 78.6593 102.887 78.5073 102.953 78.3687C103.019 78.2302 103.116 78.109 103.237 78.015C103.656 77.065 104.017 76.0908 104.319 75.0975C104.904 73.0914 105.315 71.0384 105.546 68.9614C105.552 68.6115 105.628 68.2662 105.769 67.9462C106.093 67.3883 106.829 67.2321 107.364 66.9476C108.374 66.4463 109.271 65.7417 109.996 64.8781C111.63 62.7584 112.238 59.5508 110.877 57.1633ZM90.0202 65.3355C91.6375 65.3355 91.6375 67.8457 90.0202 67.8457C88.4029 67.8457 88.4085 65.3355 90.0202 65.3355ZM82.525 57.2135C80.9077 57.2135 80.9077 54.7033 82.525 54.7033C84.1422 54.7033 84.1366 57.2135 82.525 57.2135ZM84.3876 52.0536C84.1529 52.1879 83.8804 52.2409 83.6124 52.2042C82.9674 52.1429 82.319 52.1261 81.6717 52.154C81.0384 52.1539 80.4054 52.1875 79.7756 52.2544L80.06 52.2154C79.7356 52.285 79.3972 52.2417 79.1008 52.0927C78.9577 52.0102 78.8324 51.9001 78.7321 51.7688C78.6318 51.6375 78.5585 51.4877 78.5165 51.3279C78.4745 51.1681 78.4646 51.0016 78.4874 50.8379C78.5101 50.6743 78.5651 50.5168 78.6491 50.3746C78.8186 50.1007 79.0856 49.9013 79.3964 49.8167C80.175 49.7166 80.9592 49.6663 81.7442 49.6661C82.5269 49.6267 83.3116 49.6659 84.0865 49.7832C84.4059 49.8744 84.6767 50.0875 84.8405 50.3766C85.0043 50.6656 85.0479 51.0075 84.962 51.3284C84.8704 51.6348 84.6648 51.8943 84.3876 52.0536V52.0536ZM94.6266 74.7907C93.3343 76.0023 91.6455 76.7022 89.8752 76.7598C88.046 76.7598 86.4454 75.884 85.0345 74.7907C84.8009 74.5547 84.6698 74.2359 84.6698 73.9038C84.6698 73.5716 84.8009 73.2529 85.0345 73.0168C85.2732 72.7884 85.5909 72.6609 85.9212 72.6609C86.2516 72.6609 86.5692 72.7884 86.8079 73.0168C87.0694 73.2169 87.3412 73.4031 87.6222 73.5746L88.0962 73.8312L88.3137 73.9316C88.6 74.0435 88.8946 74.133 89.1948 74.1994L89.4235 74.244C89.5573 74.244 89.6967 74.244 89.8306 74.244H90.2433H90.3381H90.4886C90.7884 74.1855 91.0816 74.0977 91.3642 73.9818L91.5761 73.8814C91.7322 73.7978 91.8884 73.7141 92.0334 73.6193C92.1913 73.5254 92.344 73.423 92.4907 73.3125C92.6011 73.2345 92.7072 73.1507 92.8086 73.0614C93.0473 72.833 93.3649 72.7055 93.6953 72.7055C94.0257 72.7055 94.3433 72.833 94.582 73.0614C94.8085 73.2896 94.9393 73.5958 94.9476 73.9172C94.9559 74.2387 94.8411 74.5511 94.6266 74.7907V74.7907ZM97.5656 57.2135C95.9483 57.2135 95.9483 54.7033 97.5656 54.7033C99.1829 54.7033 99.1773 57.2135 97.5656 57.2135ZM101.771 51.3396C101.687 51.6522 101.487 51.9214 101.213 52.0927C100.919 52.2497 100.578 52.2933 100.254 52.2154L100.532 52.2544C99.9045 52.1875 99.2734 52.1539 98.6419 52.154C97.9852 52.1251 97.3273 52.1438 96.6733 52.2098L96.8629 52.1819C96.6242 52.2431 96.3727 52.2323 96.1401 52.1508C95.9075 52.0694 95.7041 51.9209 95.5557 51.7241C95.4073 51.5273 95.3203 51.291 95.3058 51.0449C95.2913 50.7988 95.35 50.5539 95.4743 50.3411C95.6425 50.066 95.9101 49.8663 96.2216 49.7832C96.9965 49.6662 97.7811 49.627 98.5638 49.6661C99.3489 49.6659 100.133 49.7162 100.912 49.8167C101.068 49.8556 101.215 49.9248 101.344 50.0206C101.473 50.1163 101.582 50.2366 101.665 50.3746C101.745 50.5205 101.795 50.6809 101.814 50.8465C101.832 51.0121 101.817 51.1797 101.771 51.3396V51.3396Z" fill="white"/>
<path d="M49.4767 114.084C50.4304 113.476 51.4063 113.069 52.1926 112.221C53.0123 111.203 53.6621 110.06 54.1167 108.835C54.6409 107.636 55.1149 106.414 55.7395 105.265C56.1968 104.434 56.7545 103.658 57.2174 102.833C57.6802 102.007 58.2379 100.992 58.21 100.004C58.21 99.4466 57.9925 98.7158 57.3847 98.6098C56.0908 98.3867 55.048 100.596 54.4624 101.494C53.6872 102.676 52.9009 104.132 51.8692 105.097C48.6347 108.126 44.6863 101.416 44.4855 98.7381C44.2345 95.3912 47.5974 93.3049 49.8839 91.4362C50.1242 91.2086 50.4425 91.0818 50.7734 91.0818C51.1043 91.0818 51.4226 91.2086 51.6628 91.4362C52.3442 92.1447 52.9689 92.9057 53.5311 93.7121C54.0888 94.4819 54.574 95.8765 55.7339 95.7872C56.1299 95.7593 56.7489 95.4749 56.7712 95.0174C56.7712 94.4596 56.0909 93.5225 55.8343 93.0371C55.5778 92.5518 55.2766 92.0442 54.9978 91.57C54.574 90.8839 54.0888 90.248 53.6036 89.6065C53.1184 88.965 52.7392 88.0669 52.1313 87.6597C51.2836 87.1019 50.0233 87.6597 49.2369 88.0781C47.9871 88.7401 46.7934 89.5032 45.6678 90.3596V90.3596C45.5115 90.4999 45.3225 90.5988 45.1181 90.6472C44.9137 90.6955 44.7004 90.6918 44.4979 90.6362C44.2953 90.5807 44.1099 90.4752 43.9587 90.3294C43.8074 90.1836 43.6952 90.0022 43.6323 89.8017C43.0262 87.5965 42.4202 85.3912 41.8142 83.1859C41.0112 80.2461 40.2025 77.312 39.4329 74.3666C39.1931 73.4629 39.0648 72.2469 38.2562 71.7783C38.1767 71.7205 38.0863 71.6793 37.9904 71.6573C37.8946 71.6352 37.7953 71.6327 37.6985 71.65C37.5897 71.666 37.4864 71.7081 37.3974 71.7727C37.1653 71.9797 36.9938 72.2457 36.901 72.5425C36.8342 72.7392 36.782 72.9406 36.7449 73.145C36.7449 73.145 36.7449 73.2175 36.7449 73.2342C36.7496 73.3817 36.7626 73.5289 36.7839 73.6749V73.7474L36.8341 74.0598C36.9345 74.64 37.046 75.2201 37.1687 75.8002C37.4754 77.3064 37.8156 78.8014 38.1614 80.3019C38.6131 82.2432 39.076 84.2067 39.5556 86.1257C39.5845 86.2386 39.5976 86.355 39.5947 86.4715C40.0018 87.9944 40.4145 89.5173 40.8216 91.0401C41.2287 92.563 38.8195 93.2714 38.4012 91.7095C37.9476 90.0063 37.4903 88.3086 37.0293 86.6165C36.3657 84.1732 35.702 81.7244 35.0105 79.2867C34.768 78.2068 34.4474 77.146 34.0513 76.1126C33.778 75.5046 32.9359 75.1309 32.4786 75.711C32.2835 75.9676 32.3448 76.2688 32.2779 76.5589C32.3337 76.8601 32.3782 77.1669 32.434 77.4681C32.6125 78.4946 32.8077 79.521 32.9917 80.5418C33.2854 82.1186 33.5847 83.6935 33.8896 85.2666C33.9116 85.4014 33.9116 85.539 33.8896 85.6738C34.0011 86.1591 34.1182 86.6444 34.2242 87.1297C34.7373 89.3889 35.2113 91.6537 35.663 93.9241C35.9753 95.5083 33.555 96.1554 33.2427 94.5935C32.7854 92.2841 32.2965 89.9784 31.776 87.6764C31.4692 86.3153 31.1569 84.9598 30.7889 83.6154C30.6383 83.0576 30.3762 81.4343 29.6344 81.5793C28.151 81.8806 28.915 84.4131 29.0768 85.2387C29.6344 87.5983 29.9691 89.9914 30.2981 92.3845C30.9673 97.2041 31.5808 102.102 32.5846 106.888C33.0921 109.309 33.9732 111.641 34.4696 114.073C34.7239 115.549 34.6284 117.064 34.1907 118.496H47.2851C47.4412 117.994 47.5918 117.492 47.7479 116.99C48.1272 115.836 48.4283 114.748 49.4767 114.084Z" fill="white"/>
<path d="M101.196 52.0926C101.482 51.9228 101.689 51.6475 101.774 51.3261C101.858 51.0046 101.813 50.6628 101.648 50.3745C101.565 50.2365 101.456 50.1162 101.327 50.0205C101.198 49.9247 101.051 49.8555 100.895 49.8166C100.117 49.7161 99.3323 49.6658 98.5473 49.666C97.7646 49.6269 96.98 49.6661 96.2051 49.7832C95.8936 49.8662 95.626 50.0659 95.4578 50.341C95.3334 50.5538 95.2748 50.7987 95.2893 51.0448C95.3038 51.2909 95.3907 51.5272 95.5391 51.724C95.6876 51.9208 95.8909 52.0693 96.1235 52.1507C96.3561 52.2322 96.6076 52.243 96.8464 52.1818L96.6568 52.2097C97.3108 52.1437 97.9687 52.125 98.6254 52.1539C99.2569 52.1539 99.888 52.1874 100.516 52.2544L100.237 52.2153C100.561 52.2933 100.902 52.2496 101.196 52.0926V52.0926Z" fill="#020300"/>
<path d="M84.9622 51.3061C85.0481 50.9851 85.0045 50.6432 84.8407 50.3542C84.6769 50.0651 84.406 49.8521 84.0866 49.7609C83.3117 49.6436 82.5271 49.6043 81.7443 49.6437C80.9593 49.6439 80.1751 49.6942 79.3965 49.7944C79.0858 49.8789 78.8187 50.0783 78.6492 50.3522C78.5652 50.4944 78.5103 50.6519 78.4875 50.8156C78.4648 50.9792 78.4746 51.1457 78.5166 51.3055C78.5587 51.4653 78.6319 51.6152 78.7322 51.7465C78.8325 51.8777 78.9578 51.9878 79.1009 52.0703C79.3974 52.2194 79.7358 52.2627 80.0602 52.193L79.7757 52.2321C80.4056 52.1651 81.0385 52.1316 81.6719 52.1317C82.3192 52.1038 82.9676 52.1206 83.6126 52.1819C83.8805 52.2185 84.153 52.1655 84.3878 52.0312C84.665 51.8719 84.8705 51.6124 84.9622 51.3061Z" fill="#020300"/>
<path d="M82.5245 54.7036C80.9072 54.7036 80.9072 57.2138 82.5245 57.2138C84.1418 57.2138 84.1418 54.7036 82.5245 54.7036Z" fill="#020300"/>
<path d="M90.0204 65.3354C88.4087 65.3354 88.4032 67.8457 90.0204 67.8457C91.6377 67.8457 91.6377 65.3354 90.0204 65.3354Z" fill="#020300"/>
<path d="M97.5655 54.7036C95.9482 54.7036 95.9482 57.2138 97.5655 57.2138C99.1828 57.2138 99.1828 54.7036 97.5655 54.7036Z" fill="#020300"/>
<path d="M89.8804 76.7598C91.6507 76.7022 93.3396 76.0023 94.6319 74.7907C94.8655 74.5546 94.9965 74.2359 94.9965 73.9037C94.9965 73.5716 94.8655 73.2528 94.6319 73.0168C94.3932 72.7883 94.0755 72.6608 93.7452 72.6608C93.4148 72.6608 93.0972 72.7883 92.8585 73.0168C92.7571 73.1061 92.6509 73.1899 92.5406 73.2678C92.3939 73.3784 92.2412 73.4808 92.0833 73.5746C91.9383 73.6694 91.7821 73.7531 91.626 73.8368L91.4141 73.9372C91.1315 74.053 90.8382 74.1408 90.5385 74.1994H90.3879H90.2931H89.8804C89.7466 74.1994 89.6072 74.1994 89.4734 74.1994L89.2447 74.1547C88.9445 74.0884 88.6499 73.9989 88.3636 73.887L88.1461 73.7866L87.672 73.53C87.391 73.3584 87.1193 73.1722 86.8578 72.9722C86.6191 72.7437 86.3015 72.6162 85.9711 72.6162C85.6407 72.6162 85.3231 72.7437 85.0844 72.9722C84.8508 73.2082 84.7197 73.5269 84.7197 73.8591C84.7197 74.1913 84.8508 74.51 85.0844 74.746C86.4452 75.884 88.0457 76.7431 89.8804 76.7598Z" fill="#020300"/>
<path d="M138.616 117.532C137.531 114.105 135.83 110.904 133.597 108.088C131.453 105.114 128.644 102.682 125.394 100.986C121.769 99.1679 118.099 97.4498 114.446 95.6815C112.896 94.9284 111.34 94.1754 109.812 93.3721C108.847 92.8645 107.581 92.3568 106.867 91.4755C105.841 90.159 105.786 88.1285 105.696 86.5164C105.562 84.1121 105.562 81.6967 105.356 79.2925C106.709 76.1454 107.585 72.8137 107.955 69.4078C109.731 68.6178 111.26 67.3632 112.383 65.7763C113.784 63.6907 114.378 61.1668 114.056 58.6751C113.832 57.0162 113.007 55.4973 111.736 54.4078C112.163 50.9882 112.234 47.5334 111.948 44.0991C111.714 40.8749 111.485 37.433 110.275 34.3985C109.16 31.5703 106.901 29.8187 104.218 28.4966C102.138 27.4702 100.008 27.0798 98.5078 25.1831C98.404 25.0408 98.2663 24.9268 98.1071 24.8515C97.9479 24.7762 97.7724 24.7419 97.5966 24.7519C97.4208 24.7619 97.2502 24.8158 97.1006 24.9087C96.951 25.0015 96.827 25.1304 96.74 25.2835C97.1825 25.6815 97.5475 26.1582 97.8163 26.6893C97.5475 26.1582 97.1825 25.6815 96.74 25.2835C96.5499 25.521 96.4464 25.8161 96.4464 26.1203C96.4464 26.4245 96.5499 26.7196 96.74 26.957C98.1844 28.7923 100.086 29.4059 102.127 30.304C104.436 31.2802 106.845 32.6915 107.86 35.0902C109.037 37.8793 109.215 41.137 109.433 44.1214C109.71 47.2781 109.676 50.4544 109.332 53.6045C109.003 53.5906 108.672 53.6074 108.345 53.6547C108.234 52.5892 108.005 51.5238 107.788 50.4806C107.513 49.4999 107.35 48.4913 107.302 47.474C107.358 46.0682 107.944 44.7127 107.899 43.2902C107.78 41.8526 107.181 40.4969 106.198 39.4412C104.246 37.1191 101.469 35.6453 98.4521 35.33C98.2861 35.3169 98.1194 35.3411 97.964 35.4008C97.8087 35.4605 97.6686 35.5542 97.5542 35.6751C97.4397 35.796 97.3538 35.941 97.3027 36.0994C97.2515 36.2579 97.2365 36.4257 97.2586 36.5907L98.6528 36.7692L97.2586 36.5907C97.2649 36.9107 97.3911 37.2166 97.6121 37.448C97.8331 37.6794 98.1328 37.8194 98.4521 37.8403C99.7472 38.0038 100.991 38.4466 102.099 39.1381C103.206 39.8296 104.15 40.7533 104.865 41.8455C106.115 43.9039 104.548 46.3081 104.865 48.5394C105.161 50.5532 105.691 52.5167 105.886 54.5472C105.894 54.6512 105.894 54.7556 105.886 54.8596C105.919 54.6588 105.931 54.6086 105.886 54.7201C105.841 54.8317 105.886 54.9098 105.841 55.0046L105.657 56.243C105.557 56.9124 105.462 57.5762 105.362 58.2456C105.128 59.8243 107.542 60.5048 107.782 58.9094C107.91 58.0448 108.106 57.1411 108.234 56.2374C108.416 56.1797 108.602 56.1368 108.791 56.1092C109.034 56.0855 109.279 56.1025 109.516 56.1594C109.719 56.3382 109.965 56.4595 110.23 56.5108C110.475 56.6963 110.68 56.9298 110.833 57.1969C112.193 59.5844 111.574 62.7752 109.912 64.8949C109.187 65.7586 108.291 66.4631 107.28 66.9645C106.722 67.249 106.009 67.4219 105.685 67.963C105.544 68.2831 105.468 68.6283 105.462 68.9782C105.231 71.0552 104.821 73.1082 104.235 75.1144C103.933 76.1076 103.572 77.0819 103.153 78.0318C103.032 78.1259 102.935 78.2471 102.869 78.3856C102.803 78.5241 102.771 78.6761 102.774 78.8295C102.133 80.1519 101.315 81.3811 100.343 82.4833C98.9697 83.9944 97.2319 85.1277 95.2956 85.7745V83.7049C95.2956 83.372 95.1634 83.0528 94.928 82.8174C94.6927 82.582 94.3736 82.4498 94.0408 82.4498C93.708 82.4498 93.3889 82.582 93.1535 82.8174C92.9182 83.0528 92.786 83.372 92.786 83.7049V86.4606C92.2897 86.561 91.7878 86.6447 91.2859 86.7116V83.6993C91.283 83.3674 91.1498 83.0498 90.9151 82.8151C90.6804 82.5803 90.363 82.4471 90.0311 82.4442C89.7001 82.45 89.3842 82.584 89.1501 82.8182C88.9161 83.0523 88.782 83.3683 88.7763 83.6993V86.8567C88.27 86.8434 87.7651 86.7968 87.265 86.7172V83.6993C87.265 83.3665 87.1328 83.0472 86.8975 82.8118C86.6621 82.5765 86.343 82.4442 86.0102 82.4442C85.6774 82.4442 85.3582 82.5765 85.1229 82.8118C84.8876 83.0472 84.7554 83.3665 84.7554 83.6993V86.0813C82.6774 85.4107 80.7665 84.3038 79.1507 82.8347C76.759 80.5905 74.9206 77.8217 73.7803 74.7462C72.9806 72.5833 72.5161 70.3109 72.4028 68.0076C72.4011 67.7886 72.3427 67.5738 72.2332 67.3841C72.1237 67.1944 71.967 67.0364 71.7782 66.9254C70.4565 66.3676 69.04 65.7205 68.0473 64.6272C66.9367 63.297 66.362 61.6004 66.4356 59.8689C66.497 58.6361 67.0714 56.2319 68.5604 55.992C69.145 55.9236 69.7354 56.0574 70.2334 56.3713C70.3012 56.4105 70.3721 56.4441 70.4453 56.4717C70.568 57.4981 70.7353 58.5301 70.8636 59.5509C71.0588 61.1352 73.5739 61.1519 73.3732 59.5509C73.1947 58.1564 72.9437 56.7618 72.8155 55.3449C72.7486 54.3241 73.2114 53.2865 73.6018 52.3661C74.1816 51.1412 74.6954 49.8862 75.141 48.6064C75.5202 47.3345 75.4254 46.0459 75.4366 44.735C75.4477 43.4241 75.3362 41.918 75.8548 40.7633C76.7583 38.7774 79.2009 38.3646 81.1639 38.2196C81.3813 38.1989 81.5902 38.1253 81.7726 38.0053C81.955 37.8852 82.1052 37.7224 82.2102 37.531C82.3153 37.3396 82.3719 37.1253 82.3752 36.907C82.3785 36.6887 82.3284 36.4728 82.2291 36.2783C81.5711 36.4066 80.913 36.5573 80.2549 36.7469C80.913 36.5573 81.5711 36.4066 82.2291 36.2783C82.1321 36.0857 81.9772 35.9282 81.7862 35.8282C81.5951 35.7281 81.3775 35.6905 81.1639 35.7205C79.4909 35.8432 77.3773 36.15 75.9217 37.0035C73.8193 38.2363 73.1333 40.6127 72.9939 42.8663C72.9047 44.1493 72.9493 45.4379 72.927 46.7265C72.8368 47.7516 72.5449 48.7487 72.0682 49.6606C71.3994 50.9744 70.8578 52.3492 70.4509 53.7663L70.239 53.7049C70.1907 51.8194 70.1349 49.9303 70.0717 48.0374C69.9713 44.9916 69.5698 41.8176 70.317 38.8276C71.148 35.4806 73.0162 33.015 76.1448 31.5758C79.1284 30.2092 82.4355 29.6513 85.5529 28.6807C87.258 28.1478 88.9335 27.524 90.572 26.812C91.4646 26.4346 92.3135 25.9614 93.1039 25.4007C92.2135 27.0763 91.0866 28.615 89.7578 29.9693C88.2298 31.5312 86.4117 32.9593 84.3818 33.5227C83.0656 33.8964 83.3389 35.6759 84.3818 35.9548L85.235 35.8767C87.5898 35.0627 89.7081 33.6814 91.403 31.8548C93.2094 30.0847 94.6862 28.0068 95.764 25.7186C95.8457 25.5452 95.8922 25.3573 95.9008 25.1658C95.9094 24.9743 95.88 24.783 95.8142 24.603C95.1176 24.1553 94.393 23.7529 93.6448 23.3981C94.393 23.7529 95.1176 24.1553 95.8142 24.603C95.7163 24.3647 95.539 24.1676 95.3123 24.0452C95.1138 23.9381 94.8909 23.8842 94.6654 23.889L94.71 23.8332C95.6246 22.4944 93.4553 21.2393 92.5462 22.5613C91.6372 23.8834 89.9474 24.458 88.6034 24.9879C87.1479 25.5457 85.67 26.1036 84.142 26.5387C80.9409 27.4814 77.6227 28.134 74.5945 29.59C73.0725 30.3283 71.7195 31.3735 70.6207 32.6598C69.5218 33.9462 68.7007 35.4459 68.209 37.0649C67.1494 40.2333 67.3836 43.4632 67.4952 46.7376C67.5733 49.0508 67.6439 51.3657 67.7071 53.6826C65.5712 54.2683 64.467 56.6 64.0655 58.6361C63.636 61.056 64.1683 63.548 65.5489 65.5811C66.6642 67.1541 68.2369 68.1136 69.9322 68.9002C70.0003 70.0866 70.1644 71.2657 70.423 72.4256C70.9777 74.7148 71.8368 76.9193 72.9772 78.9801C73.5211 79.9681 74.1362 80.9152 74.8175 81.8139L75.0741 79.6495L74.8175 81.8139C76.8631 84.61 79.6371 86.7905 82.837 88.1173C86.7408 89.6848 90.4884 89.6904 94.5483 88.7142C97.9312 87.9102 100.936 85.9686 103.059 83.214C103.059 84.0731 103.114 84.9321 103.148 85.7968C103.131 87.6244 103.387 89.4443 103.906 91.1966C104.204 92.0324 104.68 92.7937 105.3 93.4279C100.468 96.5305 94.8052 98.0871 89.0663 97.8905C83.5267 97.7115 78.1062 96.2366 73.2393 93.5841C73.7478 93.0312 74.1674 92.4027 74.4829 91.7209C75.3585 89.7908 75.5202 87.6655 76.0054 85.6238C76.0505 85.4209 76.0459 85.2101 75.9919 85.0094C75.9379 84.8086 75.8362 84.6239 75.6954 84.471C75.5546 84.3181 75.3789 84.2016 75.1833 84.1313C74.9877 84.061 74.778 84.0392 74.5722 84.0675L74.3435 85.9809L74.5722 84.0675C74.3336 84.0905 74.1088 84.1897 73.931 84.3504C73.7532 84.5112 73.6319 84.7249 73.5851 84.96C73.1557 86.7674 73.0274 88.7254 72.3136 90.4546C71.5997 92.1839 70.0215 93.2159 68.5548 94.2311C66.1289 95.9046 63.5357 96.4625 60.6748 97.3773C60.4318 97.4497 60.2174 97.5959 60.0613 97.7957C59.7605 97.3023 59.3429 96.8904 58.8455 96.5963C59.0249 96.3021 59.1532 95.9796 59.2248 95.6425C59.4702 94.3371 58.6671 93.1043 58.1094 91.9998C57.6186 91.053 57.0594 90.1432 56.4364 89.2776C55.3712 87.8217 54.3339 85.6908 52.488 85.1832C50.09 84.5194 47.6027 86.0366 45.5783 87.4591C44.2901 82.8124 43.0018 78.1657 41.7861 73.5134C41.418 72.0798 41.0276 70.6964 39.7171 69.8206C39.351 69.5772 38.9405 69.4084 38.5091 69.3238C38.0777 69.2392 37.6339 69.2405 37.203 69.3275C36.7721 69.4145 36.3626 69.5857 35.9978 69.8311C35.6331 70.0765 35.3202 70.3913 35.0772 70.7577C34.5753 71.4902 34.307 72.3576 34.3076 73.2456C33.444 72.9285 32.4902 72.9646 31.6531 73.346C29.2885 74.4617 29.8071 77.0891 30.2142 79.1921C29.5768 79.1288 28.9344 79.2478 28.3619 79.5351C27.7893 79.8224 27.31 80.2664 26.9797 80.8154C25.7584 82.7064 26.4666 84.7592 26.8904 86.773C28.0058 91.9608 28.5635 97.2825 29.3833 102.515C29.8222 105.524 30.4386 108.504 31.2292 111.44C31.6307 112.835 32.2442 114.397 32.2442 115.864C32.1955 116.79 32.0075 117.704 31.6865 118.575H34.2295C34.6672 117.142 34.7627 115.627 34.5084 114.151C34.012 111.719 33.1309 109.387 32.6234 106.966C31.6196 102.203 31.0061 97.3048 30.3369 92.4628C30.0079 90.0697 29.6454 87.6767 29.1156 85.317C28.9315 84.4915 28.1675 81.9701 29.6733 81.6577C30.415 81.5127 30.6771 83.1471 30.8277 83.6938C31.1957 85.0381 31.508 86.3936 31.8148 87.7547C32.339 90.053 32.8279 92.3587 33.2815 94.6718C33.5938 96.2561 36.0141 95.5867 35.7018 94.0024C35.2501 91.7321 34.7761 89.4673 34.263 87.2081C34.157 86.7228 34.0399 86.2375 33.9284 85.7521C33.9504 85.6173 33.9504 85.4798 33.9284 85.3449C33.6272 83.7718 33.3279 82.1969 33.0305 80.6201C32.8409 79.5993 32.6457 78.5729 32.4728 77.5465C32.4171 77.2453 32.3725 76.9385 32.3167 76.6372C32.3836 76.3527 32.3167 76.0459 32.5174 75.7893C32.9524 75.2315 33.8169 75.5829 34.0901 76.191C34.4862 77.2244 34.8068 78.2852 35.0493 79.365C35.7408 81.8027 36.4045 84.2516 37.0681 86.6949C37.5291 88.3907 37.9864 90.0883 38.44 91.7879C38.8583 93.3442 41.2786 92.6804 40.8603 91.1185C40.4421 89.5565 40.0406 88.0727 39.6335 86.5498C39.6364 86.4333 39.6233 86.3169 39.5944 86.204C39.1148 84.2683 38.6519 82.2992 38.2002 80.3803C37.8545 78.8797 37.5143 77.3847 37.2075 75.8786C37.0848 75.2984 36.9733 74.7183 36.8729 74.1382L36.8227 73.8258V73.7532C36.8014 73.6072 36.7884 73.4601 36.7837 73.3126C36.7837 73.3126 36.7837 73.2401 36.7837 73.2233C36.8208 73.0189 36.873 72.8175 36.9399 72.6209C37.0326 72.3241 37.2042 72.058 37.4362 71.8511C37.5252 71.7864 37.6285 71.7443 37.7373 71.7283C37.8341 71.7111 37.9334 71.7136 38.0292 71.7356C38.1251 71.7576 38.2155 71.7988 38.295 71.8566C39.1037 72.3252 39.2319 73.5301 39.4717 74.445C40.2413 77.3903 41.05 80.3245 41.853 83.2642C42.4553 85.4695 43.0613 87.6748 43.6711 89.8801C43.734 90.0805 43.8462 90.262 43.9974 90.4078C44.1487 90.5536 44.3341 90.6591 44.5367 90.7146C44.7392 90.7701 44.9525 90.7739 45.1569 90.7255C45.3613 90.6772 45.5503 90.5783 45.7066 90.4379V90.4379C46.8322 89.5815 48.0259 88.8185 49.2758 88.1564C50.0621 87.7603 51.3224 87.1802 52.1701 87.738C52.778 88.1452 53.1907 89.0991 53.6424 89.6848C54.0941 90.2705 54.6128 90.9623 55.0366 91.6484C55.3378 92.1226 55.5943 92.6134 55.8731 93.1155C56.152 93.6175 56.8379 94.5547 56.81 95.0958C56.81 95.5532 56.1687 95.8377 55.7728 95.8656C54.6128 95.9548 54.1276 94.5603 53.5699 93.7905C53.0077 92.984 52.383 92.2231 51.7017 91.5145C51.4614 91.287 51.1431 91.1602 50.8122 91.1602C50.4813 91.1602 50.1629 91.287 49.9226 91.5145C47.6362 93.3832 44.2733 95.4695 44.5243 98.8165C44.7251 101.494 48.6734 108.205 51.908 105.176C52.9397 104.211 53.726 102.755 54.5012 101.572C55.0589 100.674 56.1296 98.4651 57.4235 98.6882C58.0313 98.7942 58.2377 99.5417 58.2489 100.083C58.2489 101.07 57.7302 102.074 57.2562 102.911C56.7821 103.748 56.2356 104.512 55.7783 105.343C55.1537 106.492 54.663 107.714 54.1555 108.913C53.7009 110.138 53.0511 111.282 52.2315 112.299C51.4451 113.147 50.4692 113.554 49.5156 114.162C48.4671 114.826 48.166 115.914 47.8425 117.035C47.6864 117.537 47.5358 118.039 47.3796 118.541H50.0063V118.474C50.1625 117.961 50.2963 117.437 50.4748 116.935C50.6979 116.299 50.9878 116.221 51.5901 115.908C53.3924 114.917 54.8364 113.383 55.717 111.524C56.7933 109.393 57.5796 107.189 58.8567 105.153C59.8438 103.586 60.8978 101.734 60.7751 99.815C60.9825 99.8613 61.1985 99.8497 61.3997 99.7815C64.4726 98.8221 67.5008 98.0802 70.1609 96.1835C70.5457 95.9046 70.9305 95.6257 71.3097 95.3412C76.6467 98.5376 82.9374 100.127 89.1221 100.362C95.3918 100.566 101.574 98.8435 106.834 95.4249C107.037 95.2981 107.199 95.1162 107.302 94.9005C108.2 95.4584 109.176 95.899 110.141 96.3844C113.666 98.1582 117.246 99.8206 120.798 101.544C122.516 102.375 124.312 103.156 125.951 104.138C127.464 105.097 128.826 106.273 129.994 107.63C132.705 110.631 135.131 114.324 136.257 118.257C136.283 118.347 136.317 118.435 136.358 118.519H138.588C138.665 118.367 138.708 118.199 138.713 118.028C138.717 117.858 138.685 117.688 138.616 117.532V117.532ZM36.767 73.6417C36.767 73.6082 36.767 73.6026 36.767 73.6082C36.767 73.6138 36.7614 73.5859 36.767 73.6417ZM53.7037 98.1861C52.7836 99.3743 51.9861 100.663 51.1217 101.89C50.8986 102.208 50.313 103.279 50.1123 103.307C49.7052 103.374 48.4392 101.767 48.1492 101.338C47.4938 100.505 47.0878 99.5028 46.9781 98.4483C46.9447 97.4777 47.4577 96.8529 48.1325 96.217C48.9412 95.4639 49.8056 94.7443 50.6365 94.0359C51.0349 94.5196 51.4072 95.0242 51.7519 95.5476C52.3709 96.4848 52.9509 97.3717 53.9268 97.8738L53.7037 98.1861Z" fill="#020300"/>
<path d="M106.98 98.2644C96.1774 105.126 81.4769 104.691 70.7304 97.9631C69.3585 97.1041 68.0982 99.274 69.4645 100.128C80.9304 107.312 96.7183 107.753 108.24 100.434C109.606 99.5697 108.346 97.3941 106.98 98.2644Z" fill="#020300"/>
<path d="M132.479 105.167L142.296 102.043L162.377 103.382L182.458 102.043L194.952 108.737L200.753 119H142.296H121.323L125.786 110.968L132.479 105.167Z" fill="#6CB1FF"/>
<path d="M156.638 69.2858C157.275 69.0866 157.843 68.7113 158.275 68.2033C158.696 67.7067 158.913 67.0694 158.883 66.4193C158.854 65.7692 158.579 65.1544 158.115 64.6983C157.55 64.1247 156.813 63.7513 156.017 63.6351C155.341 63.5238 154.647 63.5932 154.007 63.8362C153.367 64.0791 152.802 64.4871 152.37 65.0187C152.004 65.518 151.831 66.1322 151.88 66.7489C151.93 67.3657 152.201 67.9439 152.642 68.378C153.161 68.8805 153.808 69.2309 154.513 69.391C155.218 69.5511 155.953 69.5147 156.638 69.2858ZM155.56 64.8827C156.969 64.8827 156.969 67.0673 155.56 67.0673C154.152 67.0673 154.157 64.8827 155.56 64.8827V64.8827Z" fill="white"/>
<path d="M148.917 60.8192C148.942 61.6566 148.916 62.4948 148.839 63.329L150.529 63.8678C150.674 63.6466 150.836 63.4373 151.014 63.2416C151.806 62.4375 152.805 61.8681 153.9 61.5965C154.996 61.3248 156.145 61.3616 157.221 61.7027C158.048 61.9487 158.804 62.3871 159.429 62.982C160.054 63.5769 160.529 64.3114 160.814 65.1252H163.602C163.799 64.4559 164.129 63.8334 164.573 63.295C165.315 62.471 166.281 61.8815 167.354 61.5986C168.426 61.3158 169.557 61.3519 170.609 61.7027C171.722 62.0769 172.686 62.7984 173.358 63.761L175.655 63.1979C175.5 57.4647 173.314 50.9499 168.317 47.9546C167.225 51.5776 165.072 54.7904 162.135 57.1783C160.635 58.3773 158.993 59.4017 157.06 59.6687C155.288 59.9114 153.501 59.6298 151.719 59.4599C150.836 60.0118 149.896 60.4675 148.917 60.8192V60.8192ZM166.496 58.7997C167.338 58.5027 168.234 58.3885 169.123 58.4647C169.955 58.5767 170.759 58.8435 171.493 59.2512C171.744 59.3973 171.926 59.6369 172 59.9173C172.073 60.1977 172.033 60.4959 171.886 60.7464C171.74 60.9968 171.501 61.1789 171.22 61.2526C170.94 61.3264 170.641 61.2857 170.391 61.1396C170.24 61.0571 170.085 60.9794 169.905 60.9066H169.866C169.808 60.8805 169.748 60.8578 169.687 60.8386C169.541 60.7854 169.391 60.7416 169.24 60.7075L169.026 60.659C168.703 60.6387 168.378 60.6387 168.055 60.659H167.948L167.73 60.7318C167.516 60.7804 167.307 60.8435 167.103 60.9114C166.824 60.9887 166.525 60.9518 166.273 60.8088C166.02 60.6659 165.835 60.4286 165.758 60.1493C165.681 59.8699 165.718 59.5712 165.861 59.3191C166.004 59.0669 166.241 58.8818 166.52 58.8045L166.496 58.7997Z" fill="white"/>
<path d="M172.1 66.5575C172.1 66.5235 172.1 66.2322 172.1 66.2371C172.1 66.242 172.076 66.1109 172.066 66.0478C172.057 65.9847 172.013 65.8293 171.979 65.7225C171.979 65.7225 171.901 65.5138 171.906 65.5138C171.775 65.2021 171.587 64.9174 171.353 64.6739C170.842 64.1208 170.156 63.7608 169.41 63.6545C168.768 63.5488 168.108 63.6257 167.507 63.8763C166.906 64.1269 166.388 64.5412 166.011 65.072C165.913 65.2265 165.829 65.3889 165.758 65.5575C165.758 65.5914 165.719 65.6691 165.71 65.6934L165.632 65.9604C165.632 66.0381 165.598 66.1109 165.583 66.1837C165.586 66.2096 165.586 66.2355 165.583 66.2614V66.3488C165.574 66.5234 165.574 66.6984 165.583 66.8731C165.583 66.907 165.583 66.9167 165.583 66.9216C165.583 66.9265 165.583 67.0381 165.617 67.0915C165.651 67.1449 165.651 67.2371 165.671 67.31C165.69 67.3828 165.729 67.4896 165.758 67.577C165.761 67.5931 165.761 67.6094 165.758 67.6255L165.787 67.6789C165.86 67.8294 165.948 67.9702 166.035 68.1158C166.087 68.216 166.156 68.3064 166.239 68.3828C166.701 68.8962 167.303 69.2621 167.972 69.4348C168.64 69.6075 169.345 69.5793 169.998 69.3537C170.616 69.1537 171.16 68.7712 171.557 68.2566C171.557 68.2275 171.673 68.0818 171.673 68.0818C171.722 68.0042 171.77 67.9265 171.814 67.844C171.858 67.7614 171.892 67.6935 171.926 67.6158V67.5381C172.049 67.2262 172.108 66.8928 172.1 66.5575V66.5575ZM168.983 67.0867C167.575 67.0867 167.575 64.9021 168.983 64.9021C170.391 64.9021 170.377 67.0672 168.973 67.0672L168.983 67.0867Z" fill="white"/>
<path d="M160.184 80.2959C160.247 80.4027 160.305 80.5144 160.373 80.6163L160.422 80.6891C160.485 80.7519 160.545 80.8184 160.601 80.8882L160.82 81.0969L160.951 81.1989L161.019 81.2474L161.213 81.3639C161.286 81.4076 161.364 81.4416 161.441 81.4804C161.582 81.5241 161.713 81.5775 161.854 81.6115L162.068 81.6552H162.116C162.259 81.6625 162.401 81.6625 162.544 81.6552H162.68H162.772C162.922 81.6261 163.069 81.5871 163.214 81.5387L163.33 81.495H163.36L163.437 81.4464C163.564 81.3785 163.687 81.3039 163.806 81.2231V81.2231L163.971 81.0726L164.151 80.8833L164.185 80.8445C164.268 80.7085 164.36 80.5823 164.438 80.4415L164.496 80.3202L160.184 80.2959Z" fill="white"/>
<path d="M175.85 76.4802C175.921 75.9176 176.026 75.3599 176.165 74.8102C176.209 74.6498 176.278 74.4974 176.369 74.3587C176.272 74.0566 176.235 73.7381 176.262 73.4218C176.309 72.8084 176.549 72.2255 176.947 71.7567C177.307 71.3446 177.781 71.0492 178.31 70.9082C178.838 70.7672 179.397 70.7871 179.914 70.9654L180.084 71.0431L180.143 70.9363C180.434 70.3408 180.604 69.6933 180.642 69.0315C180.681 68.3697 180.587 67.7069 180.366 67.0817C180.265 66.7609 180.089 66.4685 179.854 66.2281C179.618 65.9877 179.33 65.8062 179.011 65.6982C178.651 65.6439 178.283 65.6893 177.947 65.8293C177.86 65.8584 177.758 65.9167 177.671 65.9361C177.622 65.9456 177.575 65.9654 177.535 65.9943C177.399 66.1739 177.418 66.0769 177.535 65.9943C177.569 65.9506 177.608 65.8924 177.661 65.8099C177.151 66.6206 175.757 66.4118 175.651 65.4409L174.194 65.7904C174.194 65.9506 174.232 66.1108 174.242 66.2759C174.258 66.3624 174.266 66.4501 174.266 66.538C174.227 67.7393 173.779 68.8912 172.995 69.8031C172.212 70.715 171.141 71.3323 169.959 71.5528C168.866 71.7776 167.731 71.6766 166.695 71.2624C165.659 70.8481 164.768 70.1389 164.132 69.2226C163.744 68.6394 163.494 67.9752 163.403 67.2808H160.975C160.751 68.3718 160.196 69.3674 159.386 70.1325C158.577 70.8976 157.551 71.3952 156.449 71.5577C155.324 71.7644 154.163 71.6459 153.104 71.2159C152.044 70.7859 151.129 70.0624 150.466 69.1304C149.826 68.1785 149.568 67.021 149.743 65.8875L148.543 65.504C148.193 67.8294 147.718 70.1498 147.62 72.48C147.559 73.4659 147.604 74.4556 147.756 75.4316C147.917 76.3346 148.242 77.189 148.504 78.0725C148.966 79.7036 149.412 81.1454 151.18 81.7037C151.405 81.7729 151.603 81.9126 151.743 82.1022C151.883 82.2918 151.959 82.5214 151.959 82.7571C151.959 82.9929 151.883 83.2225 151.743 83.4121C151.603 83.6017 151.405 83.7414 151.18 83.8106C151.369 83.7523 150.961 84.0096 150.908 84.0485C151.724 85.6747 153.258 86.6408 154.822 87.5729C156.794 88.7428 158.659 89.8205 160.994 90.0002C164.972 90.3254 168.706 88.6117 171.416 85.7524C173.888 83.1892 175.247 79.9852 175.85 76.4802ZM162.354 73.7276C163.762 73.7276 163.758 75.9122 162.354 75.9122C160.951 75.9122 160.931 73.7276 162.354 73.7276V73.7276ZM165.754 82.3785C165.179 83.0103 164.437 83.4668 163.614 83.6952C162.791 83.9237 161.92 83.9149 161.101 83.6698C160.19 83.366 159.381 82.8138 158.767 82.0753C158.153 81.3367 157.757 80.4414 157.624 79.49C157.622 79.4756 157.622 79.4608 157.624 79.4463C157.604 79.3668 157.591 79.2855 157.585 79.2036C157.582 79.0501 157.613 78.8978 157.677 78.7583C157.741 78.6187 157.836 78.4954 157.954 78.3977L158.047 78.3201C158.137 78.2582 158.235 78.2092 158.338 78.1744L158.387 78.1502H158.44H158.537H158.61H165.894C166.183 78.1527 166.46 78.2686 166.664 78.4729C166.869 78.6772 166.984 78.9535 166.987 79.2424C166.924 80.394 166.489 81.4942 165.749 82.3785H165.754Z" fill="white"/>
<path d="M141.992 79.0338L142.466 78.8741C143.182 80.9986 144.646 82.7907 146.585 83.9172L146.256 84.8435C142.99 84.3311 140.414 81.9818 139.131 78.8649C137.549 75.0238 138.495 70.8904 139.35 67.1576C139.422 66.8437 139.493 66.5327 139.562 66.2249L139.562 66.224C140.528 61.9518 141.763 57.745 143.261 53.6288C144.753 49.5207 146.71 45.2043 149.86 41.9652C153.711 38.0059 160.289 36.3459 165.433 38.8154C165.514 38.85 165.6 38.868 165.688 38.8682C165.779 38.8683 165.868 38.8497 165.951 38.8136C166.033 38.7774 166.107 38.7245 166.168 38.6582C166.23 38.5919 166.276 38.5136 166.305 38.4283L166.444 38.0232L166.866 38.0981C167.775 38.2595 168.654 38.5593 169.472 38.9871L170.001 39.2634L169.636 39.7355C169.601 39.7809 169.574 39.8318 169.556 39.8861C169.519 40.0347 169.541 40.1919 169.617 40.325C169.691 40.4538 169.81 40.5503 169.951 40.5961C173.16 41.0752 175.197 43.7855 176.591 46.242C178.271 49.2008 179.371 52.449 180.316 55.6513C181.207 58.5935 182.002 61.5664 182.67 64.5602L182.67 64.5603C183.43 67.9692 184.015 71.6462 183.519 75.2173C183.305 77.1176 182.604 78.9307 181.485 80.4817L181.48 80.4891L181.474 80.4964C180.38 81.9014 178.786 83.2262 177.089 83.6439C176.99 83.6721 176.9 83.7263 176.829 83.801C176.757 83.877 176.707 83.9713 176.685 84.0736C176.663 84.1759 176.669 84.2823 176.703 84.3813C176.738 84.4803 176.798 84.5681 176.879 84.6351L177.422 85.087L176.815 85.4489C176.061 85.8984 175.21 86.1588 174.334 86.208L173.248 86.269L173.908 85.405C174.742 84.3157 175.448 83.1355 176.015 81.8869C176.735 80.2673 177.24 78.5605 177.517 76.8099L177.518 76.8019L177.52 76.794C177.541 76.6834 177.561 76.5711 177.582 76.4553L177.582 76.4527C177.603 76.3387 177.624 76.2213 177.646 76.1046L177.754 75.5428L178.296 75.7246C178.697 75.8589 179.124 75.89 179.54 75.815C179.997 75.7158 180.409 75.472 180.716 75.1199C181.037 74.7428 181.235 74.2758 181.282 73.7825L181.284 73.7553L181.29 73.7285C181.298 73.6872 181.303 73.6452 181.303 73.6031C181.299 73.3562 181.258 73.1113 181.182 72.8763L181.11 72.6522L181.236 72.4538C181.695 71.7357 182.017 70.9393 182.187 70.1046C182.521 68.2373 182.23 66.1454 180.882 64.9005L180.873 64.893L180.874 64.8929C180.514 64.5457 180.077 64.2887 179.599 64.143C179.121 63.9974 178.616 63.967 178.124 64.0543C178.124 64.0544 178.123 64.0544 178.123 64.0545L177.941 64.088L177.354 64.196L177.351 63.5995C177.307 56.9395 174.616 49.4012 168.77 46.2035C168.748 46.1922 168.724 46.1822 168.7 46.1737L168.355 46.0518L168.367 45.6866C168.377 45.3696 168.138 45.1115 167.809 45.0414C167.652 45.0081 167.521 45.031 167.433 45.0807C167.359 45.1232 167.273 45.2083 167.236 45.4054C166.486 49.486 164.324 53.173 161.129 55.8207L161.128 55.8219C159.902 56.8297 158.406 57.8043 156.671 58.0006L156.665 58.0013L156.665 58.0012C155.824 58.086 154.977 58.086 154.136 58.0012L153.07 57.8938L153.837 57.1458C155.322 55.6979 156.476 53.9461 157.221 52.0107C157.237 51.9417 157.241 51.8703 157.232 51.7998C157.223 51.7225 157.198 51.6479 157.16 51.5801C157.121 51.5124 157.07 51.4529 157.009 51.405C156.947 51.3571 156.877 51.3217 156.802 51.301C156.727 51.2802 156.648 51.2744 156.571 51.284C156.493 51.2935 156.419 51.3182 156.351 51.3566C156.283 51.3951 156.224 51.4464 156.176 51.5078C156.128 51.5692 156.092 51.6394 156.072 51.7145L156.064 51.7404L156.055 51.7655C155.101 54.1696 153.449 56.2329 151.311 57.6889L151.242 57.7357L151.162 57.7577C151.093 57.7769 151.031 57.8186 150.988 57.8764L150.934 57.9486L150.858 57.9973C150.003 58.5459 149.085 58.9874 148.122 59.3119M141.992 79.0338L147.961 58.8388M141.992 79.0338L142.466 78.8741C142.398 78.6728 142.435 78.5452 142.489 78.4603C142.552 78.3617 142.673 78.2707 142.839 78.2254C143.177 78.1331 143.506 78.2598 143.627 78.6125L143.627 78.6136C144.256 80.4462 145.535 81.9848 147.222 82.9389M141.992 79.0338L144.1 78.4512C144.69 80.1688 145.889 81.6109 147.47 82.5048M148.122 59.3119C148.122 59.3121 148.121 59.3124 148.12 59.3126L147.961 58.8388M148.122 59.3119C148.123 59.3117 148.123 59.3116 148.124 59.3114L147.961 58.8388M148.122 59.3119C148.061 59.3332 148.003 59.3632 147.95 59.401L147.809 59.502L147.635 59.4935C147.572 59.4904 147.509 59.5011 147.451 59.5249C147.393 59.5486 147.34 59.5848 147.297 59.6308C147.254 59.6769 147.222 59.7318 147.203 59.7917C147.183 59.8515 147.177 59.9149 147.185 59.9773L147.186 59.9883L147.187 59.9992C147.372 62.3855 147.011 64.7342 146.634 67.0223C146.614 67.1447 146.594 67.267 146.574 67.389C146.214 69.567 145.863 71.6897 145.925 73.8296L145.925 73.8299C145.981 75.778 146.555 77.6002 147.17 79.5534L147.173 79.5617L147.175 79.5702C147.484 80.6855 148.119 81.6832 148.999 82.4354L149.628 82.9727L148.86 83.2797C148.537 83.4087 148.248 83.4168 147.95 83.3157C147.75 83.2478 147.538 83.1237 147.337 83.0062C147.298 82.9834 147.26 82.9608 147.222 82.9389M147.961 58.8388C147.853 58.8758 147.752 58.9281 147.659 58.9941C147.524 58.9875 147.388 59.0105 147.263 59.0617C147.137 59.1128 147.024 59.1908 146.931 59.2902C146.839 59.3896 146.769 59.5081 146.727 59.6372C146.685 59.7663 146.672 59.9031 146.688 60.0379C146.878 62.4839 146.478 64.9016 146.078 67.3209C145.72 69.4869 145.361 71.6542 145.426 73.8442C145.484 75.8656 146.077 77.7473 146.686 79.6813L146.693 79.7037C146.965 80.684 147.468 81.5806 148.157 82.3199C148.199 82.3408 148.235 82.3566 148.271 82.3686C148.331 82.3889 148.374 82.397 148.489 82.3512L148.674 82.8155L148.35 83.1956C148.175 83.0461 148.008 82.8885 147.85 82.7232C147.776 82.6827 147.695 82.6357 147.606 82.5835C147.563 82.5584 147.518 82.5321 147.47 82.5048M147.222 82.9389C147.223 82.9393 147.223 82.9397 147.224 82.9401L147.47 82.5048M147.222 82.9389C147.222 82.9386 147.221 82.9383 147.22 82.938L147.47 82.5048M154.186 57.5038C154.342 57.3523 154.493 57.1977 154.642 57.04C154.506 57.0311 154.371 57.0199 154.236 57.0063L154.186 57.5038ZM154.186 57.5038L154.535 57.8618C154.64 57.7599 154.743 57.6567 154.844 57.552C154.625 57.5419 154.405 57.5258 154.186 57.5038ZM177.842 63.0894L177.76 63.1045L177.851 63.5962M177.842 63.0894L178.041 63.595L177.851 63.5962M177.842 63.0894C177.847 63.2589 177.85 63.4279 177.851 63.5962M177.842 63.0894L177.851 63.5962" fill="#020300" stroke="#020300"/>
<path d="M152.19 90.7138C152.19 93.7527 151.33 96.7674 148.994 98.8403C147.522 100.069 145.827 101.003 144.002 101.593C145.201 101.806 146.43 101.938 147.596 102.078C153.95 102.717 160.342 102.915 166.724 102.671C169.691 102.574 172.663 102.413 175.606 102.025C176.656 101.894 177.698 101.709 178.729 101.472C178.942 101.423 179.151 101.37 179.35 101.316C178.811 101.039 178.272 100.758 177.743 100.457C175.784 99.4192 174.136 97.8816 172.964 96.0004C171.726 93.8984 171.255 91.4662 171.085 89.0487C169.415 90.3899 167.469 91.3464 165.386 91.8499C163.304 92.3533 161.136 92.3914 159.037 91.9614C156.667 91.4323 154.564 90.1021 152.544 88.8059C151.808 88.3399 151.128 87.7928 150.514 87.1748V89.8254C150.677 89.7227 150.864 89.6648 151.056 89.6575C151.249 89.6502 151.439 89.6939 151.609 89.7841C151.779 89.8742 151.923 90.0077 152.025 90.171C152.126 90.3342 152.183 90.5215 152.19 90.7138Z" fill="white"/>
<path d="M167.079 60.9067C167.283 60.8388 167.492 60.7757 167.706 60.7271L167.982 60.6689H168.089C168.413 60.6486 168.737 60.6486 169.061 60.6689L169.274 60.7174C169.426 60.7515 169.575 60.7952 169.721 60.8485C169.782 60.8677 169.842 60.8904 169.901 60.9164H169.94C170.095 60.9893 170.25 61.0669 170.425 61.1495C170.676 61.2956 170.974 61.3363 171.254 61.2625C171.535 61.1888 171.775 61.0067 171.921 60.7562C172.067 60.5058 172.108 60.2076 172.034 59.9272C171.96 59.6468 171.778 59.4072 171.527 59.261C170.794 58.8533 169.99 58.5866 169.158 58.4746C168.268 58.3984 167.372 58.5126 166.53 58.8096C166.251 58.8868 166.014 59.0719 165.871 59.3241C165.728 59.5763 165.691 59.8749 165.768 60.1543C165.845 60.4337 166.03 60.6709 166.283 60.8138C166.535 60.9568 166.834 60.9937 167.113 60.9164L167.079 60.9067Z" fill="#020300"/>
<path d="M168.973 64.8828C167.565 64.8828 167.565 67.0674 168.973 67.0674C170.382 67.0674 170.382 64.8828 168.973 64.8828Z" fill="#020300"/>
<path d="M162.354 75.9121C163.757 75.9121 163.762 73.7275 162.354 73.7275C160.945 73.7275 160.931 75.9121 162.354 75.9121Z" fill="#020300"/>
<path d="M155.56 67.0674C156.968 67.0674 156.968 64.8828 155.56 64.8828C154.151 64.8828 154.132 67.0674 155.56 67.0674Z" fill="#020300"/>
<path d="M189.233 103.938C186.591 102.345 183.809 101.025 181.036 99.6655C179.093 98.6946 177.088 97.7237 175.655 96.0198C173.713 93.7041 173.28 90.5292 173.203 87.6068C173.198 87.4579 173.165 87.3113 173.106 87.1747C174.495 85.6739 175.632 83.9573 176.471 82.092C177.2 80.421 177.706 78.6616 177.976 76.8588C178.02 76.6306 178.059 76.3976 178.103 76.1694C178.586 76.3314 179.102 76.3681 179.603 76.2762C180.169 76.1552 180.68 75.8536 181.06 75.417C181.449 74.9613 181.688 74.3968 181.745 73.8004C181.76 73.7253 181.768 73.6489 181.769 73.5723C181.764 73.2738 181.715 72.9777 181.623 72.6936C182.116 71.9221 182.462 71.0662 182.643 70.1692C183.003 68.2274 182.726 65.9166 181.186 64.5039C180.77 64.1018 180.264 63.8042 179.71 63.6354C179.156 63.4667 178.571 63.4316 178.001 63.533L177.816 63.567C177.772 56.8386 175.048 49.0518 168.944 45.7604C168.9 45.7381 168.854 45.7187 168.808 45.7022C168.847 44.4691 166.933 43.9982 166.686 45.3138C165.957 49.2795 163.857 52.8625 160.751 55.4356C159.547 56.4065 158.144 57.324 156.556 57.5036C155.748 57.585 154.935 57.585 154.127 57.5036C155.671 55.9988 156.869 54.1768 157.638 52.1636C157.716 51.8842 157.679 51.5856 157.536 51.3334C157.393 51.0812 157.156 50.8961 156.876 50.8189C156.597 50.7416 156.298 50.7786 156.046 50.9215C155.793 51.0644 155.608 51.3017 155.531 51.5811C154.624 53.8878 153.048 55.8708 151.005 57.2755C150.828 57.324 150.673 57.4299 150.563 57.5765C149.742 58.1033 148.86 58.5272 147.936 58.8386C147.828 58.8757 147.727 58.928 147.635 58.994C147.499 58.9873 147.364 59.0104 147.238 59.0615C147.112 59.1127 146.999 59.1907 146.906 59.2901C146.814 59.3895 146.744 59.5079 146.702 59.6371C146.66 59.7662 146.647 59.9029 146.663 60.0377C147.023 64.6738 145.265 69.208 145.401 73.8441C145.459 75.8733 146.056 77.7811 146.668 79.7036C147.004 80.9149 147.694 81.9985 148.65 82.8153C148.213 82.9707 147.984 82.8153 147.445 82.5046C145.864 81.6108 144.665 80.1687 144.075 78.4511C143.623 77.1258 141.516 77.6938 141.967 79.0336C142.714 81.2676 144.244 83.1558 146.275 84.3494C143.211 83.8639 140.763 81.6599 139.535 78.6744C137.893 74.6888 139.088 70.3634 139.991 66.3341C140.957 62.0822 142.191 57.8956 143.687 53.7996C145.173 49.7072 147.086 45.474 150.174 42.3137C153.899 38.4834 160.256 36.9009 165.18 39.2699C166.438 39.8767 167.55 37.9931 166.283 37.3815C161.354 35.0124 155.026 35.7746 150.641 39.0223C146.697 41.935 144.289 46.508 142.458 50.9451C140.646 55.467 139.185 60.1218 138.087 64.868C137.495 67.3535 137.024 69.8779 136.631 72.4071C136.305 74.5403 136.509 76.7206 137.223 78.7569C138.889 83.461 143.089 87.0631 148.271 86.6019C148.513 86.5821 148.743 86.4837 148.924 86.3216C149.106 86.1595 149.229 85.9425 149.276 85.7038C150.108 86.9564 151.206 88.0105 152.491 88.7913C154.511 90.0875 156.614 91.4176 158.984 91.9468C161.083 92.3768 163.251 92.3387 165.333 91.8352C167.416 91.3318 169.362 90.3753 171.032 89.034C171.202 91.4613 171.673 93.8886 172.911 95.9858C174.083 97.867 175.731 99.4046 177.69 100.442C178.219 100.743 178.758 101.025 179.297 101.302C179.098 101.355 178.889 101.408 178.676 101.457C177.645 101.695 176.603 101.879 175.553 102.01C172.61 102.399 169.638 102.559 166.671 102.656C160.289 102.901 153.897 102.703 147.542 102.064C146.367 101.937 145.148 101.806 143.949 101.578C145.774 100.989 147.469 100.054 148.941 98.8257C151.277 96.7528 152.132 93.7381 152.136 90.6992C152.136 89.2962 149.956 89.2913 149.951 90.6992C149.951 93.2721 149.271 95.7042 147.246 97.4082C145.304 99.0344 142.827 99.6316 140.501 100.423C135.018 102.277 129.676 105.03 125.733 109.36C123.648 111.674 122.002 114.349 120.877 117.254H123.232C125.418 112.229 129.268 108.307 134.062 105.603C136.04 104.504 138.108 103.573 140.244 102.821C142.157 103.607 144.323 103.84 146.353 104.093C149.402 104.476 152.472 104.666 155.541 104.782C162.024 105.03 168.609 105.015 175.063 104.243C177.316 103.972 179.846 103.724 181.861 102.627L181.915 102.588C183.134 103.175 184.343 103.758 185.547 104.394C188.223 105.762 190.731 107.437 193.021 109.384C195.528 111.535 197.508 114.232 198.81 117.268H201.155C198.907 111.394 194.546 107.137 189.233 103.938ZM179.608 73.6111C179.593 73.6787 179.574 73.7452 179.55 73.8101C179.525 73.8538 179.501 73.8975 179.472 73.9412L179.385 74.0286L179.254 74.1062C179.205 74.1062 179.152 74.1354 179.103 74.1499H178.943C178.892 74.1383 178.842 74.1237 178.792 74.1062L178.661 74.0286L178.574 73.9412C178.545 73.8975 178.52 73.8538 178.496 73.8101C178.472 73.7664 178.467 73.7082 178.452 73.6596V73.4994C178.452 73.4509 178.452 73.3975 178.496 73.3489C178.54 73.3004 178.545 73.2616 178.574 73.2179L178.661 73.1305L178.792 73.0528L178.943 73.0091H179.103L179.254 73.0528L179.385 73.1305L179.472 73.2179C179.501 73.2616 179.525 73.3052 179.55 73.3489C179.574 73.4139 179.593 73.4804 179.608 73.548V73.6111ZM148.917 60.8145C149.904 60.4609 150.85 60.002 151.738 59.4455C153.501 59.6154 155.288 59.8969 157.08 59.6542C159.023 59.3872 160.654 58.3629 162.155 57.1638C165.091 54.7759 167.244 51.5632 168.337 47.9401C173.334 50.9354 175.519 57.4502 175.674 63.1835L173.378 63.7466C172.705 62.7839 171.742 62.0624 170.629 61.6883C169.58 61.3405 168.453 61.3049 167.385 61.5859C166.317 61.8669 165.353 62.4523 164.612 63.2709C164.168 63.8092 163.838 64.4318 163.641 65.101H160.853C160.568 64.2872 160.093 63.5528 159.468 62.9579C158.844 62.3629 158.087 61.9245 157.26 61.6786C156.182 61.3399 155.032 61.3062 153.936 61.5812C152.841 61.8563 151.843 62.4294 151.053 63.2369C150.875 63.4325 150.713 63.6419 150.568 63.8631L148.878 63.3243C148.942 62.4908 148.955 61.6543 148.917 60.8193V60.8145ZM172.1 66.5574C172.105 66.8793 172.047 67.1991 171.93 67.4992V67.5769C171.896 67.6545 171.857 67.7274 171.819 67.805C171.78 67.8827 171.726 67.9652 171.678 68.0429C171.678 68.0429 171.576 68.1885 171.561 68.2177C171.164 68.7323 170.621 69.1148 170.002 69.3148C169.35 69.5404 168.645 69.5686 167.977 69.3959C167.308 69.2232 166.705 68.8573 166.244 68.3439C166.161 68.2674 166.092 68.177 166.04 68.0769C165.952 67.9312 165.865 67.7905 165.792 67.64L165.763 67.5866C165.765 67.5705 165.765 67.5541 165.763 67.538C165.734 67.4506 165.7 67.3633 165.676 67.271C165.651 67.1788 165.637 67.1254 165.622 67.0526C165.608 66.9797 165.622 66.9409 165.588 66.8827C165.554 66.8244 165.588 66.8827 165.588 66.8341C165.578 66.6595 165.578 66.4844 165.588 66.3098V66.2224C165.59 66.1966 165.59 66.1706 165.588 66.1448C165.588 66.0719 165.622 65.9991 165.637 65.9215L165.714 65.6545C165.714 65.6302 165.753 65.5525 165.763 65.5185C165.833 65.3499 165.918 65.1875 166.015 65.0331C166.392 64.5023 166.911 64.088 167.512 63.8374C168.113 63.5868 168.772 63.5099 169.415 63.6155C170.16 63.7218 170.846 64.0819 171.357 64.635C171.592 64.8784 171.78 65.1632 171.911 65.4748L171.984 65.6836C172.018 65.7904 172.047 65.8972 172.071 66.0088C172.095 66.1205 172.095 66.1351 172.105 66.1982C172.115 66.2613 172.1 66.504 172.1 66.5574ZM158.896 66.5574C158.884 67.1652 158.669 67.7515 158.284 68.2225C157.852 68.7305 157.285 69.1058 156.648 69.3051C155.962 69.5339 155.227 69.5703 154.522 69.4102C153.818 69.2502 153.17 68.8998 152.651 68.3973C152.21 67.9632 151.94 67.385 151.89 66.7682C151.84 66.1514 152.014 65.5373 152.379 65.0379C152.811 64.5063 153.376 64.0984 154.016 63.8554C154.657 63.6124 155.35 63.5431 156.026 63.6544C156.823 63.7706 157.56 64.1439 158.124 64.7175C158.602 65.2121 158.875 65.8697 158.887 66.5574H158.896ZM171.42 85.8203C168.711 88.6796 164.976 90.3933 160.999 90.0681C158.663 89.8787 156.798 88.801 154.827 87.6408C153.263 86.7087 151.728 85.7426 150.913 84.1164C150.966 84.0775 151.398 83.8202 151.185 83.8785C151.41 83.8093 151.607 83.6696 151.748 83.48C151.888 83.2904 151.963 83.0608 151.963 82.8251C151.963 82.5893 151.888 82.3597 151.748 82.1701C151.607 81.9805 151.41 81.8408 151.185 81.7716C149.417 81.2133 148.97 79.7715 148.509 78.1404C148.261 77.2569 147.921 76.4025 147.761 75.4995C147.609 74.5235 147.563 73.5338 147.625 72.5479C147.722 70.2177 148.198 67.8973 148.548 65.5719L149.747 65.9554C149.573 67.0889 149.831 68.2464 150.471 69.1983C151.133 70.1303 152.048 70.8538 153.108 71.2838C154.168 71.7138 155.329 71.8323 156.454 71.6256C157.556 71.4631 158.581 70.9655 159.391 70.2004C160.201 69.4353 160.755 68.4397 160.98 67.3487H163.408C163.499 68.0431 163.748 68.7073 164.136 69.2905C164.772 70.2068 165.664 70.9161 166.7 71.3303C167.736 71.7446 168.871 71.8455 169.964 71.6207C171.154 71.3994 172.233 70.7754 173.018 69.8535C173.803 68.9316 174.247 67.7678 174.276 66.5574C174.275 66.4695 174.267 66.3818 174.252 66.2952C174.252 66.1302 174.252 65.97 174.203 65.8098L175.66 65.4603C175.767 66.4312 177.16 66.6399 177.67 65.8292C177.617 65.9117 177.578 65.97 177.544 66.0137C177.585 65.9848 177.631 65.9649 177.68 65.9554C177.768 65.9554 177.87 65.8778 177.957 65.8486C178.293 65.7086 178.661 65.6633 179.02 65.7176C179.339 65.8255 179.628 66.0071 179.863 66.2475C180.099 66.4879 180.274 66.7803 180.375 67.1011C180.596 67.7262 180.69 68.389 180.652 69.0508C180.613 69.7126 180.443 70.3602 180.152 70.9556L180.094 71.0624L179.924 70.9848C179.406 70.8065 178.848 70.7866 178.319 70.9275C177.791 71.0685 177.316 71.3639 176.957 71.7761C176.558 72.2449 176.318 72.8278 176.272 73.4412C176.245 73.7575 176.281 74.076 176.379 74.3781C176.287 74.5168 176.218 74.6692 176.175 74.8296C176.035 75.3793 175.93 75.937 175.859 76.4996C175.247 79.9851 173.887 83.1891 171.411 85.8009L171.42 85.8203Z" fill="#020300"/>
<path d="M181.09 80.2036C180.031 81.5628 178.521 82.7959 176.971 83.1746C175.607 83.5047 176.185 85.6019 177.554 85.2815C179.196 84.8834 180.531 83.8542 181.755 82.7037C183.097 81.3996 184.089 79.7785 184.639 77.9899C185.844 74.2616 185.455 70.1498 184.771 66.3632C184.173 63.0281 183.251 59.7416 182.342 56.4793C181.418 52.9174 180.124 49.4617 178.482 46.1682C176.816 42.9982 174.252 39.5466 170.45 38.998C170.17 38.9322 169.876 38.9747 169.626 39.117C169.376 39.2593 169.19 39.4909 169.104 39.765C169.03 40.0444 169.069 40.3418 169.212 40.5927C169.356 40.8436 169.593 41.0277 169.872 41.1049C172.844 41.5321 174.786 44.0516 176.185 46.508C177.836 49.4208 178.924 52.6199 179.866 55.8142C180.73 58.727 181.546 61.7077 182.211 64.6884C182.969 68.0866 183.552 71.6935 183.051 75.1742C182.841 76.9916 182.166 78.7239 181.09 80.2036Z" fill="#020300"/>
<path d="M177.534 65.9941C177.418 66.0767 177.398 66.1738 177.534 65.9941V65.9941Z" fill="#020300"/>
<path d="M179.385 73.1355L179.253 73.0579L179.103 73.0142H178.943L178.792 73.0579L178.661 73.1355L178.574 73.2229C178.544 73.2666 178.52 73.3103 178.496 73.354C178.472 73.3977 178.467 73.4559 178.452 73.5045V73.6647C178.452 73.7132 178.452 73.7666 178.496 73.8152C178.54 73.8637 178.544 73.9025 178.574 73.9462L178.661 74.0336L178.792 74.1113C178.841 74.1287 178.892 74.1433 178.943 74.155H179.103C179.151 74.155 179.205 74.155 179.253 74.1113L179.385 74.0336L179.472 73.9462C179.501 73.9025 179.525 73.8589 179.55 73.8152C179.574 73.7502 179.593 73.6837 179.608 73.6161V73.553C179.593 73.4854 179.574 73.4189 179.55 73.354C179.525 73.3103 179.501 73.2666 179.472 73.2229L179.385 73.1355Z" fill="white"/>
<path d="M165.899 78.1113H158.615H158.542H158.445H158.391L158.343 78.1356C158.239 78.1703 158.141 78.2194 158.051 78.2812L157.959 78.3589C157.841 78.4566 157.746 78.5798 157.682 78.7194C157.618 78.859 157.587 79.0113 157.59 79.1648C157.596 79.2467 157.609 79.328 157.629 79.4075C157.627 79.422 157.627 79.4367 157.629 79.4512C157.762 80.4025 158.157 81.2979 158.772 82.0364C159.386 82.7749 160.194 83.3272 161.106 83.631C161.924 83.8761 162.795 83.8849 163.619 83.6564C164.442 83.4279 165.183 82.9715 165.758 82.3397C166.509 81.4456 166.945 80.3304 167.001 79.1648C166.989 78.881 166.867 78.613 166.662 78.4168C166.457 78.2205 166.183 78.1111 165.899 78.1113V78.1113ZM162.675 81.6746C162.715 81.671 162.756 81.671 162.796 81.6746C162.796 81.6746 162.728 81.6746 162.675 81.6746ZM164.219 80.8202L164.185 80.859L164.005 81.0483L163.84 81.1988C163.721 81.2796 163.598 81.3542 163.471 81.4221L163.393 81.4707H163.359L163.243 81.5144C163.098 81.5629 162.951 81.6018 162.801 81.6309H162.709H162.573C162.43 81.6382 162.288 81.6382 162.145 81.6309H162.097L161.883 81.5872C161.742 81.5532 161.611 81.4998 161.47 81.4561C161.393 81.4173 161.315 81.3833 161.242 81.3396L161.048 81.2231L160.98 81.1746L160.849 81.0726L160.63 80.8639C160.574 80.7941 160.514 80.7276 160.45 80.6648L160.402 80.592C160.334 80.4901 160.276 80.3784 160.212 80.2716H164.559L164.5 80.393C164.394 80.558 164.301 80.6843 164.219 80.8202Z" fill="#020300"/>
<path d="M123.99 55.4358C124.961 55.7902 126.602 56.0572 127.132 57.0718C127.729 58.2223 127.676 59.7127 127.948 60.9554C128.171 61.9749 129.866 62.0186 130.055 60.9554C130.288 59.6544 130.381 58.2175 130.939 56.999C131.497 55.7805 132.848 55.7125 134.018 55.5669C134.305 55.5595 134.579 55.442 134.782 55.2388C134.986 55.0355 135.103 54.7619 135.111 54.4746C135.106 54.1864 134.989 53.9115 134.785 53.7078C134.581 53.504 134.306 53.3873 134.018 53.3823C132.979 53.3386 131.648 53.2998 130.881 52.4842C130.318 51.772 130.032 50.8808 130.075 49.9744C130.075 49.9259 130.075 49.8725 130.075 49.8191C130.079 49.7181 130.071 49.617 130.05 49.5181V48.8142C130.05 47.4063 127.865 47.4063 127.865 48.8142C127.865 49.154 127.865 49.4938 127.889 49.8385C127.831 50.7269 127.807 51.8871 127.093 52.5376C126.379 53.1881 125.15 53.1736 124.271 53.2804C124.006 53.2822 123.751 53.38 123.552 53.5555C123.354 53.7311 123.225 53.9725 123.191 54.2354C123.157 54.4982 123.219 54.7645 123.365 54.9852C123.512 55.2059 123.734 55.3659 123.99 55.4358V55.4358ZM129.332 54.0377C129.553 54.263 129.801 54.4603 130.07 54.6251C129.738 54.8854 129.455 55.2026 129.234 55.562C129.152 55.6979 129.079 55.8387 129.011 55.9795C128.963 55.897 128.924 55.8096 128.87 55.7319C128.587 55.3162 128.224 54.9613 127.802 54.6882C128.109 54.5307 128.392 54.3295 128.642 54.0911C128.78 53.9565 128.908 53.8121 129.026 53.659C129.122 53.7909 129.226 53.9174 129.336 54.0377H129.332Z" fill="#020300"/>
<path d="M190.515 81.8591C191.486 82.1601 193.084 82.3737 193.706 83.1844C193.947 83.6398 194.111 84.1319 194.191 84.6408C194.322 85.2864 194.405 85.9418 194.565 86.5826C194.823 87.5923 196.449 87.6506 196.673 86.5826C196.92 85.4175 197.032 84.1553 197.644 83.097C198.173 82.1601 199.718 82.1261 200.737 82.0096C201.027 82.0096 201.305 81.8945 201.51 81.6897C201.715 81.4848 201.83 81.207 201.83 80.9173C201.83 80.6276 201.715 80.3498 201.51 80.1449C201.305 79.9401 201.027 79.825 200.737 79.825C199.732 79.791 198.46 79.7765 197.625 79.1551C196.93 78.6696 196.76 77.8007 196.717 76.9657C196.719 76.935 196.719 76.9041 196.717 76.8734C196.726 76.7928 196.726 76.7113 196.717 76.6307C196.717 76.4171 196.717 76.2035 196.717 76.0045C196.717 74.5966 194.531 74.5918 194.531 76.0045C194.531 76.2909 194.531 76.5822 194.555 76.8734C194.497 77.6647 194.434 78.6308 193.754 79.1162C192.982 79.6745 191.773 79.6454 190.87 79.7376C189.617 79.8299 189.277 81.4756 190.515 81.8591ZM196.032 80.6746C196.184 80.807 196.346 80.9271 196.517 81.0338C196.315 81.1978 196.132 81.3852 195.974 81.5921C195.841 81.7685 195.722 81.9552 195.619 82.1504C195.512 81.9694 195.388 81.7988 195.25 81.6406C195.058 81.4291 194.841 81.2417 194.604 81.0824C194.775 80.9951 194.937 80.8928 195.09 80.7765C195.287 80.6201 195.466 80.4427 195.624 80.2474C195.747 80.4019 195.883 80.5449 196.032 80.6746Z" fill="#020300"/>
<path d="M29.1254 65.9668L29.4322 66.5247C29.6019 66.8104 29.8771 67.0179 30.1985 67.1024C30.5198 67.187 30.8615 67.1417 31.1498 66.9765C31.4312 66.8029 31.6348 66.5272 31.7179 66.2071C31.801 65.887 31.7574 65.5471 31.596 65.2584L29.4935 61.3536L29.1868 60.7958C29.0181 60.5105 28.7439 60.303 28.4234 60.2185C28.103 60.1339 27.7622 60.179 27.4747 60.344C27.1913 60.5157 26.9857 60.791 26.9014 61.1116C26.8171 61.4322 26.8607 61.773 27.023 62.0621L29.1254 65.9668Z" fill="#020300"/>
<path d="M36.9664 66.2904C37.2974 66.2847 37.6132 66.1506 37.8473 65.9165C38.0814 65.6823 38.2154 65.3664 38.2212 65.0353L38.355 60.5727C38.355 60.3607 38.355 60.1487 38.355 59.9368C38.355 59.6039 38.2228 59.2846 37.9875 59.0492C37.7522 58.8139 37.4331 58.6816 37.1003 58.6816C36.7675 58.6816 36.4483 58.8139 36.213 59.0492C35.9777 59.2846 35.8455 59.6039 35.8455 59.9368C35.8009 61.415 35.7507 62.8988 35.7061 64.3994V65.0409C35.7104 65.3728 35.845 65.6898 36.0807 65.9235C36.3164 66.1572 36.6345 66.289 36.9664 66.2904V66.2904Z" fill="#020300"/>
<path d="M26.0741 72.1418C26.2356 72.1009 26.3874 72.0283 26.5205 71.9282C26.6537 71.8281 26.7656 71.7024 26.8497 71.5586C26.9338 71.4148 26.9884 71.2556 27.0103 71.0905C27.0323 70.9253 27.0212 70.7574 26.9776 70.5966C26.8814 70.2916 26.6848 70.0282 26.4199 69.8491L22.8563 67.2608L22.3544 66.8982C22.2094 66.8132 22.0488 66.758 21.8822 66.736C21.7155 66.7139 21.5461 66.7255 21.384 66.7699C21.225 66.8138 21.0763 66.8885 20.9462 66.9899C20.8162 67.0914 20.7073 67.2174 20.626 67.3609C20.5447 67.5044 20.4925 67.6626 20.4723 67.8263C20.4521 67.99 20.4644 68.1561 20.5085 68.3151C20.607 68.6189 20.8031 68.8816 21.0662 69.0626L24.6242 71.6509L25.1317 72.0135C25.4164 72.1795 25.7554 72.2256 26.0741 72.1418Z" fill="#020300"/>
<path d="M95.6795 33.9158C96.7998 32.7096 97.5507 31.2073 97.8433 29.5871C97.9313 29.266 97.8881 28.9232 97.7234 28.6339C97.5587 28.3447 97.2859 28.1327 96.9649 28.0447C96.644 27.9567 96.3012 27.9998 96.012 28.1645C95.7228 28.3293 95.5109 28.6022 95.4229 28.9233C95.3572 29.2774 95.2715 29.6275 95.1664 29.972C95.1106 30.1393 95.0493 30.3011 94.9879 30.4629V30.4963L94.8875 30.7139C94.7361 31.0168 94.5647 31.3094 94.3745 31.5897L94.2462 31.7682C94.1403 31.8965 94.0343 32.0192 93.9172 32.1419C93.7017 32.3714 93.4707 32.5858 93.2257 32.7834L93.0082 32.9396C92.8687 33.0345 92.7293 33.1237 92.5843 33.2074C92.4393 33.291 92.3111 33.358 92.1717 33.4249L91.9207 33.5421C91.5944 33.6673 91.2611 33.7735 90.9225 33.86C90.6032 33.9501 90.3321 34.1618 90.1673 34.4497C90.0025 34.7376 89.9573 35.0787 90.0413 35.3996V35.3996C91.1009 35.4443 92.1754 35.5205 93.2647 35.6283C94.1678 35.2104 94.9863 34.6299 95.6795 33.9158V33.9158Z" fill="#020300"/>
<path d="M90.0078 35.4331C90.1061 35.7471 90.3212 36.0114 90.6087 36.1712C90.8962 36.3311 91.2341 36.3744 91.5526 36.2922C92.1305 36.1403 92.6912 35.929 93.2257 35.6618C92.14 35.5577 91.0674 35.4815 90.0078 35.4331Z" fill="#020300"/>
</svg>
