<svg width="441" height="99" viewBox="0 0 441 99" fill="none" xmlns="http://www.w3.org/2000/svg">
<path d="M1.7915 28.4881H6.09011V4.41585H14.3747V0.117237H1.7915V28.4881Z" fill="#020300"/>
<path d="M48.6076 33.6464L50.796 28.9961C43.7619 28.0973 40.0104 25.9089 40.0104 21.5712C40.0104 18.445 42.0424 15.5922 45.3641 12.8958C48.2168 10.5511 50.6397 9.5351 56.2669 8.90985L55.4072 4.1423C46.0675 5.70543 33.0154 6.44792 24.848 6.76055L25.4732 11.6453C30.7488 11.2546 35.5554 10.8638 42.3551 10.1604C37.7829 13.5992 35.1647 17.6243 35.1647 21.6103C35.1647 28.449 40.2839 32.5131 48.6076 33.6464ZM54.7038 19.1093L57.3611 17.3117C56.1888 15.1233 55.0164 13.4039 53.4142 11.8407L50.796 13.5602C52.4373 15.1624 53.4533 16.7255 54.7038 19.1093ZM50.5615 21.6494L53.2188 19.8127C52.0074 17.5462 50.9914 15.9049 49.311 14.2245L46.7318 15.9439C48.2559 17.6243 49.3501 19.2265 50.5615 21.6494Z" fill="#020300"/>
<path d="M69.1069 17.5071C73.6791 17.468 79.4626 17.1944 84.9336 16.5692C85.6761 17.8979 86.4186 19.1093 87.2783 20.2816C85.7933 19.9299 84.2693 19.7345 82.5889 19.7345C76.1801 19.7345 71.5688 22.5873 71.5688 26.6514C71.5688 32.1224 77.2352 34.3107 84.7382 34.3107C86.9657 34.3107 90.131 34.1544 92.1631 33.8809L91.4988 29.2306C89.623 29.5823 86.9657 29.8167 84.8945 29.8167C79.4236 29.8167 76.3755 28.6444 76.3755 26.5342C76.3755 24.932 78.642 23.4079 82.7843 23.4079C84.5037 23.4079 86.145 23.6033 87.7863 24.0722C89.4276 24.5412 90.639 25.0883 92.2803 26.1825L95.094 22.6263C93.0619 21.1023 91.1471 18.7576 89.4667 15.983C92.4366 15.5532 95.1721 15.0061 97.3214 14.3417L95.9928 10.0431C93.8435 10.7856 90.8344 11.4109 87.3174 11.9189C86.8875 10.9028 86.4577 9.84773 86.0669 8.79262C88.9587 8.36276 91.616 7.85474 93.609 7.22949L92.4366 3.08719C90.3655 3.75152 87.6691 4.29861 84.7382 4.68939C84.3474 3.28258 83.9957 1.83668 83.7613 0.429863L79.0328 1.36774C79.4236 2.6964 79.7753 3.98599 80.1661 5.19741C77.0398 5.47096 73.7572 5.54912 70.7091 5.47096L71.2171 9.84773C74.148 9.88681 77.8995 9.69142 81.612 9.33971C82.0027 10.3948 82.4326 11.4499 82.9015 12.466C78.2903 12.8958 73.2883 13.1303 68.677 12.974L69.1069 17.5071Z" fill="#020300"/>
<path d="M123.028 33.7246C130.804 33.7246 137.057 29.1133 137.057 22.7826C137.057 17.6634 132.563 14.0682 126.115 14.0682C124.708 14.0682 123.34 14.2636 121.933 14.6544C125.177 11.7626 128.03 9.02709 131.508 5.27557L128.928 2.11023C123.418 3.12627 118.104 3.51705 113.258 3.5952L114.079 8.12829C117.088 8.01105 120.761 7.65935 123.848 7.19041C118.26 13.3257 112.242 18.6403 108.061 21.7666L111.343 25.3227C113.493 23.1344 114.821 22.0011 116.658 20.8287C119.159 19.2265 122.285 18.2496 125.372 18.2496C129.515 18.2496 132.25 20.3207 132.25 22.8999C132.25 24.8147 131.273 26.456 129.71 27.6284C127.717 24.4239 124.747 22.6263 121.464 22.6263C117.83 22.6263 115.29 24.8147 115.29 27.6674C115.29 31.3017 118.651 33.7246 123.028 33.7246ZM119.862 27.8237C119.862 27.1203 120.566 26.5342 121.66 26.5342C123.262 26.5342 124.786 27.5502 125.919 29.3869C125.099 29.5432 124.278 29.6604 123.418 29.6604C121.23 29.6604 119.862 28.9179 119.862 27.8237Z" fill="#020300"/>
<path d="M148.835 35.2877H161.418V6.91686H157.12V30.9891H148.835V35.2877Z" fill="#020300"/>
<path d="M193.894 26.8859H198.544C198.622 25.5963 198.622 24.6193 198.622 23.0953C198.622 22.1965 198.583 21.2195 198.466 20.1644C201.084 19.1093 204.211 17.976 207.962 16.7646L206.165 12.3878C203.234 13.5602 200.381 14.7716 197.685 15.9439C196.786 13.5602 194.832 12.1924 191.901 12.1924C190.885 12.1924 189.791 12.4269 188.736 12.8568C189.361 11.8798 189.908 10.9419 190.455 9.92589C194.636 9.57418 198.818 9.10524 202.335 8.51907L201.749 3.94691C198.779 4.57216 195.731 5.0411 192.722 5.35373C193.23 4.1423 193.738 2.85272 194.207 1.56313L189.634 0.195392C189.009 2.22746 188.384 4.06414 187.68 5.78359C184.437 5.97898 181.311 6.05714 178.458 6.05714L178.888 10.6684C180.92 10.5902 183.186 10.473 185.609 10.3167C183.499 14.2636 181.037 17.3508 178.067 20.0081L181.858 22.8217C183.499 20.6724 184.359 19.6955 185.883 18.4059C187.485 16.9991 189.322 16.1003 191.041 16.1003C192.292 16.1003 193.151 16.6474 193.581 17.7415C188.071 20.3989 184.046 23.2907 184.046 27.2376C184.046 31.4189 187.524 33.5683 194.793 33.5683C198.388 33.5683 202.296 33.2947 205.539 32.8648L204.68 28.0191C201.319 28.7225 197.255 29.1133 194.519 29.1133C190.377 29.1133 188.814 28.1755 188.814 26.7296C188.814 25.2837 190.494 23.7205 194.128 21.9229V22.5482C194.128 23.8378 194.011 25.44 193.894 26.8859Z" fill="#020300"/>
<path d="M231.417 18.484H252.675V5.15834H247.712C248.572 3.67336 249.236 2.46193 249.784 1.17235L245.641 0C245.172 1.60221 244.547 3.16534 243.609 5.15834H240.248C239.584 3.28258 238.959 1.95391 237.943 0.234471L234.191 1.40682C234.973 2.57917 235.559 3.71244 236.145 5.15834H231.417V18.484ZM219.263 30.442C222.859 29.3478 227.04 27.7456 231.026 25.948L230.752 21.962C228.72 22.7826 227.822 23.1344 226.884 23.4079V12.974H230.479V8.90985H226.884V1.01604H222.82V8.90985H218.521V12.974H222.82V24.7366C220.944 25.3227 219.302 25.7917 217.857 26.0652L219.263 30.442ZM235.246 10.473V7.97197H240.17V10.473H235.246ZM243.844 10.473V7.97197H248.846V10.473H243.844ZM235.246 15.6704V13.0522H240.17V15.6704H235.246ZM243.844 15.6704V13.0522H248.846V15.6704H243.844ZM233.058 35.2877H237.044V33.7636H247.204V35.2877H251.19V20.2816H233.058V35.2877ZM237.044 25.5572V23.0953H247.204V25.5572H237.044ZM237.044 30.7937V28.1754H247.204V30.7937H237.044Z" fill="#020300"/>
<path d="M278.433 35.2095L283.24 33.6855C281.403 27.3548 279.567 22.1965 277.261 16.1393L278.707 15.5532C283.435 13.7165 286.64 12.7004 288.633 12.7004C290.899 12.7004 292.502 13.8728 292.502 16.1003C292.502 18.1714 290.313 19.6955 286.992 19.6955C285.663 19.6955 284.139 19.461 283.045 19.1093L284.412 24.0332C285.389 24.2285 286.405 24.3458 287.578 24.3458C293.205 24.3458 297.425 21.1023 297.425 16.2566C297.425 11.3327 294.143 8.36276 288.828 8.36276C287.851 8.36276 286.796 8.47999 285.663 8.71446L287.656 5.08018C284.53 3.2435 281.911 2.26654 278.433 1.32866L276.479 5.23649C279.645 6.21345 282.107 7.15133 284.999 8.87078C282.654 9.41787 279.957 10.3167 276.988 11.3718C276.519 11.5281 276.05 11.6844 275.581 11.8798C274.33 8.71446 273.08 5.78359 271.829 3.28258L267.257 5.15834C268.625 7.77658 269.836 10.3948 271.087 13.482C268.39 14.459 265.772 15.4359 263.427 16.2957L265.577 20.8678C267.452 20.0862 269.993 19.0311 272.806 17.8979C274.877 23.447 276.831 29.1915 278.433 35.2095Z" fill="#020300"/>
<path d="M323.743 33.7246C329.487 33.7246 334.568 30.7155 338.28 25.7526L335.662 20.5552C332.965 25.6744 328.159 28.9961 323.899 28.9961C320.578 28.9961 319.249 27.0031 319.249 22.47C319.249 20.0472 319.366 15.5141 319.483 12.8958C319.601 10.3557 319.757 5.08018 319.835 1.71945L314.559 1.68037C314.638 5.00202 314.638 10.5511 314.559 13.1694C314.481 16.1393 314.364 20.6724 314.364 22.8608C314.364 29.7386 317.06 33.7246 323.743 33.7246Z" fill="#020300"/>
<path d="M369.813 33.6464L372.001 28.9961C364.85 28.0973 361.216 25.9089 361.216 21.5712C361.216 18.445 363.248 15.5922 366.569 12.8958C369.422 10.5511 371.845 9.5351 377.472 8.90985L376.612 4.1423C367.273 5.70543 354.221 6.44792 346.053 6.76055L346.678 11.6453C351.954 11.2546 356.761 10.8638 363.56 10.1604C358.988 13.5992 356.37 17.6243 356.37 21.6103C356.37 28.449 361.489 32.5131 369.813 33.6464Z" fill="#020300"/>
<path d="M0 98.2472H4.53308V96.0979H22.0402V98.2472H26.5732V68.743H13.8728C14.5762 67.1408 15.1624 65.6559 15.7095 63.8583L10.5511 63.0376C10.1994 64.8743 9.73049 66.5547 8.98801 68.743H0V98.2472ZM4.53308 76.5978V72.4946H22.0402V76.5978H4.53308ZM4.53308 84.2962V80.193H22.0402V84.2962H4.53308ZM4.53308 92.2682V87.8914H22.0402V92.2682H4.53308Z" fill="#020300"/>
<path d="M46.2687 98.1299C53.42 95.3163 57.1715 89.9626 58.3439 80.9746H64.6355C64.4401 85.195 64.1665 88.4776 63.7367 90.7832C63.4631 92.5417 62.8379 93.0498 61.1966 93.0498C60.1415 93.0498 58.6174 92.8153 56.8589 92.4245L57.7186 97.1139C58.891 97.3093 61.0403 97.4656 62.6425 97.4656C65.6124 97.4656 67.2537 96.4105 67.9181 94.0267C68.5433 91.8774 69.0123 86.3283 69.2467 78.9425C70.2237 79.8804 71.865 81.2481 72.6075 81.7952L75.5774 77.8092C70.1846 73.9796 65.7688 68.8994 63.3068 63.6238L58.9301 65.2651C61.0012 69.3683 63.9321 73.4325 67.2537 76.9104H49.9421C52.7557 73.4715 54.905 69.5246 56.1946 65.5386L51.8569 64.0927C49.6294 70.5407 45.9952 75.5817 40.9541 79.0988L43.8458 82.694C45.6434 81.3653 47.0503 80.1148 48.3398 78.708V80.9746H53.889C53.0292 87.8914 49.5903 92.151 43.1034 94.3784L46.2687 98.1299Z" fill="#020300"/>
<path d="M105.188 72.221L107.103 68.0006C103.117 65.8122 99.2485 64.6398 95.2234 63.9755L93.504 67.8833C97.6463 68.8212 101.163 69.9936 105.188 72.221ZM97.7635 97.2702C108.197 95.9806 113.668 92.659 113.668 86.0157V85.8203C113.551 80.8573 109.409 77.8874 103.821 77.9655C100.655 78.0437 96.7865 79.2942 93.8947 81.5217C94.4418 77.8483 94.8717 73.9405 94.9889 70.8142L90.1042 70.3843C90.026 76.0116 89.518 82.0297 88.6192 86.7191L92.2535 88.4776C95.536 84.6479 99.5611 82.3814 103.508 82.2641C106.673 82.186 108.666 83.71 108.705 85.9766C108.744 90.0407 103.508 92.3463 94.7935 93.0498L97.7635 97.2702Z" fill="#020300"/>
<path d="M140.907 96.684C146.651 96.684 151.732 93.675 155.444 88.7121L152.826 83.5147C150.129 88.6339 145.323 91.9556 141.063 91.9556C137.742 91.9556 136.413 89.9626 136.413 85.4295C136.413 83.0066 136.53 78.4735 136.647 75.8553C136.765 73.3152 136.921 68.0396 136.999 64.6789L131.723 64.6398C131.802 67.9615 131.802 73.5106 131.723 76.1289C131.645 79.0988 131.528 83.6319 131.528 85.8203C131.528 92.698 134.224 96.684 140.907 96.684Z" fill="#020300"/>
<path d="M185.358 97.6219L189.188 93.8313C183.522 88.5948 180.239 86.4846 175.862 83.7882C173.01 82.0297 172.423 81.5607 172.423 80.8182C172.423 80.193 173.049 79.5287 175.393 77.7701C179.887 74.3312 182.896 71.9475 187.117 67.2972L182.818 64.0537C179.184 68.704 175.706 71.7521 171.329 75.191C168.047 77.8092 166.796 79.0207 166.796 80.7401C166.796 82.7331 167.89 83.8663 171.173 86.0938C176.839 89.8453 179.887 92.0728 185.358 97.6219Z" fill="#020300"/>
<path d="M223.271 98.677C224.365 97.2702 225.381 95.5508 226.241 93.6359L226.749 97.5828C227.687 97.7001 229.054 97.8173 229.992 97.8173C232.493 97.8173 233.626 96.9967 234.017 94.8474C234.603 91.3694 234.877 84.6088 234.877 71.1659H229.797V63.4675H226.045V71.3613H223.974V69.7591H217.917V67.727C219.441 67.5707 221.786 67.2581 223.505 66.9454L221.551 63.8583C217.604 64.718 212.993 65.2651 208.851 65.4214C209.046 64.7962 209.163 64.2491 209.242 63.702L205.178 62.9204C204.005 70.0326 202.051 75.8944 199.355 80.4275L200.996 84.9215C201.973 83.3974 202.559 82.4205 203.145 81.2872V98.2472H206.975V72.2601C207.757 69.7591 208.265 67.8052 208.773 65.6949L209.672 68.4304C211.039 68.3523 212.563 68.2741 214.478 68.0787V69.7591H208.03V72.729H214.478V74.4876H209.203V85.8594H214.478V87.6179H208.851V90.5878H214.478V92.6199C212.798 92.7762 211.352 92.8544 208.108 93.0498L208.929 96.645C212.641 96.3323 216.94 95.7462 220.965 95.0427C220.731 95.3945 220.496 95.7462 220.184 96.0979L223.271 98.677ZM217.917 74.4876V72.729H223.193V74.4876H217.917ZM229.015 93.7532C228.116 93.7532 227.257 93.6359 226.319 93.4405C228.312 88.7511 228.976 84.9215 229.445 75.0737H231.438C231.321 83.5537 231.086 88.9075 230.657 92.2291C230.5 93.4405 230.188 93.7532 229.015 93.7532ZM223.622 90.0798V87.6179H217.917V85.8594H223.271V75.2691H225.889C225.772 81.4826 224.99 86.5628 223.622 90.0798ZM212.173 79.0597V76.9886H214.595V79.0597H212.173ZM217.8 79.0597V76.9886H220.301V79.0597H217.8ZM212.173 83.3583V81.2481H214.595V83.3583H212.173ZM217.8 83.3583V81.2481H220.301V83.3583H217.8ZM217.917 92.3073V90.5878H223.427C223.232 91.0568 223.075 91.4085 222.88 91.7602C221.004 92.0337 219.519 92.19 217.917 92.3073Z" fill="#020300"/>
<path d="M258.73 78.1609C261.661 78.2391 265.061 78.2 268.383 78.0046C268.422 78.7471 268.422 79.4896 268.422 80.193C268.422 87.8133 267.523 91.9165 261.935 96.1369L266.859 98.2472C271.861 94.1049 273.228 90.5487 273.228 80.8964C273.228 79.8804 273.228 78.7862 273.189 77.6138C275.378 77.3794 277.41 77.1058 279.129 76.7541L278.621 72.0647C276.98 72.4555 275.104 72.8072 272.994 73.0807C272.877 70.228 272.681 67.1799 272.486 64.0146L267.523 64.3663C267.836 67.727 268.07 70.7751 268.226 73.5106C265.1 73.706 261.739 73.7842 258.418 73.6278L258.73 78.1609ZM251.579 96.0588L255.291 94.6129C255.174 93.0107 255.487 91.4866 255.995 90.0798C256.464 88.7512 257.011 87.5397 258.222 85.4686L255.721 82.6549C254.901 84.1008 254.041 85.8203 253.455 87.3834C253.259 86.2111 253.22 84.8433 253.22 83.4365C253.22 79.9976 253.65 74.9565 255.096 66.7501L250.289 66.0076C249.352 72.9244 248.765 79.6068 248.765 82.8503C248.765 87.8914 249.547 92.19 251.579 96.0588Z" fill="#020300"/>
<path d="M303.78 96.684C311.556 96.684 317.809 92.0728 317.809 85.7421C317.809 80.6229 313.315 77.0277 306.867 77.0277C305.46 77.0277 304.093 77.223 302.686 77.6138C305.929 74.722 308.782 71.9866 312.26 68.235L309.681 65.0697C304.171 66.0857 298.856 66.4765 294.01 66.5547L294.831 71.0878C297.84 70.9705 301.513 70.6188 304.601 70.1499C299.012 76.2852 292.994 81.5998 288.813 84.7261L292.096 88.2822C294.245 86.0938 295.573 84.9605 297.41 83.7882C299.911 82.186 303.037 81.209 306.125 81.209C310.267 81.209 313.002 83.2802 313.002 85.8594C313.002 87.7742 312.025 89.4155 310.462 90.5878C308.469 87.3834 305.499 85.5858 302.217 85.5858C298.583 85.5858 296.042 87.7742 296.042 90.6269C296.042 94.2612 299.403 96.684 303.78 96.684ZM300.615 90.7832C300.615 90.0798 301.318 89.4936 302.412 89.4936C304.014 89.4936 305.538 90.5097 306.672 92.3464C305.851 92.5027 305.03 92.6199 304.171 92.6199C301.982 92.6199 300.615 91.8774 300.615 90.7832Z" fill="#020300"/>
<path d="M338.876 96.684C343.917 96.684 346.574 94.4566 346.574 90.1189V89.7672C349.075 90.7832 351.85 92.3073 354.859 94.652L357.516 90.5878C354.156 88.1259 350.209 86.2501 346.34 85.0778C346.301 84.1399 346.223 83.1629 346.184 82.2251C346.066 80.3493 345.949 77.8092 345.91 75.5036C348.958 75.3082 352.358 74.9565 355.992 74.3312L355.484 69.6419C352.319 70.3062 349.036 70.7361 345.832 70.9314C345.871 67.9615 345.949 66.3593 346.144 64.0537L341.142 63.8192C341.103 66.2421 341.142 68.1178 341.142 69.9545C341.142 72.729 341.377 78.6299 341.611 82.186L341.729 84.1008C340.83 83.9836 339.97 83.9445 339.149 83.9445C333.835 83.9445 330.552 86.5628 330.552 90.2361C330.552 94.183 333.913 96.684 338.876 96.684ZM335.32 90.2361C335.32 89.0638 336.688 88.165 339.228 88.165C340.009 88.165 340.908 88.2822 341.885 88.4776V89.4936C341.885 91.4475 340.674 92.2682 338.524 92.2682C336.609 92.2682 335.32 91.5648 335.32 90.2361Z" fill="#020300"/>
<path d="M388.679 71.3222L390.594 67.0236C386.139 65.0697 382.309 64.2881 378.167 63.6629L376.448 67.8052C380.59 68.5477 384.654 69.4074 388.679 71.3222ZM381.137 98.0518C384.888 96.645 388.288 94.7301 390.906 91.5257C392.9 89.1029 394.658 85.7812 394.658 81.2481C394.658 75.6599 390.555 72.5337 385.396 72.5337C383.325 72.5337 380.746 73.0026 377.737 73.7451C375.549 74.2922 372.618 74.9956 370.664 75.4255L372.071 80.1148C373.986 79.5677 377.034 78.6299 379.222 78.0828C382.27 77.2621 383.56 77.0667 384.849 77.0667C387.429 77.0667 389.422 78.4345 389.422 81.8734C389.422 84.687 388.093 87.3443 386.373 89.2201C384.42 91.2912 381.606 93.0107 377.19 94.5347L381.137 98.0518Z" fill="#020300"/>
<path d="M414.583 96.2933L418.256 94.7301C418.061 93.167 418.256 91.4085 418.764 89.5327C419.155 87.9696 419.82 86.2501 421.109 83.7491L418.413 80.8964C417.592 82.4205 416.811 84.2962 416.224 86.0938C416.107 85.195 416.068 84.179 416.068 83.0457C416.068 80.1539 416.811 73.6278 418.452 65.9685L413.645 65.1869C412.317 72.8853 411.574 79.5287 411.574 83.3193C411.574 88.2822 412.668 92.6981 414.583 96.2933ZM423.649 74.0186C428.417 74.0577 435.177 73.706 440.101 72.9635L439.593 68.3132C435.021 69.0166 427.792 69.4074 423.219 69.2902L423.649 74.0186ZM433.81 94.3393C435.373 94.3393 438.421 94.183 441 93.7532L440.062 88.9075C437.522 89.5327 435.06 89.7672 433.184 89.7672C429.042 89.7672 427.557 88.7902 427.557 86.9535C427.557 85.8593 428.26 84.6479 429.98 83.1239L425.642 81.6389C423.61 83.8664 422.868 85.8984 422.868 87.696C422.868 92.3854 426.307 94.3393 433.81 94.3393Z" fill="#020300"/>
</svg>
