<svg width="185" height="66" viewBox="0 0 185 66" fill="none" xmlns="http://www.w3.org/2000/svg">
<path d="M3.15306 21.242V0.914002H12.1691V3.994H6.23306V21.242H3.15306Z" fill="#020300"/>
<path d="M34.0931 26.422L31.8811 24.574C32.1051 24.322 32.2731 24.07 32.4411 23.818C29.5571 24.322 26.4771 24.742 23.8171 24.966L23.2291 22.39C25.5531 22.25 26.5891 22.194 27.7931 22.082V20.626H23.7611V18.498H27.7931V17.238H24.0131V9.09H27.7931V7.83H23.1731V5.702H27.7931V4.498C26.4211 4.638 25.3291 4.694 24.3491 4.75L23.7051 2.79C23.3411 4.302 22.9771 5.702 22.4171 7.494V26.114H19.6731V13.962C19.2531 14.774 18.8331 15.474 18.1331 16.566L16.9571 13.346C18.8891 10.098 20.2891 5.898 21.1291 0.802002L24.0411 1.362C23.9851 1.754 23.9011 2.146 23.7611 2.594C26.7291 2.482 30.0331 2.09 32.8611 1.474L34.2611 3.686C33.0291 3.91 31.3491 4.134 30.2571 4.246V5.702H34.5971V6.85H36.0811V1.194H38.7691V6.71H42.4091C42.4091 16.342 42.2131 21.186 41.7931 23.678C41.5131 25.218 40.7011 25.806 38.9091 25.806C38.2371 25.806 37.2571 25.722 36.5851 25.638L36.2211 22.81C35.6051 24.182 34.8771 25.414 34.0931 26.422ZM30.2571 9.09H34.0371V7.83H30.2571V9.09ZM38.2091 22.894C39.0491 22.894 39.2731 22.67 39.3851 21.802C39.6931 19.422 39.8611 15.586 39.9451 9.51H38.5171C38.1811 16.566 37.7051 19.31 36.2771 22.67C36.9491 22.81 37.5651 22.894 38.2091 22.894ZM34.3451 20.262C35.3251 17.742 35.8851 14.102 35.9691 9.65H34.0931V17.238H30.2571V18.498H34.3451V20.262ZM26.1411 12.366H27.8771V10.882H26.1411V12.366ZM30.1731 12.366H31.9651V10.882H30.1731V12.366ZM26.1411 15.446H27.8771V13.934H26.1411V15.446ZM30.1731 15.446H31.9651V13.934H30.1731V15.446ZM30.2571 21.858C31.4051 21.774 32.4691 21.662 33.8131 21.466C33.9531 21.214 34.0651 20.962 34.2051 20.626H30.2571V21.858Z" fill="#020300"/>
<path d="M61.9857 25.666C58.0657 21.69 55.8817 20.094 51.8217 17.406C49.4697 15.81 48.6857 14.998 48.6857 13.57C48.6857 12.338 49.5817 11.47 51.9337 9.594C55.0697 7.13 57.5617 4.946 60.1657 1.614L63.2457 3.938C60.2217 7.27 58.0657 8.978 54.8457 11.442C53.1657 12.702 52.7177 13.178 52.7177 13.626C52.7177 14.158 53.1377 14.494 55.1817 15.754C58.3177 17.686 60.6697 19.198 64.7297 22.95L61.9857 25.666Z" fill="#020300"/>
<path d="M72.9782 26.114V23.034H78.9142V5.786H81.9942V26.114H72.9782Z" fill="#020300"/>
<path d="M103.303 20.094C103.387 19.058 103.471 17.91 103.471 16.986V16.538C100.867 17.826 99.6633 18.946 99.6633 19.982C99.6633 21.018 100.783 21.69 103.751 21.69C105.711 21.69 108.623 21.41 111.031 20.906L111.647 24.378C109.323 24.686 106.523 24.882 103.947 24.882C98.7393 24.882 96.2473 23.342 96.2473 20.346C96.2473 17.518 99.1313 15.446 103.079 13.542C102.771 12.758 102.155 12.366 101.259 12.366C100.027 12.366 98.7113 13.01 97.5633 14.018C96.4713 14.942 95.8553 15.642 94.6793 17.182L91.9633 15.166C94.0913 13.262 95.8553 11.05 97.3673 8.222C95.6313 8.334 94.0073 8.418 92.5513 8.474L92.2433 5.17C94.2873 5.17 96.5273 5.114 98.8513 4.974C99.3553 3.742 99.8033 2.426 100.251 0.970001L103.527 1.95C103.191 2.874 102.827 3.798 102.463 4.666C104.619 4.442 106.803 4.106 108.931 3.658L109.351 6.934C106.831 7.354 103.835 7.69 100.839 7.942C100.447 8.67 100.055 9.342 99.6073 10.042C100.363 9.734 101.147 9.566 101.875 9.566C103.975 9.566 105.375 10.546 106.019 12.254C107.951 11.414 109.995 10.546 112.095 9.706L113.383 12.842C110.695 13.71 108.455 14.522 106.579 15.278C106.663 16.034 106.691 16.734 106.691 17.378C106.691 18.47 106.691 19.17 106.635 20.094H103.303Z" fill="#020300"/>
<path d="M9.296 63.294C9.016 62.762 8.736 62.23 8.512 61.698C7.084 62.678 5.6 63.266 4.172 63.266C1.568 63.266 0 61.39 0 58.478C0 56.154 1.204 53.69 3.304 51.842C4.256 51.002 5.376 50.246 6.496 49.742C6.524 48.902 6.58 47.894 6.664 46.802C4.536 46.914 2.66 46.97 1.344 46.97L1.176 43.862C2.632 43.918 4.648 43.89 6.916 43.778C7.056 42.518 7.196 41.314 7.364 40.25L10.808 40.698C10.584 41.566 10.388 42.574 10.248 43.582C12.852 43.358 15.568 43.05 17.976 42.602L18.256 45.766C15.68 46.102 12.656 46.41 9.828 46.606C9.716 47.446 9.66 48.23 9.604 48.93C10.836 48.678 12.18 48.538 13.58 48.538C13.692 48.006 13.776 47.502 13.832 46.914L16.996 47.334L16.66 48.93C19.908 49.714 22.372 52.15 22.372 55.538C22.372 59.542 20.16 62.65 14.588 64.554L12.068 62.006C17.192 60.522 18.956 58.142 18.956 55.538C18.956 53.69 17.696 52.262 15.876 51.646C14.784 54.586 13.104 57.47 11.144 59.598C11.396 60.102 11.648 60.578 11.928 61.026L9.296 63.294ZM9.548 51.73C9.604 53.466 9.744 55.006 10.08 56.378C11.172 54.95 12.236 53.102 12.908 51.254C11.704 51.254 10.556 51.422 9.548 51.73ZM3.248 58.086C3.248 59.402 3.808 60.046 4.648 60.046C5.516 60.046 6.496 59.626 7.448 58.786C6.972 57.134 6.636 55.118 6.524 52.99C6.132 53.242 5.74 53.578 5.348 53.942C4.228 54.922 3.248 56.574 3.248 58.086Z" fill="#020300"/>
<path d="M30.1862 52.374L29.8782 49.126C33.1822 49.238 36.7662 49.07 40.0702 48.762C39.7342 48.034 39.4262 47.278 39.1462 46.522C36.4862 46.774 33.7982 46.914 31.6982 46.886L31.3342 43.75C33.5182 43.806 35.8702 43.75 38.1102 43.554C37.8302 42.686 37.5782 41.762 37.2982 40.81L40.6862 40.138C40.8542 41.146 41.1062 42.182 41.3862 43.19C43.4862 42.91 45.4182 42.518 46.9022 42.042L47.7422 45.01C46.3142 45.458 44.4102 45.822 42.3382 46.13C42.6182 46.886 42.9262 47.642 43.2342 48.37C45.7542 48.006 47.9102 47.558 49.4502 47.026L50.4022 50.106C48.8622 50.582 46.9022 50.974 44.7742 51.282C45.9782 53.27 47.3502 54.95 48.8062 56.042L46.7902 58.59C45.6142 57.806 44.7462 57.414 43.5702 57.078C42.3942 56.742 41.2182 56.602 39.9862 56.602C37.0182 56.602 35.3942 57.694 35.3942 58.842C35.3942 60.354 37.5782 61.194 41.4982 61.194C42.9822 61.194 44.8862 61.026 46.2302 60.774L46.7062 64.106C45.2502 64.302 42.9822 64.414 41.3862 64.414C36.0102 64.414 31.9502 62.846 31.9502 58.926C31.9502 56.014 35.2542 53.97 39.8462 53.97C41.0502 53.97 42.1422 54.11 43.2062 54.362C42.5902 53.522 42.0582 52.654 41.5262 51.702C37.6062 52.15 33.4622 52.346 30.1862 52.374Z" fill="#020300"/>
<path d="M71.8024 46.466C68.9184 44.87 66.3984 44.03 63.4304 43.358L64.6624 40.558C67.5464 41.034 70.3184 41.874 73.1744 43.442L71.8024 46.466ZM66.4824 64.414L64.3544 61.39C70.5984 60.886 74.3504 59.234 74.3224 56.322C74.2944 54.698 72.8664 53.606 70.5984 53.662C67.7704 53.746 64.8864 55.37 62.5344 58.114L59.9304 56.854C60.5744 53.494 60.9384 49.182 60.9944 45.15L64.4944 45.458C64.4104 47.698 64.1024 50.498 63.7104 53.13C65.7824 51.534 68.5544 50.638 70.8224 50.582C74.8264 50.526 77.7944 52.654 77.8784 56.21V56.35C77.8784 61.11 73.9584 63.49 66.4824 64.414Z" fill="#020300"/>
<path d="M96.8422 61.978C96.3662 61.418 95.9182 60.858 95.4982 60.27C93.9582 61.642 92.2782 62.286 90.5982 62.286C88.3582 62.286 86.8462 60.354 86.8462 57.274C86.8462 54.278 88.2182 51.058 90.8782 48.594C90.6262 47.11 90.4582 45.486 90.3182 43.666L93.7342 42.854C93.7062 44.226 93.7622 45.542 93.8742 46.746C95.2742 46.046 96.8422 45.542 98.4382 45.29C98.6062 43.778 98.6342 42.21 98.5782 40.614L102.134 40.754C102.078 42.21 101.966 43.666 101.77 45.122C106.53 45.542 109.974 48.93 109.974 53.69C109.974 58.422 107.342 62.09 101.35 64.134L98.5222 61.726C104.038 60.046 106.446 57.358 106.446 53.802C106.446 50.862 104.458 48.426 101.406 48.09C100.734 51.926 99.5582 55.202 97.9062 57.778C98.3542 58.338 98.8022 58.87 99.3342 59.43L96.8422 61.978ZM94.3502 49.91C94.7422 51.73 95.3022 53.382 96.0302 54.894C96.9542 53.102 97.7942 50.61 98.1582 48.314C96.7862 48.594 95.4702 49.126 94.3502 49.91ZM90.0382 56.686C90.0382 58.086 90.4582 58.898 91.3262 58.898C92.0542 58.898 92.9502 58.478 93.8462 57.582C92.9222 55.874 92.1942 54.138 91.6622 52.234C90.5702 53.69 90.0382 55.286 90.0382 56.686Z" fill="#020300"/>
<path d="M120.898 59.094L117.762 57.302C120.17 53.774 121.71 50.778 122.858 47.81C121.094 47.95 119.414 48.062 118.154 48.09L117.734 44.87C119.61 44.842 121.794 44.73 123.978 44.534C124.426 43.078 124.818 41.622 125.182 40.054L128.598 40.838C128.262 41.986 127.926 43.078 127.59 44.114C129.214 43.89 130.698 43.61 131.93 43.302L132.518 46.522C131.034 46.83 128.822 47.166 126.498 47.446C125.154 51.198 123.558 54.642 120.898 59.094ZM139.518 52.234C137.278 50.162 135.598 49.126 133.106 48.062L134.59 45.43C137.25 46.438 139.322 47.642 141.394 49.602L139.518 52.234ZM129.102 64.414C126.106 64.414 123.586 62.79 123.586 59.906C123.586 57.554 125.77 55.79 128.85 55.79C129.438 55.79 130.054 55.846 130.698 55.93C130.642 55.118 130.586 54.25 130.586 53.718C130.586 52.934 130.726 51.394 131.734 49.826L134.674 51.506C134.114 52.598 133.974 53.326 133.974 54.25C133.974 54.95 134.002 55.79 134.058 56.574C136.046 57.274 138.174 58.282 140.05 59.458L138.426 62.398C136.998 61.334 135.57 60.466 134.198 59.822V59.934C134.198 62.678 132.21 64.414 129.102 64.414ZM127.002 59.99C127.002 60.802 127.87 61.334 129.074 61.334C130.222 61.334 130.922 60.746 130.922 59.766V58.926C130.334 58.786 129.774 58.702 129.214 58.702C127.87 58.702 127.002 59.234 127.002 59.99Z" fill="#020300"/>
<path d="M155.32 62.818C152.996 62.818 151.092 60.746 150.056 57.498C149.412 55.454 148.964 51.954 148.964 48.51C148.964 47.026 149.02 45.066 149.188 43.218L152.828 43.974C152.604 45.906 152.492 47.558 152.492 49.434C152.492 52.318 152.772 54.446 153.248 56.07C153.752 57.806 154.508 58.842 155.292 58.842C156.16 58.842 157.252 56.798 157.924 53.354L160.92 55.874C159.744 60.382 157.7 62.818 155.32 62.818ZM167.052 58.422C166.324 53.046 165.456 49.406 162.796 46.97L165.428 44.562C168.76 47.53 169.936 51.758 170.636 57.33L167.052 58.422Z" fill="#020300"/>
<path d="M180.577 65.198C178.309 65.198 176.433 63.294 176.433 61.026C176.433 58.73 178.309 56.854 180.633 56.854C182.873 56.854 184.777 58.758 184.777 61.026C184.777 63.294 182.873 65.198 180.577 65.198ZM180.605 63.126C181.753 63.126 182.705 62.174 182.705 61.026C182.705 59.878 181.725 58.898 180.605 58.898C179.457 58.898 178.477 59.878 178.477 61.026C178.477 62.174 179.429 63.126 180.605 63.126Z" fill="#020300"/>
</svg>
