<svg width="359" height="118" viewBox="0 0 359 118" fill="none" xmlns="http://www.w3.org/2000/svg">
<path d="M6.70388 38.592H12.4239V6.56H23.4479V0.839998H6.70388V38.592ZM67.8039 48.212C69.2599 46.34 70.6119 44.052 71.7559 41.504L72.4319 46.756C73.6799 46.912 75.4999 47.068 76.7479 47.068C80.0759 47.068 81.5839 45.976 82.1039 43.116C82.8839 38.488 83.2479 29.492 83.2479 11.604H76.4879V1.36H71.4959V11.864H68.7399V9.732H60.6799V7.028C62.7079 6.82 65.8279 6.404 68.1159 5.988L65.5159 1.88C60.2639 3.024 54.1279 3.752 48.6159 3.96C48.8759 3.128 49.0319 2.4 49.1359 1.672L43.7279 0.631997C42.1679 10.096 39.5679 17.896 35.9799 23.928L38.1639 29.908C39.4639 27.88 40.2439 26.58 41.0239 25.072V47.64H46.1199V13.06C47.1599 9.732 47.8359 7.132 48.5119 4.324L49.7079 7.964C51.5279 7.86 53.5559 7.756 56.1039 7.496V9.732H47.5239V13.684H56.1039V16.024H49.0839V31.156H56.1039V33.496H48.6159V37.448H56.1039V40.152C53.8679 40.36 51.9439 40.464 47.6279 40.724L48.7199 45.508C53.6599 45.092 59.3799 44.312 64.7359 43.376C64.4239 43.844 64.1119 44.312 63.6959 44.78L67.8039 48.212ZM60.6799 16.024V13.684H67.6999V16.024H60.6799ZM75.4479 41.66C74.2519 41.66 73.1079 41.504 71.8599 41.244C74.5119 35.004 75.3959 29.908 76.0199 16.804H78.6719C78.5159 28.088 78.2039 35.212 77.6319 39.632C77.4239 41.244 77.0079 41.66 75.4479 41.66ZM68.2719 36.772V33.496H60.6799V31.156H67.8039V17.064H71.2879C71.1319 25.332 70.0919 32.092 68.2719 36.772ZM53.0359 22.108V19.352H56.2599V22.108H53.0359ZM60.5239 22.108V19.352H63.8519V22.108H60.5239ZM53.0359 27.828V25.02H56.2599V27.828H53.0359ZM60.5239 27.828V25.02H63.8519V27.828H60.5239ZM60.6799 39.736V37.448H68.0119C67.7519 38.072 67.5439 38.54 67.2839 39.008C64.7879 39.372 62.8119 39.58 60.6799 39.736ZM123.244 46.808L128.34 41.764C120.8 34.796 116.432 31.988 110.608 28.4C106.812 26.06 106.032 25.436 106.032 24.448C106.032 23.616 106.864 22.732 109.984 20.392C115.964 15.816 119.968 12.644 125.584 6.456L119.864 2.14C115.028 8.328 110.4 12.384 104.576 16.96C100.208 20.444 98.5444 22.056 98.5444 24.344C98.5444 26.996 100 28.504 104.368 31.468C111.908 36.46 115.964 39.424 123.244 46.808ZM143.585 47.64H160.329V9.888H154.609V41.92H143.585V47.64ZM203.543 36.46H209.731C209.835 34.744 209.835 33.444 209.835 31.416C209.835 30.22 209.783 28.92 209.627 27.516C213.111 26.112 217.271 24.604 222.263 22.992L219.871 17.168C215.971 18.728 212.175 20.34 208.587 21.9C207.391 18.728 204.791 16.908 200.891 16.908C199.539 16.908 198.083 17.22 196.679 17.792C197.511 16.492 198.239 15.244 198.967 13.892C204.531 13.424 210.095 12.8 214.775 12.02L213.995 5.936C210.043 6.768 205.987 7.392 201.983 7.808C202.659 6.196 203.335 4.48 203.959 2.764L197.875 0.943996C197.043 3.648 196.211 6.092 195.275 8.38C190.959 8.64 186.799 8.744 183.003 8.744L183.575 14.88C186.279 14.776 189.295 14.62 192.519 14.412C189.711 19.664 186.435 23.772 182.483 27.308L187.527 31.052C189.711 28.192 190.855 26.892 192.883 25.176C195.015 23.304 197.459 22.108 199.747 22.108C201.411 22.108 202.555 22.836 203.127 24.292C195.795 27.828 190.439 31.676 190.439 36.928C190.439 42.492 195.067 45.352 204.739 45.352C209.523 45.352 214.723 44.988 219.039 44.416L217.895 37.968C213.423 38.904 208.015 39.424 204.375 39.424C198.863 39.424 196.783 38.176 196.783 36.252C196.783 34.328 199.019 32.248 203.855 29.856V30.688C203.855 32.404 203.699 34.536 203.543 36.46ZM18.1122 114.26L23.0002 110.048C22.4802 109.216 22.0122 108.332 21.5442 107.396C25.1842 103.444 28.3042 98.088 30.3322 92.628C33.7122 93.772 36.0522 96.424 36.0522 99.856C36.0522 104.692 32.7762 109.112 23.2602 111.868L27.9402 116.6C38.2882 113.064 42.3962 107.292 42.3962 99.856C42.3962 93.564 37.8202 89.04 31.7882 87.584L32.4122 84.62L26.5362 83.84C26.4322 84.932 26.2762 85.868 26.0682 86.856C23.4682 86.856 20.9722 87.116 18.6842 87.584C18.7882 86.284 18.8922 84.828 19.1002 83.268C24.3522 82.904 29.9682 82.332 34.7522 81.708L34.2322 75.832C29.7602 76.664 24.7162 77.236 19.8802 77.652C20.1402 75.78 20.5042 73.908 20.9202 72.296L14.5242 71.464C14.2122 73.44 13.9522 75.676 13.6922 78.016C9.48019 78.224 5.73619 78.276 3.03219 78.172L3.34419 83.944C5.78819 83.944 9.27219 83.84 13.2242 83.632C13.0682 85.66 12.9642 87.532 12.9122 89.092C10.8322 90.028 8.75219 91.432 6.98419 92.992C3.08419 96.424 0.848188 101 0.848188 105.316C0.848188 110.724 3.76019 114.208 8.59619 114.208C11.2482 114.208 14.0042 113.116 16.6562 111.296C17.0722 112.284 17.5922 113.272 18.1122 114.26ZM18.5802 92.784C20.4522 92.212 22.5842 91.9 24.8202 91.9C23.5722 95.332 21.5962 98.764 19.5682 101.416C18.9442 98.868 18.6842 96.008 18.5802 92.784ZM6.88019 104.588C6.88019 101.78 8.70019 98.712 10.7802 96.892C11.5082 96.216 12.2362 95.592 12.9642 95.124C13.1722 99.076 13.7962 102.82 14.6802 105.888C12.9122 107.448 11.0922 108.228 9.48019 108.228C7.92019 108.228 6.88019 107.032 6.88019 104.588ZM60.5482 93.98C66.6322 93.928 74.3282 93.564 81.6082 92.732C82.5963 94.5 83.5843 96.112 84.7282 97.672C82.7522 97.204 80.7243 96.944 78.4883 96.944C69.9603 96.944 63.8242 100.74 63.8242 106.148C63.8242 113.428 71.3642 116.34 81.3482 116.34C84.3123 116.34 88.5243 116.132 91.2283 115.768L90.3443 109.58C87.8482 110.048 84.3123 110.36 81.5562 110.36C74.2763 110.36 70.2203 108.8 70.2203 105.992C70.2203 103.86 73.2363 101.832 78.7483 101.832C81.0363 101.832 83.2203 102.092 85.4042 102.716C87.5882 103.34 89.2003 104.068 91.3843 105.524L95.1283 100.792C92.4243 98.764 89.8763 95.644 87.6403 91.952C91.5923 91.38 95.2323 90.652 98.0923 89.768L96.3243 84.048C93.4643 85.036 89.4603 85.868 84.7803 86.544C84.2082 85.192 83.6363 83.788 83.1163 82.384C86.9643 81.812 90.5003 81.136 93.1523 80.304L91.5923 74.792C88.8363 75.676 85.2483 76.404 81.3482 76.924C80.8282 75.052 80.3602 73.128 80.0483 71.256L73.7562 72.504C74.2763 74.272 74.7443 75.988 75.2643 77.6C71.1042 77.964 66.7363 78.068 62.6802 77.964L63.3562 83.788C67.2562 83.84 72.2483 83.58 77.1883 83.112C77.7082 84.516 78.2803 85.92 78.9042 87.272C72.7682 87.844 66.1123 88.156 59.9762 87.948L60.5482 93.98ZM139.618 83.008L142.166 77.392C136.862 74.48 131.714 72.92 126.358 72.036L124.07 77.236C129.582 78.484 134.262 80.044 139.618 83.008ZM129.738 116.34C143.622 114.624 150.902 110.204 150.902 101.364V101.104C150.746 94.5 145.234 90.548 137.798 90.652C133.586 90.756 128.438 92.42 124.59 95.384C125.318 90.496 125.89 85.296 126.046 81.136L119.546 80.564C119.442 88.052 118.766 96.06 117.57 102.3L122.406 104.64C126.774 99.544 132.13 96.528 137.382 96.372C141.594 96.268 144.246 98.296 144.298 101.312C144.35 106.72 137.382 109.788 125.786 110.724L129.738 116.34ZM186.047 111.816L190.675 107.084C189.687 106.044 188.855 105.056 188.023 104.016C191.091 99.232 193.275 93.148 194.523 86.024C200.191 86.648 203.883 91.172 203.883 96.632C203.883 103.236 199.411 108.228 189.167 111.348L194.419 115.82C205.547 112.024 210.435 105.212 210.435 96.424C210.435 87.584 204.039 81.292 195.199 80.512C195.563 77.808 195.771 75.104 195.875 72.4L189.271 72.14C189.375 75.104 189.323 78.016 189.011 80.824C186.047 81.292 183.135 82.228 180.535 83.528C180.327 81.292 180.223 78.848 180.275 76.3L173.931 77.808C174.191 81.188 174.503 84.204 174.971 86.96C170.031 91.536 167.483 97.516 167.483 103.08C167.483 108.8 170.291 112.388 174.451 112.388C177.571 112.388 180.691 111.192 183.551 108.644C184.331 109.736 185.163 110.776 186.047 111.816ZM181.419 89.404C183.499 87.948 185.943 86.96 188.491 86.44C187.815 90.704 186.255 95.332 184.539 98.66C183.187 95.852 182.147 92.784 181.419 89.404ZM173.411 101.988C173.411 99.388 174.399 96.424 176.427 93.72C177.415 97.256 178.767 100.48 180.483 103.652C178.819 105.316 177.155 106.096 175.803 106.096C174.191 106.096 173.411 104.588 173.411 101.988ZM232.505 106.46C237.445 98.192 240.409 91.796 242.905 84.828C247.221 84.308 251.329 83.684 254.085 83.112L252.993 77.132C250.705 77.704 247.949 78.224 244.933 78.64C245.557 76.716 246.181 74.688 246.805 72.556L240.461 71.1C239.785 74.012 239.057 76.716 238.225 79.42C234.169 79.784 230.113 79.992 226.629 80.044L227.409 86.024C229.749 85.972 232.869 85.764 236.145 85.504C234.013 91.016 231.153 96.58 226.681 103.132L232.505 106.46ZM267.085 93.72L270.569 88.832C266.721 85.192 262.873 82.956 257.933 81.084L255.177 85.972C259.805 87.948 262.925 89.872 267.085 93.72ZM247.741 116.34C253.513 116.34 257.205 113.116 257.205 108.02V107.812C259.753 109.008 262.405 110.62 265.057 112.596L268.073 107.136C264.589 104.952 260.637 103.08 256.945 101.78C256.841 100.324 256.789 98.764 256.789 97.464C256.789 95.748 257.049 94.396 258.089 92.368L252.629 89.248C250.757 92.16 250.497 95.02 250.497 96.476C250.497 97.464 250.601 99.076 250.705 100.584C249.509 100.428 248.365 100.324 247.273 100.324C241.553 100.324 237.497 103.6 237.497 107.968C237.497 113.324 242.177 116.34 247.741 116.34ZM243.841 108.124C243.841 106.72 245.453 105.732 247.949 105.732C248.989 105.732 250.029 105.888 251.121 106.148V107.708C251.121 109.528 249.821 110.62 247.689 110.62C245.453 110.62 243.841 109.632 243.841 108.124ZM300.071 113.376C304.491 113.376 308.287 108.852 310.471 100.48L304.907 95.8C303.659 102.196 301.631 105.992 300.019 105.992C298.563 105.992 297.159 104.068 296.223 100.844C295.339 97.828 294.819 93.876 294.819 88.52C294.819 85.036 295.027 81.968 295.443 78.38L288.683 76.976C288.371 80.408 288.267 84.048 288.267 86.804C288.267 93.2 289.099 99.7 290.295 103.496C292.219 109.528 295.755 113.376 300.071 113.376ZM321.859 105.212L328.515 103.184C327.215 92.836 325.031 84.984 318.843 79.472L313.955 83.944C318.895 88.468 320.507 95.228 321.859 105.212ZM350.617 117.796C354.881 117.796 358.417 114.26 358.417 110.048C358.417 105.836 354.881 102.3 350.721 102.3C346.405 102.3 342.921 105.784 342.921 110.048C342.921 114.26 346.405 117.796 350.617 117.796ZM350.669 113.948C348.485 113.948 346.717 112.18 346.717 110.048C346.717 107.916 348.537 106.096 350.669 106.096C352.749 106.096 354.569 107.916 354.569 110.048C354.569 112.18 352.801 113.948 350.669 113.948Z" fill="#020300"/>
</svg>
