<svg width="289" height="86" viewBox="0 0 289 86" fill="none" xmlns="http://www.w3.org/2000/svg">
<path d="M1.23778 28.8439V9.24189H9.93178V12.2119H4.20778V28.8439H1.23778Z" fill="#020300"/>
<path d="M31.694 32.4079C25.943 31.6249 22.406 28.8169 22.406 24.0919C22.406 21.3379 24.215 18.5569 27.374 16.1809C22.676 16.6669 19.355 16.9369 15.71 17.2069L15.278 13.8319C20.921 13.6159 29.939 13.1029 36.392 12.0229L36.986 15.3169C33.098 15.7489 31.424 16.4509 29.453 18.0709C27.158 19.9339 25.754 21.9049 25.754 24.0649C25.754 27.0619 28.346 28.5739 33.206 29.1949L31.694 32.4079ZM35.906 22.3639C35.042 20.7169 34.34 19.6369 33.206 18.5299L35.015 17.3419C36.122 18.4219 36.932 19.6099 37.742 21.1219L35.906 22.3639ZM33.044 24.1189C32.207 22.4449 31.451 21.3379 30.398 20.1769L32.18 18.9889C33.341 20.1499 34.043 21.2839 34.88 22.8499L33.044 24.1189Z" fill="#020300"/>
<path d="M43.9674 21.2569L43.6704 18.1249C46.8564 18.2329 50.3124 18.0709 53.4984 17.7739C53.1744 17.0719 52.8774 16.3429 52.6074 15.6139C50.0424 15.8569 47.4504 15.9919 45.4254 15.9649L45.0744 12.9409C47.1804 12.9949 49.4484 12.9409 51.6084 12.7519C51.3384 11.9149 51.0954 11.0239 50.8254 10.1059L54.0924 9.45789C54.2544 10.4299 54.4974 11.4289 54.7674 12.4009C56.7924 12.1309 58.6554 11.7529 60.0864 11.2939L60.8964 14.1559C59.5194 14.5879 57.6834 14.9389 55.6854 15.2359C55.9554 15.9649 56.2524 16.6939 56.5494 17.3959C58.9794 17.0449 61.0584 16.6129 62.5434 16.0999L63.4614 19.0699C61.9764 19.5289 60.0864 19.9069 58.0344 20.2039C59.1954 22.1209 60.5184 23.7409 61.9224 24.7939L59.9784 27.2509C58.8444 26.4949 58.0074 26.1169 56.8734 25.7929C55.7394 25.4689 54.6054 25.3339 53.4174 25.3339C50.5554 25.3339 48.9894 26.3869 48.9894 27.4939C48.9894 28.9519 51.0954 29.7619 54.8754 29.7619C56.3064 29.7619 58.1424 29.5999 59.4384 29.3569L59.8974 32.5699C58.4934 32.7589 56.3064 32.8669 54.7674 32.8669C49.5834 32.8669 45.6684 31.3549 45.6684 27.5749C45.6684 24.7669 48.8544 22.7959 53.2824 22.7959C54.4434 22.7959 55.4964 22.9309 56.5224 23.1739C55.9284 22.3639 55.4154 21.5269 54.9024 20.6089C51.1224 21.0409 47.1264 21.2299 43.9674 21.2569Z" fill="#020300"/>
<path d="M79.3323 32.4619C76.3083 32.4619 73.9863 30.7879 73.9863 28.2769C73.9863 26.3059 75.7413 24.7939 78.2523 24.7939C80.5203 24.7939 82.5723 26.0359 83.9493 28.2499C85.0293 27.4399 85.7043 26.3059 85.7043 24.9829C85.7043 23.2009 83.8143 21.7699 80.9523 21.7699C78.8193 21.7699 76.6593 22.4449 74.9313 23.5519C73.6623 24.3619 72.7443 25.1449 71.2593 26.6569L68.9913 24.1999C71.8803 22.0399 76.0383 18.3679 79.8993 14.1289C77.7663 14.4529 75.2283 14.6959 73.1493 14.7769L72.5823 11.6449C75.9303 11.5909 79.6023 11.3209 83.4093 10.6189L85.1913 12.8059C82.7883 15.3979 80.8173 17.2879 78.5763 19.2859C79.5483 19.0159 80.4933 18.8809 81.4653 18.8809C85.9203 18.8809 89.0253 21.3649 89.0253 24.9019C89.0253 29.2759 84.7053 32.4619 79.3323 32.4619ZM77.1453 28.3849C77.1453 29.1409 78.0903 29.6539 79.6023 29.6539C80.1963 29.6539 80.7633 29.5729 81.3303 29.4649C80.5473 28.1959 79.4943 27.4939 78.3873 27.4939C77.6313 27.4939 77.1453 27.8989 77.1453 28.3849Z" fill="#020300"/>
<path d="M96.2733 33.5419V30.5719H101.997V13.9399H104.967V33.5419H96.2733Z" fill="#020300"/>
<path d="M127.515 27.7369C127.596 26.7379 127.677 25.6309 127.677 24.7399V24.3079C125.166 25.5499 124.005 26.6299 124.005 27.6289C124.005 28.6279 125.085 29.2759 127.947 29.2759C129.837 29.2759 132.645 29.0059 134.967 28.5199L135.561 31.8679C133.32 32.1649 130.62 32.3539 128.136 32.3539C123.114 32.3539 120.711 30.8689 120.711 27.9799C120.711 25.2529 123.492 23.2549 127.299 21.4189C127.002 20.6629 126.408 20.2849 125.544 20.2849C124.356 20.2849 123.087 20.9059 121.98 21.8779C120.927 22.7689 120.333 23.4439 119.199 24.9289L116.58 22.9849C118.632 21.1489 120.333 19.0159 121.791 16.2889C120.117 16.3969 118.551 16.4779 117.147 16.5319L116.85 13.3459C118.821 13.3459 120.981 13.2919 123.222 13.1569C123.708 11.9689 124.14 10.6999 124.572 9.29589L127.731 10.2409C127.407 11.1319 127.056 12.0229 126.705 12.8599C128.784 12.6439 130.89 12.3199 132.942 11.8879L133.347 15.0469C130.917 15.4519 128.028 15.7759 125.139 16.0189C124.761 16.7209 124.383 17.3689 123.951 18.0439C124.68 17.7469 125.436 17.5849 126.138 17.5849C128.163 17.5849 129.513 18.5299 130.134 20.1769C131.997 19.3669 133.968 18.5299 135.993 17.7199L137.235 20.7439C134.643 21.5809 132.483 22.3639 130.674 23.0929C130.755 23.8219 130.782 24.4969 130.782 25.1179C130.782 26.1709 130.782 26.8459 130.728 27.7369H127.515Z" fill="#020300"/>
<path d="M151.551 21.9319V12.7249H154.818C154.413 11.7259 154.008 10.9429 153.468 10.1329L156.06 9.32289C156.762 10.5109 157.194 11.4289 157.653 12.7249H159.975C160.623 11.3479 161.055 10.2679 161.379 9.16089L164.241 9.97089C163.863 10.8619 163.404 11.6989 162.81 12.7249H166.239V21.9319H151.551ZM143.154 30.1939L142.182 27.1699C143.181 26.9809 144.315 26.6569 145.611 26.2519V18.1249H142.641V15.3169H145.611V9.86289H148.419V15.3169H150.903V18.1249H148.419V25.3339C149.067 25.1449 149.688 24.9019 151.092 24.3349L151.281 27.0889C148.527 28.3309 145.638 29.4379 143.154 30.1939ZM154.197 16.3969H157.599V14.6689H154.197V16.3969ZM160.137 16.3969H163.593V14.6689H160.137V16.3969ZM154.197 19.9879H157.599V18.1789H154.197V19.9879ZM160.137 19.9879H163.593V18.1789H160.137V19.9879ZM152.685 33.5419V23.1739H165.213V33.5419H162.459V32.4889H155.439V33.5419H152.685ZM155.439 26.8189H162.459V25.1179H155.439V26.8189ZM155.439 30.4369H162.459V28.6279H155.439V30.4369Z" fill="#020300"/>
<path d="M182.145 33.4879C181.038 29.3299 179.688 25.3609 178.257 21.5269C176.313 22.3099 174.558 23.0389 173.262 23.5789L171.777 20.4199C173.397 19.8259 175.206 19.1509 177.069 18.4759C176.205 16.3429 175.368 14.5339 174.423 12.7249L177.582 11.4289C178.446 13.1569 179.31 15.1819 180.174 17.3689C180.498 17.2339 180.822 17.1259 181.146 17.0179C183.198 16.2889 185.061 15.6679 186.681 15.2899C184.683 14.1019 182.982 13.4539 180.795 12.7789L182.145 10.0789C184.548 10.7269 186.357 11.4019 188.517 12.6709L187.14 15.1819C187.923 15.0199 188.652 14.9389 189.327 14.9389C192.999 14.9389 195.267 16.9909 195.267 20.3929C195.267 23.7409 192.351 25.9819 188.463 25.9819C187.653 25.9819 186.951 25.9009 186.276 25.7659L185.331 22.3639C186.087 22.6069 187.14 22.7689 188.058 22.7689C190.353 22.7689 191.865 21.7159 191.865 20.2849C191.865 18.7459 190.758 17.9359 189.192 17.9359C187.815 17.9359 185.601 18.6379 182.334 19.9069L181.335 20.3119C182.928 24.4969 184.197 28.0609 185.466 32.4349L182.145 33.4879Z" fill="#020300"/>
<path d="M211.561 32.4619C206.944 32.4619 205.081 29.7079 205.081 24.9559C205.081 23.4439 205.162 20.3119 205.216 18.2599C205.27 16.4509 205.27 12.6169 205.216 10.3219L208.861 10.3489C208.807 12.6709 208.699 16.3159 208.618 18.0709C208.537 19.8799 208.456 23.0119 208.456 24.6859C208.456 27.8179 209.374 29.1949 211.669 29.1949C214.612 29.1949 217.933 26.8999 219.796 23.3629L221.605 26.9539C219.04 30.3829 215.53 32.4619 211.561 32.4619Z" fill="#020300"/>
<path d="M241.501 32.4079C235.75 31.6249 232.213 28.8169 232.213 24.0919C232.213 21.3379 234.022 18.5569 237.181 16.1809C232.483 16.6669 229.162 16.9369 225.517 17.2069L225.085 13.8319C230.728 13.6159 239.746 13.1029 246.199 12.0229L246.793 15.3169C242.905 15.7489 241.231 16.4509 239.26 18.0709C236.965 19.9339 235.561 21.9049 235.561 24.0649C235.561 27.0619 238.072 28.5739 243.013 29.1949L241.501 32.4079Z" fill="#020300"/>
<path d="M254.531 33.7039C253.289 31.5709 251.345 29.2219 249.536 27.6289L252.209 25.3609C253.964 26.8459 255.962 29.0869 257.393 31.1659L254.531 33.7039Z" fill="#020300"/>
<path d="M0 76.5419V56.1569H6.21C6.723 54.6449 7.047 53.4839 7.29 52.2149L10.854 52.7819C10.476 54.0239 10.071 55.0499 9.585 56.1569H18.36V76.5419H15.228V75.0569H3.132V76.5419H0ZM3.132 61.5839H15.228V58.7489H3.132V61.5839ZM3.132 66.9029H15.228V64.0679H3.132V66.9029ZM3.132 72.4109H15.228V69.3869H3.132V72.4109Z" fill="#020300"/>
<path d="M30.078 76.4609L27.891 73.8689C32.373 72.3299 34.749 69.3869 35.343 64.6079H31.509V63.0419C30.618 64.0139 29.646 64.8779 28.404 65.7959L26.406 63.3119C29.889 60.8819 32.4 57.3989 33.939 52.9439L36.936 53.9429C36.045 56.6969 34.56 59.4239 32.616 61.7999H44.577C42.282 59.3969 40.257 56.5889 38.826 53.7539L41.85 52.6199C43.551 56.2649 46.602 59.7749 50.328 62.4209L48.276 65.1749C47.763 64.7969 46.629 63.8519 45.954 63.2039C45.792 68.3069 45.468 72.1409 45.036 73.6259C44.577 75.2729 43.443 76.0019 41.391 76.0019C40.284 76.0019 38.799 75.8939 37.989 75.7589L37.395 72.5189C38.61 72.7889 39.663 72.9509 40.392 72.9509C41.526 72.9509 41.958 72.5999 42.147 71.3849C42.444 69.7919 42.633 67.5239 42.768 64.6079H38.421C37.611 70.8179 35.019 74.5169 30.078 76.4609Z" fill="#020300"/>
<path d="M68.8968 58.5599C66.1158 57.0209 63.6858 56.2109 60.8238 55.5629L62.0118 52.8629C64.7928 53.3219 67.4658 54.1319 70.2198 55.6439L68.8968 58.5599ZM63.7668 75.8669L61.7148 72.9509C67.7358 72.4649 71.3538 70.8719 71.3268 68.0639C71.2998 66.4979 69.9228 65.4449 67.7358 65.4989C65.0088 65.5799 62.2278 67.1459 59.9598 69.7919L57.4488 68.5769C58.0698 65.3369 58.4208 61.1789 58.4748 57.2909L61.8498 57.5879C61.7688 59.7479 61.4718 62.4479 61.0938 64.9859C63.0918 63.4469 65.7648 62.5829 67.9518 62.5289C71.8128 62.4749 74.6748 64.5269 74.7558 67.9559V68.0909C74.7558 72.6809 70.9758 74.9759 63.7668 75.8669Z" fill="#020300"/>
<path d="M91.6855 75.4619C87.0685 75.4619 85.2055 72.7079 85.2055 67.9559C85.2055 66.4439 85.2865 63.3119 85.3405 61.2599C85.3945 59.4509 85.3945 55.6169 85.3405 53.3219L88.9855 53.3489C88.9315 55.6709 88.8235 59.3159 88.7425 61.0709C88.6615 62.8799 88.5805 66.0119 88.5805 67.6859C88.5805 70.8179 89.4985 72.1949 91.7935 72.1949C94.7365 72.1949 98.0575 69.8999 99.9205 66.3629L101.729 69.9539C99.1645 73.3829 95.6545 75.4619 91.6855 75.4619Z" fill="#020300"/>
<path d="M120.508 76.1099C116.728 72.2759 114.622 70.7369 110.707 68.1449C108.439 66.6059 107.683 65.8229 107.683 64.4459C107.683 63.2579 108.547 62.4209 110.815 60.6119C113.839 58.2359 116.242 56.1299 118.753 52.9169L121.723 55.1579C118.807 58.3709 116.728 60.0179 113.623 62.3939C112.003 63.6089 111.571 64.0679 111.571 64.4999C111.571 65.0129 111.976 65.3369 113.947 66.5519C116.971 68.4149 119.239 69.8729 123.154 73.4909L120.508 76.1099Z" fill="#020300"/>
<path d="M146.812 76.8389L144.679 75.0569C144.895 74.8139 145.057 74.5709 145.219 74.3279C142.438 74.8139 139.468 75.2189 136.903 75.4349L136.336 72.9509C138.577 72.8159 139.576 72.7619 140.737 72.6539V71.2499H136.849V69.1979H140.737V67.9829H137.092V60.1259H140.737V58.9109H136.282V56.8589H140.737V55.6979C139.414 55.8329 138.361 55.8869 137.416 55.9409L136.795 54.0509C136.444 55.5089 136.093 56.8589 135.553 58.5869V76.5419H132.907V64.8239C132.502 65.6069 132.097 66.2819 131.422 67.3349L130.288 64.2299C132.151 61.0979 133.501 57.0479 134.311 52.1339L137.119 52.6739C137.065 53.0519 136.984 53.4299 136.849 53.8619C139.711 53.7539 142.897 53.3759 145.624 52.7819L146.974 54.9149C145.786 55.1309 144.166 55.3469 143.113 55.4549V56.8589H147.298V57.9659H148.729V52.5119H151.321V57.8309H154.831C154.831 67.1189 154.642 71.7899 154.237 74.1929C153.967 75.6779 153.184 76.2449 151.456 76.2449C150.808 76.2449 149.863 76.1639 149.215 76.0829L148.864 73.3559C148.27 74.6789 147.568 75.8669 146.812 76.8389ZM143.113 60.1259H146.758V58.9109H143.113V60.1259ZM150.781 73.4369C151.591 73.4369 151.807 73.2209 151.915 72.3839C152.212 70.0889 152.374 66.3899 152.455 60.5309H151.078C150.754 67.3349 150.295 69.9809 148.918 73.2209C149.566 73.3559 150.16 73.4369 150.781 73.4369ZM147.055 70.8989C148 68.4689 148.54 64.9589 148.621 60.6659H146.812V67.9829H143.113V69.1979H147.055V70.8989ZM139.144 63.2849H140.818V61.8539H139.144V63.2849ZM143.032 63.2849H144.76V61.8539H143.032V63.2849ZM139.144 66.2549H140.818V64.7969H139.144V66.2549ZM143.032 66.2549H144.76V64.7969H143.032V66.2549ZM143.113 72.4379C144.22 72.3569 145.246 72.2489 146.542 72.0599C146.677 71.8169 146.785 71.5739 146.92 71.2499H143.113V72.4379Z" fill="#020300"/>
<path d="M170.422 62.6639L170.206 59.5319C172.501 59.6399 174.823 59.5859 176.983 59.4509C176.875 57.5609 176.713 55.4549 176.497 53.1329L179.926 52.8899C180.061 55.0769 180.196 57.1829 180.277 59.1539C181.735 58.9649 183.031 58.7219 184.165 58.4519L184.516 61.6919C183.328 61.9349 181.924 62.1239 180.412 62.2859C180.439 63.0959 180.439 63.8519 180.439 64.5539C180.439 71.2229 179.494 73.6799 176.038 76.5419L172.636 75.0839C176.497 72.1679 177.118 69.3329 177.118 64.0679C177.118 63.5819 177.118 63.0689 177.091 62.5559C174.796 62.6909 172.447 62.7179 170.422 62.6639ZM165.481 75.0299C164.077 72.3569 163.537 69.3869 163.537 65.9039C163.537 63.6629 163.942 59.0459 164.59 54.2669L167.911 54.7799C166.912 60.4499 166.615 63.9329 166.615 66.3089C166.615 67.2809 166.642 68.2259 166.777 69.0359C167.182 67.9559 167.776 66.7679 168.343 65.7689L170.071 67.7129C169.234 69.1439 168.856 69.9809 168.532 70.8989C168.181 71.8709 167.965 72.9239 168.046 74.0309L165.481 75.0299Z" fill="#020300"/>
<path d="M199.658 75.4619C196.634 75.4619 194.312 73.7879 194.312 71.2769C194.312 69.3059 196.067 67.7939 198.578 67.7939C200.846 67.7939 202.898 69.0359 204.275 71.2499C205.355 70.4399 206.03 69.3059 206.03 67.9829C206.03 66.2009 204.14 64.7699 201.278 64.7699C199.145 64.7699 196.985 65.4449 195.257 66.5519C193.988 67.3619 193.07 68.1449 191.585 69.6569L189.317 67.1999C192.206 65.0399 196.364 61.3679 200.225 57.1289C198.092 57.4529 195.554 57.6959 193.475 57.7769L192.908 54.6449C196.256 54.5909 199.928 54.3209 203.735 53.6189L205.517 55.8059C203.114 58.3979 201.143 60.2879 198.902 62.2859C199.874 62.0159 200.819 61.8809 201.791 61.8809C206.246 61.8809 209.351 64.3649 209.351 67.9019C209.351 72.2759 205.031 75.4619 199.658 75.4619ZM197.471 71.3849C197.471 72.1409 198.416 72.6539 199.928 72.6539C200.522 72.6539 201.089 72.5729 201.656 72.4649C200.873 71.1959 199.82 70.4939 198.713 70.4939C197.957 70.4939 197.471 70.8989 197.471 71.3849Z" fill="#020300"/>
<path d="M222.016 75.4619C218.587 75.4619 216.265 73.7339 216.265 71.0069C216.265 68.4689 218.533 66.6599 222.205 66.6599C222.772 66.6599 223.366 66.6869 223.987 66.7679L223.906 65.4449C223.744 62.9879 223.582 58.9109 223.582 56.9939C223.582 55.7249 223.555 54.4289 223.582 52.7549L227.038 52.9169C226.903 54.5099 226.849 55.6169 226.822 57.6689C229.036 57.5339 231.304 57.2369 233.491 56.7779L233.842 60.0179C231.331 60.4499 228.982 60.6929 226.876 60.8279C226.903 62.4209 226.984 64.1759 227.065 65.4719C227.092 66.1199 227.146 66.7949 227.173 67.4429C229.846 68.2529 232.573 69.5489 234.895 71.2499L233.059 74.0579C230.98 72.4379 229.063 71.3849 227.335 70.6829V70.9259C227.335 73.9229 225.499 75.4619 222.016 75.4619ZM219.559 71.0069C219.559 71.9249 220.45 72.4109 221.773 72.4109C223.258 72.4109 224.095 71.8439 224.095 70.4939V69.7919C223.42 69.6569 222.799 69.5759 222.259 69.5759C220.504 69.5759 219.559 70.1969 219.559 71.0069Z" fill="#020300"/>
<path d="M254.536 57.9389C251.755 56.6159 248.947 56.0219 246.085 55.5089L247.273 52.6469C250.135 53.0789 252.781 53.6189 255.859 54.9689L254.536 57.9389ZM249.325 76.4069L246.598 73.9769C249.649 72.9239 251.593 71.7359 252.943 70.3049C254.131 69.0089 255.049 67.1729 255.049 65.2289C255.049 62.8529 253.672 61.9079 251.89 61.9079C250.999 61.9079 250.108 62.0429 248.002 62.6099C246.49 62.9879 244.384 63.6359 243.061 64.0139L242.089 60.7739C243.439 60.4769 245.464 59.9909 246.976 59.6129C249.055 59.0999 250.837 58.7759 252.268 58.7759C255.832 58.7759 258.667 60.9359 258.667 64.7969C258.667 67.9289 257.452 70.2239 256.075 71.8979C254.266 74.1119 251.917 75.4349 249.325 76.4069Z" fill="#020300"/>
<path d="M270.544 75.1919C269.221 72.7079 268.465 69.6569 268.465 66.2279C268.465 63.6089 268.978 59.0189 269.896 53.6999L273.217 54.2399C272.083 59.5319 271.57 64.0409 271.57 66.0389C271.57 66.8219 271.597 67.5239 271.678 68.1449C272.083 66.9029 272.623 65.6069 273.19 64.5539L275.053 66.5249C274.162 68.2529 273.703 69.4409 273.433 70.5209C273.082 71.8169 272.947 73.0319 273.082 74.1119L270.544 75.1919ZM276.808 59.8019L276.511 56.5349C279.67 56.6159 284.665 56.3459 287.824 55.8599L288.175 59.0729C284.773 59.5859 280.102 59.8289 276.808 59.8019ZM283.828 73.8419C278.644 73.8419 276.268 72.4919 276.268 69.2519C276.268 68.0099 276.781 66.6059 278.185 65.0669L281.182 66.0929C279.994 67.1459 279.508 67.9829 279.508 68.7389C279.508 70.0079 280.534 70.6829 283.396 70.6829C284.692 70.6829 286.393 70.5209 288.148 70.0889L288.796 73.4369C287.014 73.7339 284.908 73.8419 283.828 73.8419Z" fill="#020300"/>
</svg>
