<svg width="32" height="32" viewBox="0 0 32 32" fill="none" xmlns="http://www.w3.org/2000/svg">
<path d="M14.7273 27.4L11.5773 24.565C9.73182 22.9034 8.19924 21.4807 6.97955 20.2968C5.75985 19.1129 4.77879 18.0433 4.03636 17.0879C3.29394 16.1325 2.76894 15.2342 2.46136 14.393C2.15379 13.5519 2 12.6536 2 11.6982C2 9.82893 2.64167 8.24525 3.925 6.94715C5.20833 5.64905 6.79394 5 8.68182 5C9.89091 5 11.0098 5.2752 12.0386 5.82559C13.0674 6.37599 13.9636 7.18081 14.7273 8.24006C15.6182 7.1185 16.5621 6.2981 17.5591 5.77886C18.5561 5.25962 19.6273 5 20.7727 5C22.4909 5 23.928 5.57116 25.0841 6.71349C26.2402 7.85582 26.9455 9.237 27.2 10.857H25.3227C25.1318 9.7147 24.6386 8.76449 23.8432 8.0064C23.0477 7.24831 22.0242 6.86926 20.7727 6.86926C19.6909 6.86926 18.6833 7.19119 17.75 7.83505C16.8167 8.47891 16.0636 9.39277 15.4909 10.5766H13.9318C13.3803 9.41354 12.6379 8.50487 11.7045 7.85063C10.7712 7.19638 9.76364 6.86926 8.68182 6.86926C7.28182 6.86926 6.13636 7.33139 5.24545 8.25563C4.35455 9.17988 3.90909 10.3274 3.90909 11.6982C3.90909 12.5082 4.07348 13.2975 4.40227 14.0659C4.73106 14.8344 5.30379 15.7067 6.12045 16.6829C6.93712 17.6591 8.04545 18.8014 9.44545 20.1099C10.8455 21.4184 12.6061 23.028 14.7273 24.9388C15.4061 24.3365 16.0477 23.7757 16.6523 23.2565C17.2568 22.7372 17.8561 22.2284 18.45 21.7299L18.6568 21.9324C18.7947 22.0674 18.9485 22.2128 19.1182 22.3686C19.2879 22.5243 19.4417 22.6697 19.5795 22.8047L19.7864 23.0072C19.2136 23.5057 18.6197 24.0146 18.0045 24.5338C17.3894 25.053 16.7318 25.6242 16.0318 26.2473L14.7273 27.4ZM23.9545 22.4465V18.3964H19.8182V16.5271H23.9545V12.4771H25.8636V16.5271H30V18.3964H25.8636V22.4465H23.9545Z" fill="white"/>
</svg>
