<svg width="32" height="32" viewBox="0 0 32 32" fill="none" xmlns="http://www.w3.org/2000/svg">
<path d="M11.8003 19.2332C11.2892 19.2332 10.8614 19.061 10.517 18.7165C10.1725 18.3721 10.0003 17.9443 10.0003 17.4332C10.0003 16.9221 10.1725 16.4943 10.517 16.1498C10.8614 15.8054 11.2892 15.6332 11.8003 15.6332C12.3114 15.6332 12.7392 15.8054 13.0837 16.1498C13.4281 16.4943 13.6003 16.9221 13.6003 17.4332C13.6003 17.9443 13.4281 18.3721 13.0837 18.7165C12.7392 19.061 12.3114 19.2332 11.8003 19.2332ZM20.2337 19.2332C19.7226 19.2332 19.2948 19.061 18.9503 18.7165C18.6059 18.3721 18.4337 17.9443 18.4337 17.4332C18.4337 16.9221 18.6059 16.4943 18.9503 16.1498C19.2948 15.8054 19.7226 15.6332 20.2337 15.6332C20.7448 15.6332 21.1726 15.8054 21.517 16.1498C21.8614 16.4943 22.0337 16.9221 22.0337 17.4332C22.0337 17.9443 21.8614 18.3721 21.517 18.7165C21.1726 19.061 20.7448 19.2332 20.2337 19.2332ZM16.0003 27.3332C19.1559 27.3332 21.8337 26.2332 24.0337 24.0332C26.2337 21.8332 27.3337 19.1554 27.3337 15.9998C27.3337 15.4221 27.2892 14.8554 27.2003 14.2998C27.1114 13.7443 27.0003 13.2332 26.867 12.7665C26.4226 12.8776 25.9392 12.9554 25.417 12.9998C24.8948 13.0443 24.3559 13.0665 23.8003 13.0665C21.6448 13.0665 19.6059 12.6221 17.6837 11.7332C15.7614 10.8443 14.1226 9.57762 12.767 7.93317C12.0114 9.73317 10.9281 11.3054 9.51699 12.6498C8.10588 13.9943 6.48922 15.0332 4.66699 15.7665V15.9998C4.66699 19.1554 5.76699 21.8332 7.96699 24.0332C10.167 26.2332 12.8448 27.3332 16.0003 27.3332ZM16.0003 29.3332C14.1559 29.3332 12.4226 28.9832 10.8003 28.2832C9.17811 27.5832 7.76699 26.6332 6.56699 25.4332C5.36699 24.2332 4.41699 22.8221 3.71699 21.1998C3.01699 19.5776 2.66699 17.8443 2.66699 15.9998C2.66699 14.1554 3.01699 12.4221 3.71699 10.7998C4.41699 9.17762 5.36699 7.76651 6.56699 6.5665C7.76699 5.3665 9.17811 4.4165 10.8003 3.7165C12.4226 3.0165 14.1559 2.6665 16.0003 2.6665C17.8448 2.6665 19.5781 3.0165 21.2003 3.7165C22.8226 4.4165 24.2337 5.3665 25.4337 6.5665C26.6337 7.76651 27.5837 9.17762 28.2837 10.7998C28.9837 12.4221 29.3337 14.1554 29.3337 15.9998C29.3337 17.8443 28.9837 19.5776 28.2837 21.1998C27.5837 22.8221 26.6337 24.2332 25.4337 25.4332C24.2337 26.6332 22.8226 27.5832 21.2003 28.2832C19.5781 28.9832 17.8448 29.3332 16.0003 29.3332ZM12.9337 5.09984C14.8892 7.38873 16.6948 8.95539 18.3503 9.79984C20.0059 10.6443 21.8226 11.0665 23.8003 11.0665C24.3337 11.0665 24.7559 11.0554 25.067 11.0332C25.3781 11.0109 25.7226 10.9443 26.1003 10.8332C25.1003 9.03317 23.7392 7.55539 22.017 6.39984C20.2948 5.24428 18.2892 4.6665 16.0003 4.6665C15.4003 4.6665 14.8337 4.71095 14.3003 4.79984C13.767 4.88873 13.3114 4.98873 12.9337 5.09984ZM4.96699 13.3998C6.03366 12.9998 7.25033 12.0943 8.61699 10.6832C9.98366 9.27206 10.9559 7.5665 11.5337 5.5665C9.60033 6.43317 8.13922 7.53873 7.15033 8.88317C6.16144 10.2276 5.43366 11.7332 4.96699 13.3998Z" fill="white"/>
</svg>
