<svg width="151" height="150" viewBox="0 0 151 150" fill="none" xmlns="http://www.w3.org/2000/svg">
<circle cx="75.5" cy="75" r="75" fill="white"/>
<mask id="mask0_1_8653" style="mask-type:alpha" maskUnits="userSpaceOnUse" x="0" y="0" width="151" height="150">
<circle cx="75.5" cy="75" r="75" fill="white"/>
</mask>
<g mask="url(#mask0_1_8653)">
<path d="M76.374 13.0459C76.6195 13.8256 76.7724 14.6874 77.0841 15.4278C77.285 15.9049 77.3302 16.397 77.6683 16.848" stroke="#FF801F" stroke-width="2" stroke-linecap="round"/>
<path d="M84.4629 13.7739C84.1302 14.3655 84.1726 15.1213 83.9506 15.7873C83.8546 16.0753 83.7349 16.4672 83.7349 16.767" stroke="#FF801F" stroke-width="2" stroke-linecap="round"/>
<path d="M86.082 19.0321C87.0769 18.9492 88.1173 18.5329 89.0796 18.2816C89.7771 18.0994 90.493 17.9434 91.1784 17.7378" stroke="#FF801F" stroke-width="2" stroke-linecap="round"/>
<path d="M67.6226 55.3535C68.6827 56.4904 69.117 58.0753 68.7846 59.5939L68.7516 59.7444C68.5657 60.5936 68.6031 61.4765 68.8603 62.3069L71.2031 69.871L72.0816 74.7381C72.585 77.5267 73.4808 80.2299 74.7425 82.7672L76.7641 86.8325C77.9131 89.1432 79.3556 91.2961 81.0556 93.2376L87.2736 100.339C90.5492 104.08 94.708 106.943 99.3718 108.667L101.697 109.527C102.171 109.702 102.662 109.826 103.162 109.895C107.37 110.479 111.123 107.211 111.123 102.963V82.8104C111.123 81.4204 109.768 80.4339 108.445 80.8608C107.567 81.1442 106.607 80.8054 106.102 80.0334L102.178 74.0404C101.782 73.4371 101.331 72.8724 100.83 72.354L94.8979 66.2207C93.8082 65.0941 92.8745 63.8264 92.1219 62.4516L91.9661 62.1671C91.3067 60.9626 90.814 59.6741 90.5016 58.3369L89.7173 54.98C89.5518 54.2715 89.1814 53.6275 88.6522 53.1282L87.5938 52.1293C86.9526 51.5242 86.8163 50.5556 87.2656 49.7971C87.3788 49.6061 87.4573 49.3965 87.4976 49.1781L88.8707 41.7318L89.3669 35.9282C89.431 35.1778 89.3963 34.4223 89.2637 33.681L89.2496 33.6019C88.9459 31.9045 88.1241 30.3428 86.897 29.1313L86.7087 28.9454C86.491 28.7305 86.2924 28.4973 86.115 28.2481L84.6154 26.142C84.3363 25.7501 83.8554 25.5552 83.3822 25.6424C83.0121 25.7106 82.6932 25.9433 82.5153 26.2749L82.2574 26.7556L81.1226 29.2495" fill="#FFEFE4"/>
<path d="M67.6226 55.3535V55.3535C68.6827 56.4904 69.117 58.0753 68.7846 59.5939L68.7516 59.7444C68.5657 60.5936 68.6031 61.4765 68.8603 62.307L71.2031 69.871L72.0816 74.7381C72.585 77.5267 73.4808 80.2299 74.7425 82.7672L76.7641 86.8325C77.9131 89.1432 79.3556 91.2961 81.0556 93.2376L87.2736 100.339C90.5492 104.08 94.708 106.943 99.3718 108.667L101.697 109.527C102.171 109.702 102.662 109.826 103.162 109.895V109.895C107.37 110.479 111.123 107.211 111.123 102.963V82.8104C111.123 81.4204 109.768 80.4339 108.445 80.8608V80.8608C107.567 81.1442 106.607 80.8054 106.102 80.0334L102.178 74.0404C101.782 73.4371 101.331 72.8724 100.83 72.354L94.8979 66.2207C93.8082 65.0941 92.8745 63.8264 92.1219 62.4516L91.9661 62.1671C91.3067 60.9626 90.814 59.6741 90.5016 58.3369L89.7173 54.98C89.5518 54.2715 89.1814 53.6275 88.6522 53.1282L87.5938 52.1293C86.9526 51.5242 86.8163 50.5556 87.2656 49.7971V49.7971C87.3788 49.6061 87.4573 49.3965 87.4976 49.1781L88.8707 41.7318L89.3669 35.9282C89.431 35.1778 89.3963 34.4223 89.2637 33.681L89.2496 33.6019C88.946 31.9045 88.1241 30.3427 86.897 29.1313L86.7087 28.9454C86.491 28.7305 86.2924 28.4973 86.115 28.2481L84.6154 26.142C84.3363 25.7501 83.8554 25.5552 83.3822 25.6424V25.6424C83.0121 25.7106 82.6932 25.9433 82.5153 26.2749L82.2574 26.7556L81.1226 29.2495" stroke="black" stroke-width="2" stroke-miterlimit="10"/>
<path d="M62.749 45.75L78.874 27.75H80.749L81.124 30.375L79.999 35.625L68.374 55.125V59.25L63.874 74.25L37.624 102L22.624 128.25L8.37402 122.25L3.49902 102L20.374 79.5L22.624 63L25.624 52.875L31.249 38.625L35.374 36.75L41.374 39.375L47.374 35.625L51.124 39.375L58.249 37.875L62.749 45.75Z" fill="#FDE0CC"/>
<path d="M62.374 67.499V67.499C62.374 65.711 62.7526 63.9432 63.4849 62.3119L64.376 60.3271C65.0248 58.8817 65.8224 57.5078 66.7558 56.2277L72.8271 47.901L75.0546 44.3595C75.6339 43.4385 76.2832 42.5634 76.9968 41.7421L77.4148 41.261C78.1078 40.4634 78.7154 39.5954 79.2275 38.6712V38.6712C80.4714 36.4267 81.124 33.9026 81.124 31.3365V28.499" stroke="black" stroke-width="2" stroke-miterlimit="10"/>
<path d="M61.6226 45.5862L61.2161 46.2686C60.9094 46.7833 60.1175 46.5069 60.1978 45.9132V45.9132C60.2764 45.3319 59.5125 45.0474 59.1916 45.5383L55.6226 50.9995" stroke="black" stroke-width="2" stroke-miterlimit="10"/>
<path d="M58.6235 38.1959V38.1959C57.134 37.2988 55.2826 37.2506 53.7485 38.0691L52.6636 38.6478C51.5735 39.2294 50.6538 40.085 49.9952 41.1304L47.6114 44.9141C46.8044 46.195 45.6918 47.2552 44.3735 47.9995V47.9995" stroke="black" stroke-width="2" stroke-miterlimit="10"/>
<path d="M51.126 39.2299L50.8025 38.5034C50.4777 37.7738 49.9857 37.1309 49.3663 36.6267L49.2285 36.5146C48.6972 36.082 48.0712 35.7811 47.4014 35.6365V35.6365C46.2572 35.3893 45.0615 35.6141 44.0851 36.2598L43.274 36.7962C42.3933 37.3786 41.6638 38.1622 41.1456 39.0822L39.1004 42.7135C38.0395 44.5972 36.4948 46.1633 34.626 47.25V47.25" stroke="black" stroke-width="2" stroke-miterlimit="10"/>
<path d="M40.624 38.6491L39.1618 37.7116C38.1819 37.0834 37.0424 36.7495 35.8784 36.7495H35.7157C34.1686 36.7495 32.6879 37.3784 31.6136 38.4917V38.4917C31.1304 38.9925 30.743 39.5775 30.4705 40.2178L27.1687 47.9765C26.4002 49.7825 25.8107 51.6595 25.4088 53.5807L24.9329 55.8554L24.1891 57.9886C23.4896 59.9945 23.0052 62.0689 22.744 64.1771L22.0437 69.8277C21.4398 74.701 19.6489 79.3516 16.8282 83.3711L6.12402 98.6245" stroke="black" stroke-width="2" stroke-miterlimit="10"/>
<path d="M68.3745 60.75L64.919 70.3454C64.7458 70.8266 64.6571 71.3341 64.6571 71.8456V71.8456C64.6571 72.9529 64.2422 74.0201 63.4941 74.8366L58.4415 80.3515L55.7907 83.8068C53.9473 86.2096 51.7118 88.2841 49.1781 89.9429V89.9429C47.0682 91.3244 45.1628 92.9954 43.5179 94.9072L38.2323 101.05C36.8312 102.679 35.609 104.453 34.5868 106.342L23.7495 126.375" stroke="black" stroke-width="2" stroke-miterlimit="10"/>
<path d="M70.6245 56.249C70.6245 56.249 77.6697 55.4583 79.8605 54.6657C81.2338 54.1674 84.8745 51.749 84.8745 51.749" stroke="black" stroke-width="2" stroke-miterlimit="10"/>
<path d="M108.807 80.7169C108.85 80.4669 108.938 80.2268 109.066 80.0079C109.444 79.3629 110.135 78.9666 110.883 78.9666H115.781C115.984 78.9666 116.186 78.9871 116.384 79.0277L119.134 79.5916C119.332 79.6322 119.534 79.6527 119.736 79.6527H123.519C124.037 79.6527 124.546 79.5187 124.996 79.2638L132.32 75.1201C132.461 75.0402 132.609 74.9718 132.761 74.9158L146.836 69.7355C148.794 69.0147 150.872 70.464 150.872 72.5509V88.0258C150.872 88.34 150.823 88.6522 150.726 88.9511L147.122 100.065L142.892 110.854C142.494 111.87 141.576 112.589 140.495 112.733L120.634 115.377C120.033 115.457 119.421 115.353 118.88 115.078L116.941 114.094C116.561 113.901 116.144 113.791 115.718 113.772L110.587 113.54C110.26 113.525 109.939 113.457 109.634 113.339L105.905 111.888" fill="#FFC89F"/>
<path d="M60.5426 32.2495L59.9307 32.6916C59.152 33.2542 58.58 34.0573 58.303 34.9771C58.0254 35.8988 58.0594 36.8862 58.3998 37.7866L58.5958 38.3051L59.6201 40.372C59.9972 41.1328 60.3174 41.9205 60.578 42.7287L61.0831 44.2953C61.1052 44.3637 61.1341 44.4297 61.1695 44.4922C61.5223 45.1149 62.3784 45.2153 62.8657 44.6912L70.3724 36.6168C70.6802 36.2857 70.9467 35.9185 71.1661 35.5232C71.3984 35.1046 71.6836 34.7175 72.0146 34.3715L73.625 32.6882" fill="#FFEFE4"/>
<path d="M60.5426 32.2495L59.9307 32.6916C59.152 33.2542 58.58 34.0573 58.303 34.9771V34.9771C58.0254 35.8988 58.0594 36.8862 58.3998 37.7866L58.5958 38.3051L59.6201 40.372C59.9972 41.1328 60.3174 41.9205 60.578 42.7287L61.0831 44.2953C61.1052 44.3637 61.1341 44.4297 61.1695 44.4922V44.4922C61.5223 45.1149 62.3784 45.2153 62.8657 44.6912L70.3724 36.6168C70.6802 36.2857 70.9467 35.9185 71.1661 35.5232V35.5232C71.3984 35.1046 71.6836 34.7175 72.0146 34.3715L73.625 32.6882" stroke="black" stroke-width="2" stroke-miterlimit="10"/>
<path d="M75.9697 30.1758C75.9697 30.1758 76.9542 30.2587 77.2666 30.1758C77.811 30.0291 78.7932 29.2954 79.0394 28.7889C79.1364 28.5877 79.0394 27.8966 79.0394 27.8966C79.0394 27.8966 79.1861 25.8399 79.0394 25.1748C78.8808 24.46 78.069 23.0826 77.4252 22.737C76.7815 22.3915 75.2052 22.4506 74.5448 22.737C73.8372 23.0447 72.126 24.6494 72.126 24.6494" fill="#FFEFE4"/>
<path d="M75.9697 30.1758C75.9697 30.1758 76.9542 30.2587 77.2666 30.1758C77.811 30.0291 78.7932 29.2954 79.0394 28.7889C79.1364 28.5877 79.0394 27.8966 79.0394 27.8966C79.0394 27.8966 79.1861 25.8399 79.0394 25.1748C78.8808 24.46 78.069 23.0826 77.4252 22.737C76.7815 22.3915 75.2052 22.4506 74.5448 22.737C73.8372 23.0447 72.126 24.6494 72.126 24.6494" stroke="black" stroke-width="2" stroke-miterlimit="10"/>
<path d="M68.9389 30.3477C68.9385 30.348 68.9388 30.3486 68.9393 30.3484C68.9836 30.3266 69.6597 29.9972 69.8984 30.0494C70.7732 30.2416 71.9555 32.1115 72.7198 32.5779C73.1745 32.8542 74.0623 33.2105 75.2836 32.8413C76.0588 32.6081 76.4334 31.8653 76.5936 31.2996C76.7906 30.6022 76.0133 29.4513 75.5694 28.877C73.9432 26.7717 72.9818 24.1915 71.3795 24.0295C69.1947 23.8071 67.2329 24.8457 65.7539 26.3356C65.1939 26.8992 65.8581 27.8326 66.5552 28.2141C66.9835 28.4486 67.4139 28.7001 67.6248 28.8705C68.0091 29.1805 68.9339 30.3408 68.9391 30.3474C68.9393 30.3475 68.939 30.3475 68.9389 30.3477Z" fill="#FFEFE4" stroke="black" stroke-width="2" stroke-miterlimit="10"/>
<path d="M61.1133 32.454C60.7467 32.5028 60.3949 32.2925 60.2643 31.9465C60.1746 31.7088 60.2039 31.4426 60.343 31.23L61.269 29.8158C61.7781 29.0382 62.5351 28.4556 63.417 28.1625L64.0269 27.9598C64.2923 27.8716 64.5681 27.8187 64.8472 27.8025C65.437 27.7682 66.0247 27.8984 66.5448 28.1787L67.1894 28.526C67.741 28.8233 68.2405 29.2084 68.6683 29.6663L69.0241 30.047C69.2414 30.2796 69.4267 30.5401 69.5751 30.8217L69.9589 31.5496C70.152 31.916 70.4817 32.1915 70.8765 32.3165C71.3189 32.4566 71.6769 32.7846 71.8551 33.213L71.8817 33.277C72.0367 33.6497 72.0546 34.0694 71.9348 34.4548C71.8197 34.8254 71.5833 35.1515 71.2653 35.3739L70.8954 35.6325C70.5533 35.8717 70.1458 36 69.7283 36C69.4537 36 69.1819 35.9445 68.9292 35.8367L68.7647 35.7665C68.6423 35.7143 68.5245 35.6517 68.4128 35.5793L68.2062 35.4454C67.9301 35.2665 67.7174 35.0051 67.5985 34.6983C67.3961 34.176 66.9296 33.8019 66.3757 33.7177L66.3118 33.708C66.1854 33.6888 66.0616 33.6552 65.9429 33.6078L63.048 32.4532C62.7316 32.3271 62.388 32.2844 62.0504 32.3293L61.1133 32.454Z" fill="#FFEFE4" stroke="black" stroke-width="2" stroke-miterlimit="10"/>
<path d="M117.236 83.458C117.236 87.1253 117.236 90.7926 117.236 94.4599C117.236 95.3976 117.236 96.3354 117.236 97.2731C117.236 97.8066 117.246 98.3412 117.236 98.8746C117.225 99.4516 116.933 100.009 116.798 100.567C116.621 101.291 116.412 102.116 116.046 102.767C115.688 103.402 115.621 104.124 115.301 104.766C115.013 105.342 114.773 105.901 114.423 106.451C114.292 106.657 114.165 107.053 113.978 107.147" stroke="black" stroke-width="2" stroke-linecap="round"/>
<path d="M81.501 28.499V31.874L83.751 35.624" stroke="black" stroke-width="2"/>
<path d="M79.623 28.1245H80.748V29.6245" stroke="black"/>
</g>
</svg>
