<svg width="64" height="64" viewBox="0 0 64 64" fill="none" xmlns="http://www.w3.org/2000/svg">
<path d="M64 32C64 49.6731 49.6731 64 32 64C14.3269 64 0 49.6731 0 32C0 14.3269 14.3269 0 32 0C49.6731 0 64 14.3269 64 32Z" fill="white"/>
<path fill-rule="evenodd" clip-rule="evenodd" d="M32 63C49.1208 63 63 49.1208 63 32C63 14.8792 49.1208 1 32 1C14.8792 1 1 14.8792 1 32C1 49.1208 14.8792 63 32 63ZM32 64C49.6731 64 64 49.6731 64 32C64 14.3269 49.6731 0 32 0C14.3269 0 0 14.3269 0 32C0 49.6731 14.3269 64 32 64Z" fill="#E4E4E4"/>
<rect x="17" y="30" width="30" height="4" fill="white"/>
<path d="M16 29H48V35H16V29Z" fill="#6DC528"/>
<rect x="17" y="30" width="30" height="4"  stroke-width="2"/>
<rect x="34" y="17" width="30" height="4" transform="rotate(90 34 17)" fill="white"/>
<path d="M35 16L35 48L29 48L29 16L35 16Z" fill="#6DC528"/>
<rect x="34" y="17" width="30" height="4" transform="rotate(90 34 17)"  stroke-width="2"/>
</svg>
